STARTFONT 2.1
COMMENT From: Id: 6x13.bdf,v 1.60 1999-04-18 10:32:10+01 mgk25 Rel $
COMMENT Send bug reports to Markus Kuhn <mkuhn@acm.org>
COMMENT Glyphs 0-31 and 127 are deprecated and might be removed in the future.
COMMENT $XFree86$
FONT -Misc-Fixed-Medium-R-SemiCondensed--13-120-75-75-C-60-ISO10646-1
SIZE 12 75 75
FONTBOUNDINGBOX 6 13 0 -2
STARTPROPERTIES 25
FONTNAME_REGISTRY ""
FOUNDRY "Misc"
FAMILY_NAME "Fixed"
WEIGHT_NAME "Medium"
SLANT "R"
SETWIDTH_NAME "SemiCondensed"
ADD_STYLE_NAME ""
PIXEL_SIZE 13
POINT_SIZE 120
RESOLUTION_X 75
RESOLUTION_Y 75
SPACING "C"
AVERAGE_WIDTH 60
CHARSET_REGISTRY "ISO10646"
CHARSET_ENCODING "1"
DEFAULT_CHAR 65534
FONT_DESCENT 2
FONT_ASCENT 11
COPYRIGHT "Public domain font.  Share and enjoy."
_XMBDFED_INFO "Edited with xmbdfed 3.8."
_XFREE86_GLYPH_RANGES "0_127 160_501 506_535 592_680 688_734 736_745 884_885 890 894 900_906 908 910_929 931_974 976_982 986 988 990 992 994_1011 1025_1036 1038_1103 1105_1116 1118_1154 1168_1220 1223_1224 1227_1228 1232_1259 1262_1269 1272_1273 1329_1366 1369_1375 1377_1415 1417 1470 1472 1475 1488_1514 1520_1524"
_XFREE86_GLYPH_RANGES "4304_4342 4347 7680_7835 7840_7929 7936_7957 7960_7965 7968_8005 8008_8013 8016_8023 8025 8027 8029 8031_8061 8064_8116 8118_8132 8134_8147 8150_8155 8157_8175 8178_8180 8182_8190 8192_8202 8208_8231 8240 8242_8262 8304 8308_8334 8352_8364 8448_8498 8500_8504 8531_8549 8552_8554"
_XFREE86_GLYPH_RANGES "8556_8565 8568_8570 8572_8577 8592_8601 8606_8620 8623_8652 8656_8661 8666_8667 8670_8682 8704_8751 8753_8919 8922_8945 8960 8962_9082 9216_9252 9280_9290 9312_9330 9332_9350 9450 9472_9479 9482_9621 9632_9635 9642_9676 9679_9711 9728_9747 9761 9765_9770 9773 9776_9783 9785_9807 9810"

STARTCHAR char0
ENCODING 0
SWIDTH 480 0
DWIDTH 6 0
BBX 6 13 0 -2
BITMAP
00
78
78
78
78
78
78
78
78
78
78
78
00
ENDCHAR
STARTCHAR char1
ENCODING 1
SWIDTH 480 0
DWIDTH 6 0
BBX 6 13 0 -2
BITMAP
00
00
00
00
00
20
70
F8
70
20
00
00
00
ENDCHAR
STARTCHAR char2
ENCODING 2
SWIDTH 480 0
DWIDTH 6 0
BBX 6 13 0 -2
BITMAP
00
54
A8
54
A8
54
A8
54
A8
54
A8
54
A8
ENDCHAR
STARTCHAR char3
ENCODING 3
SWIDTH 480 0
DWIDTH 6 0
BBX 6 13 0 -2
BITMAP
00
00
00
00
A0
A0
E0
A0
A0
70
20
20
20
ENDCHAR
STARTCHAR char4
ENCODING 4
SWIDTH 480 0
DWIDTH 6 0
BBX 6 13 0 -2
BITMAP
00
00
00
00
E0
80
C0
80
F0
40
60
40
40
ENDCHAR
STARTCHAR char5
ENCODING 5
SWIDTH 480 0
DWIDTH 6 0
BBX 6 13 0 -2
BITMAP
00
00
00
00
70
80
80
70
70
48
70
50
48
ENDCHAR
STARTCHAR char6
ENCODING 6
SWIDTH 480 0
DWIDTH 6 0
BBX 6 13 0 -2
BITMAP
00
00
00
00
80
80
80
E0
70
40
60
40
40
ENDCHAR
STARTCHAR char7
ENCODING 7
SWIDTH 480 0
DWIDTH 6 0
BBX 6 13 0 -2
BITMAP
00
00
60
90
90
60
00
00
00
00
00
00
00
ENDCHAR
STARTCHAR char8
ENCODING 8
SWIDTH 480 0
DWIDTH 6 0
BBX 6 13 0 -2
BITMAP
00
00
00
00
20
20
F8
20
20
00
F8
00
00
ENDCHAR
STARTCHAR char9
ENCODING 9
SWIDTH 480 0
DWIDTH 6 0
BBX 6 13 0 -2
BITMAP
00
00
00
00
88
C8
A8
98
88
40
40
40
78
ENDCHAR
STARTCHAR char10
ENCODING 10
SWIDTH 480 0
DWIDTH 6 0
BBX 6 13 0 -2
BITMAP
00
00
00
00
88
88
50
20
00
F8
20
20
20
ENDCHAR
STARTCHAR char11
ENCODING 11
SWIDTH 480 0
DWIDTH 6 0
BBX 6 13 0 -2
BITMAP
20
20
20
20
20
20
20
E0
00
00
00
00
00
ENDCHAR
STARTCHAR char12
ENCODING 12
SWIDTH 480 0
DWIDTH 6 0
BBX 6 13 0 -2
BITMAP
00
00
00
00
00
00
00
E0
20
20
20
20
20
ENDCHAR
STARTCHAR char13
ENCODING 13
SWIDTH 480 0
DWIDTH 6 0
BBX 6 13 0 -2
BITMAP
00
00
00
00
00
00
00
3C
20
20
20
20
20
ENDCHAR
STARTCHAR char14
ENCODING 14
SWIDTH 480 0
DWIDTH 6 0
BBX 6 13 0 -2
BITMAP
20
20
20
20
20
20
20
3C
00
00
00
00
00
ENDCHAR
STARTCHAR char15
ENCODING 15
SWIDTH 480 0
DWIDTH 6 0
BBX 6 13 0 -2
BITMAP
20
20
20
20
20
20
20
FC
20
20
20
20
20
ENDCHAR
STARTCHAR char16
ENCODING 16
SWIDTH 480 0
DWIDTH 6 0
BBX 6 13 0 -2
BITMAP
00
00
00
FC
00
00
00
00
00
00
00
00
00
ENDCHAR
STARTCHAR char17
ENCODING 17
SWIDTH 480 0
DWIDTH 6 0
BBX 6 13 0 -2
BITMAP
00
00
00
00
00
FC
00
00
00
00
00
00
00
ENDCHAR
STARTCHAR char18
ENCODING 18
SWIDTH 480 0
DWIDTH 6 0
BBX 6 13 0 -2
BITMAP
00
00
00
00
00
00
00
FC
00
00
00
00
00
ENDCHAR
STARTCHAR char19
ENCODING 19
SWIDTH 480 0
DWIDTH 6 0
BBX 6 13 0 -2
BITMAP
00
00
00
00
00
00
00
00
00
FC
00
00
00
ENDCHAR
STARTCHAR char20
ENCODING 20
SWIDTH 480 0
DWIDTH 6 0
BBX 6 13 0 -2
BITMAP
00
00
00
00
00
00
00
00
00
00
00
FC
00
ENDCHAR
STARTCHAR char21
ENCODING 21
SWIDTH 480 0
DWIDTH 6 0
BBX 6 13 0 -2
BITMAP
20
20
20
20
20
20
20
3C
20
20
20
20
20
ENDCHAR
STARTCHAR char22
ENCODING 22
SWIDTH 480 0
DWIDTH 6 0
BBX 6 13 0 -2
BITMAP
20
20
20
20
20
20
20
E0
20
20
20
20
20
ENDCHAR
STARTCHAR char23
ENCODING 23
SWIDTH 480 0
DWIDTH 6 0
BBX 6 13 0 -2
BITMAP
20
20
20
20
20
20
20
FC
00
00
00
00
00
ENDCHAR
STARTCHAR char24
ENCODING 24
SWIDTH 480 0
DWIDTH 6 0
BBX 6 13 0 -2
BITMAP
00
00
00
00
00
00
00
FC
20
20
20
20
20
ENDCHAR
STARTCHAR char25
ENCODING 25
SWIDTH 480 0
DWIDTH 6 0
BBX 6 13 0 -2
BITMAP
20
20
20
20
20
20
20
20
20
20
20
20
20
ENDCHAR
STARTCHAR char26
ENCODING 26
SWIDTH 480 0
DWIDTH 6 0
BBX 6 13 0 -2
BITMAP
00
00
00
08
10
20
40
20
10
08
F8
00
00
ENDCHAR
STARTCHAR char27
ENCODING 27
SWIDTH 480 0
DWIDTH 6 0
BBX 6 13 0 -2
BITMAP
00
00
00
80
40
20
10
20
40
80
F8
00
00
ENDCHAR
STARTCHAR char28
ENCODING 28
SWIDTH 480 0
DWIDTH 6 0
BBX 6 13 0 -2
BITMAP
00
00
00
00
00
F8
50
50
50
50
90
00
00
ENDCHAR
STARTCHAR char29
ENCODING 29
SWIDTH 480 0
DWIDTH 6 0
BBX 6 13 0 -2
BITMAP
00
00
00
00
00
08
F8
20
F8
80
00
00
00
ENDCHAR
STARTCHAR char30
ENCODING 30
SWIDTH 480 0
DWIDTH 6 0
BBX 6 13 0 -2
BITMAP
00
00
30
48
40
40
E0
40
40
48
B0
00
00
ENDCHAR
STARTCHAR char31
ENCODING 31
SWIDTH 480 0
DWIDTH 6 0
BBX 6 13 0 -2
BITMAP
00
00
00
00
00
00
00
00
20
00
00
00
00
ENDCHAR
STARTCHAR U+0020
ENCODING 32
SWIDTH 480 0
DWIDTH 6 0
BBX 6 13 0 -2
BITMAP
00
00
00
00
00
00
00
00
00
00
00
00
00
ENDCHAR
STARTCHAR U+0021
ENCODING 33
SWIDTH 480 0
DWIDTH 6 0
BBX 6 13 0 -2
BITMAP
00
00
20
20
20
20
20
20
20
00
20
00
00
ENDCHAR
STARTCHAR U+0022
ENCODING 34
SWIDTH 480 0
DWIDTH 6 0
BBX 6 13 0 -2
BITMAP
00
00
50
50
50
00
00
00
00
00
00
00
00
ENDCHAR
STARTCHAR U+0023
ENCODING 35
SWIDTH 480 0
DWIDTH 6 0
BBX 6 13 0 -2
BITMAP
00
00
00
50
50
F8
50
F8
50
50
00
00
00
ENDCHAR
STARTCHAR U+0024
ENCODING 36
SWIDTH 480 0
DWIDTH 6 0
BBX 6 13 0 -2
BITMAP
00
00
20
78
A0
A0
70
28
28
F0
20
00
00
ENDCHAR
STARTCHAR U+0025
ENCODING 37
SWIDTH 480 0
DWIDTH 6 0
BBX 6 13 0 -2
BITMAP
00
00
48
A8
50
10
20
40
50
A8
90
00
00
ENDCHAR
STARTCHAR U+0026
ENCODING 38
SWIDTH 480 0
DWIDTH 6 0
BBX 6 13 0 -2
BITMAP
00
00
40
A0
A0
40
A0
98
90
68
00
00
00
ENDCHAR
STARTCHAR U+0027
ENCODING 39
SWIDTH 480 0
DWIDTH 6 0
BBX 6 13 0 -2
BITMAP
00
00
30
20
40
00
00
00
00
00
00
00
00
ENDCHAR
STARTCHAR U+0028
ENCODING 40
SWIDTH 480 0
DWIDTH 6 0
BBX 6 13 0 -2
BITMAP
00
00
10
20
20
40
40
40
20
20
10
00
00
ENDCHAR
STARTCHAR U+0029
ENCODING 41
SWIDTH 480 0
DWIDTH 6 0
BBX 6 13 0 -2
BITMAP
00
00
40
20
20
10
10
10
20
20
40
00
00
ENDCHAR
STARTCHAR U+002A
ENCODING 42
SWIDTH 480 0
DWIDTH 6 0
BBX 6 13 0 -2
BITMAP
00
00
00
20
A8
F8
70
F8
A8
20
00
00
00
ENDCHAR
STARTCHAR U+002B
ENCODING 43
SWIDTH 480 0
DWIDTH 6 0
BBX 6 13 0 -2
BITMAP
00
00
00
00
20
20
F8
20
20
00
00
00
00
ENDCHAR
STARTCHAR U+002C
ENCODING 44
SWIDTH 480 0
DWIDTH 6 0
BBX 6 13 0 -2
BITMAP
00
00
00
00
00
00
00
00
00
30
20
40
00
ENDCHAR
STARTCHAR U+002D
ENCODING 45
SWIDTH 480 0
DWIDTH 6 0
BBX 6 13 0 -2
BITMAP
00
00
00
00
00
00
F8
00
00
00
00
00
00
ENDCHAR
STARTCHAR U+002E
ENCODING 46
SWIDTH 480 0
DWIDTH 6 0
BBX 6 13 0 -2
BITMAP
00
00
00
00
00
00
00
00
00
20
70
20
00
ENDCHAR
STARTCHAR U+002F
ENCODING 47
SWIDTH 480 0
DWIDTH 6 0
BBX 6 13 0 -2
BITMAP
00
00
08
08
10
10
20
40
40
80
80
00
00
ENDCHAR
STARTCHAR U+0030
ENCODING 48
SWIDTH 480 0
DWIDTH 6 0
BBX 6 13 0 -2
BITMAP
00
00
20
50
88
88
88
88
88
50
20
00
00
ENDCHAR
STARTCHAR U+0031
ENCODING 49
SWIDTH 480 0
DWIDTH 6 0
BBX 6 13 0 -2
BITMAP
00
00
20
60
A0
20
20
20
20
20
F8
00
00
ENDCHAR
STARTCHAR U+0032
ENCODING 50
SWIDTH 480 0
DWIDTH 6 0
BBX 6 13 0 -2
BITMAP
00
00
70
88
88
08
10
20
40
80
F8
00
00
ENDCHAR
STARTCHAR U+0033
ENCODING 51
SWIDTH 480 0
DWIDTH 6 0
BBX 6 13 0 -2
BITMAP
00
00
F8
08
10
20
70
08
08
88
70
00
00
ENDCHAR
STARTCHAR U+0034
ENCODING 52
SWIDTH 480 0
DWIDTH 6 0
BBX 6 13 0 -2
BITMAP
00
00
10
10
30
50
50
90
F8
10
10
00
00
ENDCHAR
STARTCHAR U+0035
ENCODING 53
SWIDTH 480 0
DWIDTH 6 0
BBX 6 13 0 -2
BITMAP
00
00
F8
80
80
B0
C8
08
08
88
70
00
00
ENDCHAR
STARTCHAR U+0036
ENCODING 54
SWIDTH 480 0
DWIDTH 6 0
BBX 6 13 0 -2
BITMAP
00
00
70
88
80
80
F0
88
88
88
70
00
00
ENDCHAR
STARTCHAR U+0037
ENCODING 55
SWIDTH 480 0
DWIDTH 6 0
BBX 6 13 0 -2
BITMAP
00
00
F8
08
10
10
20
20
40
40
40
00
00
ENDCHAR
STARTCHAR U+0038
ENCODING 56
SWIDTH 480 0
DWIDTH 6 0
BBX 6 13 0 -2
BITMAP
00
00
70
88
88
88
70
88
88
88
70
00
00
ENDCHAR
STARTCHAR U+0039
ENCODING 57
SWIDTH 480 0
DWIDTH 6 0
BBX 6 13 0 -2
BITMAP
00
00
70
88
88
88
78
08
08
88
70
00
00
ENDCHAR
STARTCHAR U+003A
ENCODING 58
SWIDTH 480 0
DWIDTH 6 0
BBX 6 13 0 -2
BITMAP
00
00
00
00
20
70
20
00
00
20
70
20
00
ENDCHAR
STARTCHAR U+003B
ENCODING 59
SWIDTH 480 0
DWIDTH 6 0
BBX 6 13 0 -2
BITMAP
00
00
00
00
20
70
20
00
00
30
20
40
00
ENDCHAR
STARTCHAR U+003C
ENCODING 60
SWIDTH 480 0
DWIDTH 6 0
BBX 6 13 0 -2
BITMAP
00
00
08
10
20
40
80
40
20
10
08
00
00
ENDCHAR
STARTCHAR U+003D
ENCODING 61
SWIDTH 480 0
DWIDTH 6 0
BBX 6 13 0 -2
BITMAP
00
00
00
00
00
F8
00
00
F8
00
00
00
00
ENDCHAR
STARTCHAR U+003E
ENCODING 62
SWIDTH 480 0
DWIDTH 6 0
BBX 6 13 0 -2
BITMAP
00
00
80
40
20
10
08
10
20
40
80
00
00
ENDCHAR
STARTCHAR U+003F
ENCODING 63
SWIDTH 480 0
DWIDTH 6 0
BBX 6 13 0 -2
BITMAP
00
00
70
88
88
08
10
20
20
00
20
00
00
ENDCHAR
STARTCHAR U+0040
ENCODING 64
SWIDTH 480 0
DWIDTH 6 0
BBX 6 13 0 -2
BITMAP
00
00
70
88
88
98
A8
A8
B0
80
78
00
00
ENDCHAR
STARTCHAR U+0041
ENCODING 65
SWIDTH 480 0
DWIDTH 6 0
BBX 6 13 0 -2
BITMAP
00
00
20
50
88
88
88
F8
88
88
88
00
00
ENDCHAR
STARTCHAR U+0042
ENCODING 66
SWIDTH 480 0
DWIDTH 6 0
BBX 6 13 0 -2
BITMAP
00
00
F0
48
48
48
70
48
48
48
F0
00
00
ENDCHAR
STARTCHAR U+0043
ENCODING 67
SWIDTH 480 0
DWIDTH 6 0
BBX 6 13 0 -2
BITMAP
00
00
70
88
80
80
80
80
80
88
70
00
00
ENDCHAR
STARTCHAR U+0044
ENCODING 68
SWIDTH 480 0
DWIDTH 6 0
BBX 6 13 0 -2
BITMAP
00
00
F0
48
48
48
48
48
48
48
F0
00
00
ENDCHAR
STARTCHAR U+0045
ENCODING 69
SWIDTH 480 0
DWIDTH 6 0
BBX 6 13 0 -2
BITMAP
00
00
F8
80
80
80
F0
80
80
80
F8
00
00
ENDCHAR
STARTCHAR U+0046
ENCODING 70
SWIDTH 480 0
DWIDTH 6 0
BBX 6 13 0 -2
BITMAP
00
00
F8
80
80
80
F0
80
80
80
80
00
00
ENDCHAR
STARTCHAR U+0047
ENCODING 71
SWIDTH 480 0
DWIDTH 6 0
BBX 6 13 0 -2
BITMAP
00
00
70
88
80
80
80
98
88
88
70
00
00
ENDCHAR
STARTCHAR U+0048
ENCODING 72
SWIDTH 480 0
DWIDTH 6 0
BBX 6 13 0 -2
BITMAP
00
00
88
88
88
88
F8
88
88
88
88
00
00
ENDCHAR
STARTCHAR U+0049
ENCODING 73
SWIDTH 480 0
DWIDTH 6 0
BBX 6 13 0 -2
BITMAP
00
00
70
20
20
20
20
20
20
20
70
00
00
ENDCHAR
STARTCHAR U+004A
ENCODING 74
SWIDTH 480 0
DWIDTH 6 0
BBX 6 13 0 -2
BITMAP
00
00
38
10
10
10
10
10
10
90
60
00
00
ENDCHAR
STARTCHAR U+004B
ENCODING 75
SWIDTH 480 0
DWIDTH 6 0
BBX 6 13 0 -2
BITMAP
00
00
88
88
90
A0
C0
A0
90
88
88
00
00
ENDCHAR
STARTCHAR U+004C
ENCODING 76
SWIDTH 480 0
DWIDTH 6 0
BBX 6 13 0 -2
BITMAP
00
00
80
80
80
80
80
80
80
80
F8
00
00
ENDCHAR
STARTCHAR U+004D
ENCODING 77
SWIDTH 480 0
DWIDTH 6 0
BBX 6 13 0 -2
BITMAP
00
00
88
88
D8
A8
A8
88
88
88
88
00
00
ENDCHAR
STARTCHAR U+004E
ENCODING 78
SWIDTH 480 0
DWIDTH 6 0
BBX 6 13 0 -2
BITMAP
00
00
88
C8
C8
A8
A8
98
98
88
88
00
00
ENDCHAR
STARTCHAR U+004F
ENCODING 79
SWIDTH 480 0
DWIDTH 6 0
BBX 6 13 0 -2
BITMAP
00
00
70
88
88
88
88
88
88
88
70
00
00
ENDCHAR
STARTCHAR U+0050
ENCODING 80
SWIDTH 480 0
DWIDTH 6 0
BBX 6 13 0 -2
BITMAP
00
00
F0
88
88
88
F0
80
80
80
80
00
00
ENDCHAR
STARTCHAR U+0051
ENCODING 81
SWIDTH 480 0
DWIDTH 6 0
BBX 6 13 0 -2
BITMAP
00
00
70
88
88
88
88
88
88
A8
70
08
00
ENDCHAR
STARTCHAR U+0052
ENCODING 82
SWIDTH 480 0
DWIDTH 6 0
BBX 6 13 0 -2
BITMAP
00
00
F0
88
88
88
F0
A0
90
88
88
00
00
ENDCHAR
STARTCHAR U+0053
ENCODING 83
SWIDTH 480 0
DWIDTH 6 0
BBX 6 13 0 -2
BITMAP
00
00
70
88
80
80
70
08
08
88
70
00
00
ENDCHAR
STARTCHAR U+0054
ENCODING 84
SWIDTH 480 0
DWIDTH 6 0
BBX 6 13 0 -2
BITMAP
00
00
F8
20
20
20
20
20
20
20
20
00
00
ENDCHAR
STARTCHAR U+0055
ENCODING 85
SWIDTH 480 0
DWIDTH 6 0
BBX 6 13 0 -2
BITMAP
00
00
88
88
88
88
88
88
88
88
70
00
00
ENDCHAR
STARTCHAR U+0056
ENCODING 86
SWIDTH 480 0
DWIDTH 6 0
BBX 6 13 0 -2
BITMAP
00
00
88
88
88
88
50
50
50
20
20
00
00
ENDCHAR
STARTCHAR U+0057
ENCODING 87
SWIDTH 480 0
DWIDTH 6 0
BBX 6 13 0 -2
BITMAP
00
00
88
88
88
88
A8
A8
A8
D8
88
00
00
ENDCHAR
STARTCHAR U+0058
ENCODING 88
SWIDTH 480 0
DWIDTH 6 0
BBX 6 13 0 -2
BITMAP
00
00
88
88
50
50
20
50
50
88
88
00
00
ENDCHAR
STARTCHAR U+0059
ENCODING 89
SWIDTH 480 0
DWIDTH 6 0
BBX 6 13 0 -2
BITMAP
00
00
88
88
50
50
20
20
20
20
20
00
00
ENDCHAR
STARTCHAR U+005A
ENCODING 90
SWIDTH 480 0
DWIDTH 6 0
BBX 6 13 0 -2
BITMAP
00
00
F8
08
10
10
20
40
40
80
F8
00
00
ENDCHAR
STARTCHAR U+005B
ENCODING 91
SWIDTH 480 0
DWIDTH 6 0
BBX 6 13 0 -2
BITMAP
00
00
70
40
40
40
40
40
40
40
70
00
00
ENDCHAR
STARTCHAR U+005C
ENCODING 92
SWIDTH 480 0
DWIDTH 6 0
BBX 6 13 0 -2
BITMAP
00
00
80
80
40
40
20
10
10
08
08
00
00
ENDCHAR
STARTCHAR U+005D
ENCODING 93
SWIDTH 480 0
DWIDTH 6 0
BBX 6 13 0 -2
BITMAP
00
00
70
10
10
10
10
10
10
10
70
00
00
ENDCHAR
STARTCHAR U+005E
ENCODING 94
SWIDTH 480 0
DWIDTH 6 0
BBX 6 13 0 -2
BITMAP
00
00
20
50
88
00
00
00
00
00
00
00
00
ENDCHAR
STARTCHAR U+005F
ENCODING 95
SWIDTH 480 0
DWIDTH 6 0
BBX 6 13 0 -2
BITMAP
00
00
00
00
00
00
00
00
00
00
00
F8
00
ENDCHAR
STARTCHAR U+0060
ENCODING 96
SWIDTH 480 0
DWIDTH 6 0
BBX 6 13 0 -2
BITMAP
00
00
30
10
08
00
00
00
00
00
00
00
00
ENDCHAR
STARTCHAR U+0061
ENCODING 97
SWIDTH 480 0
DWIDTH 6 0
BBX 6 13 0 -2
BITMAP
00
00
00
00
00
70
08
78
88
88
78
00
00
ENDCHAR
STARTCHAR U+0062
ENCODING 98
SWIDTH 480 0
DWIDTH 6 0
BBX 6 13 0 -2
BITMAP
00
00
80
80
80
F0
88
88
88
88
F0
00
00
ENDCHAR
STARTCHAR U+0063
ENCODING 99
SWIDTH 480 0
DWIDTH 6 0
BBX 6 13 0 -2
BITMAP
00
00
00
00
00
70
88
80
80
88
70
00
00
ENDCHAR
STARTCHAR U+0064
ENCODING 100
SWIDTH 480 0
DWIDTH 6 0
BBX 6 13 0 -2
BITMAP
00
00
08
08
08
78
88
88
88
88
78
00
00
ENDCHAR
STARTCHAR U+0065
ENCODING 101
SWIDTH 480 0
DWIDTH 6 0
BBX 6 13 0 -2
BITMAP
00
00
00
00
00
70
88
F8
80
88
70
00
00
ENDCHAR
STARTCHAR U+0066
ENCODING 102
SWIDTH 480 0
DWIDTH 6 0
BBX 6 13 0 -2
BITMAP
00
00
30
48
40
40
F0
40
40
40
40
00
00
ENDCHAR
STARTCHAR U+0067
ENCODING 103
SWIDTH 480 0
DWIDTH 6 0
BBX 6 13 0 -2
BITMAP
00
00
00
00
00
70
88
88
88
78
08
88
70
ENDCHAR
STARTCHAR U+0068
ENCODING 104
SWIDTH 480 0
DWIDTH 6 0
BBX 6 13 0 -2
BITMAP
00
00
80
80
80
B0
C8
88
88
88
88
00
00
ENDCHAR
STARTCHAR U+0069
ENCODING 105
SWIDTH 480 0
DWIDTH 6 0
BBX 6 13 0 -2
BITMAP
00
00
00
20
00
60
20
20
20
20
70
00
00
ENDCHAR
STARTCHAR U+006A
ENCODING 106
SWIDTH 480 0
DWIDTH 6 0
BBX 6 13 0 -2
BITMAP
00
00
00
10
00
30
10
10
10
10
90
90
60
ENDCHAR
STARTCHAR U+006B
ENCODING 107
SWIDTH 480 0
DWIDTH 6 0
BBX 6 13 0 -2
BITMAP
00
00
80
80
80
90
A0
C0
A0
90
88
00
00
ENDCHAR
STARTCHAR U+006C
ENCODING 108
SWIDTH 480 0
DWIDTH 6 0
BBX 6 13 0 -2
BITMAP
00
00
60
20
20
20
20
20
20
20
70
00
00
ENDCHAR
STARTCHAR U+006D
ENCODING 109
SWIDTH 480 0
DWIDTH 6 0
BBX 6 13 0 -2
BITMAP
00
00
00
00
00
D0
A8
A8
A8
A8
88
00
00
ENDCHAR
STARTCHAR U+006E
ENCODING 110
SWIDTH 480 0
DWIDTH 6 0
BBX 6 13 0 -2
BITMAP
00
00
00
00
00
B0
C8
88
88
88
88
00
00
ENDCHAR
STARTCHAR U+006F
ENCODING 111
SWIDTH 480 0
DWIDTH 6 0
BBX 6 13 0 -2
BITMAP
00
00
00
00
00
70
88
88
88
88
70
00
00
ENDCHAR
STARTCHAR U+0070
ENCODING 112
SWIDTH 480 0
DWIDTH 6 0
BBX 6 13 0 -2
BITMAP
00
00
00
00
00
F0
88
88
88
F0
80
80
80
ENDCHAR
STARTCHAR U+0071
ENCODING 113
SWIDTH 480 0
DWIDTH 6 0
BBX 6 13 0 -2
BITMAP
00
00
00
00
00
78
88
88
88
78
08
08
08
ENDCHAR
STARTCHAR U+0072
ENCODING 114
SWIDTH 480 0
DWIDTH 6 0
BBX 6 13 0 -2
BITMAP
00
00
00
00
00
B0
C8
80
80
80
80
00
00
ENDCHAR
STARTCHAR U+0073
ENCODING 115
SWIDTH 480 0
DWIDTH 6 0
BBX 6 13 0 -2
BITMAP
00
00
00
00
00
70
88
60
10
88
70
00
00
ENDCHAR
STARTCHAR U+0074
ENCODING 116
SWIDTH 480 0
DWIDTH 6 0
BBX 6 13 0 -2
BITMAP
00
00
00
40
40
F0
40
40
40
48
30
00
00
ENDCHAR
STARTCHAR U+0075
ENCODING 117
SWIDTH 480 0
DWIDTH 6 0
BBX 6 13 0 -2
BITMAP
00
00
00
00
00
88
88
88
88
98
68
00
00
ENDCHAR
STARTCHAR U+0076
ENCODING 118
SWIDTH 480 0
DWIDTH 6 0
BBX 6 13 0 -2
BITMAP
00
00
00
00
00
88
88
88
50
50
20
00
00
ENDCHAR
STARTCHAR U+0077
ENCODING 119
SWIDTH 480 0
DWIDTH 6 0
BBX 6 13 0 -2
BITMAP
00
00
00
00
00
88
88
A8
A8
A8
50
00
00
ENDCHAR
STARTCHAR U+0078
ENCODING 120
SWIDTH 480 0
DWIDTH 6 0
BBX 6 13 0 -2
BITMAP
00
00
00
00
00
88
50
20
20
50
88
00
00
ENDCHAR
STARTCHAR U+0079
ENCODING 121
SWIDTH 480 0
DWIDTH 6 0
BBX 6 13 0 -2
BITMAP
00
00
00
00
00
88
88
88
98
68
08
88
70
ENDCHAR
STARTCHAR U+007A
ENCODING 122
SWIDTH 480 0
DWIDTH 6 0
BBX 6 13 0 -2
BITMAP
00
00
00
00
00
F8
10
20
40
80
F8
00
00
ENDCHAR
STARTCHAR U+007B
ENCODING 123
SWIDTH 480 0
DWIDTH 6 0
BBX 6 13 0 -2
BITMAP
00
00
18
20
20
20
C0
20
20
20
18
00
00
ENDCHAR
STARTCHAR U+007C
ENCODING 124
SWIDTH 480 0
DWIDTH 6 0
BBX 6 13 0 -2
BITMAP
00
00
20
20
20
20
20
20
20
20
20
00
00
ENDCHAR
STARTCHAR U+007D
ENCODING 125
SWIDTH 480 0
DWIDTH 6 0
BBX 6 13 0 -2
BITMAP
00
00
C0
20
20
20
18
20
20
20
C0
00
00
ENDCHAR
STARTCHAR U+007E
ENCODING 126
SWIDTH 480 0
DWIDTH 6 0
BBX 6 13 0 -2
BITMAP
00
00
48
A8
90
00
00
00
00
00
00
00
00
ENDCHAR
STARTCHAR U+007F
ENCODING 127
SWIDTH 480 0
DWIDTH 6 0
BBX 6 13 0 -2
BITMAP
00
00
00
00
00
00
00
00
00
00
00
00
00
ENDCHAR
STARTCHAR U+00A0
ENCODING 160
SWIDTH 480 0
DWIDTH 6 0
BBX 6 13 0 -2
BITMAP
00
00
00
00
00
00
00
00
00
00
00
00
00
ENDCHAR
STARTCHAR U+00A1
ENCODING 161
SWIDTH 480 0
DWIDTH 6 0
BBX 6 13 0 -2
BITMAP
00
00
20
00
20
20
20
20
20
20
20
00
00
ENDCHAR
STARTCHAR U+00A2
ENCODING 162
SWIDTH 480 0
DWIDTH 6 0
BBX 6 13 0 -2
BITMAP
00
00
20
70
A8
A0
A0
A8
70
20
00
00
00
ENDCHAR
STARTCHAR U+00A3
ENCODING 163
SWIDTH 480 0
DWIDTH 6 0
BBX 6 13 0 -2
BITMAP
00
00
30
48
40
40
E0
40
40
48
B0
00
00
ENDCHAR
STARTCHAR U+00A4
ENCODING 164
SWIDTH 480 0
DWIDTH 6 0
BBX 6 13 0 -2
BITMAP
00
00
00
00
88
70
50
50
70
88
00
00
00
ENDCHAR
STARTCHAR U+00A5
ENCODING 165
SWIDTH 480 0
DWIDTH 6 0
BBX 6 13 0 -2
BITMAP
00
00
88
88
50
50
F8
20
F8
20
20
00
00
ENDCHAR
STARTCHAR U+00A6
ENCODING 166
SWIDTH 480 0
DWIDTH 6 0
BBX 6 13 0 -2
BITMAP
00
00
20
20
20
20
00
20
20
20
20
00
00
ENDCHAR
STARTCHAR U+00A7
ENCODING 167
SWIDTH 480 0
DWIDTH 6 0
BBX 6 13 0 -2
BITMAP
00
30
48
40
30
48
48
30
08
48
30
00
00
ENDCHAR
STARTCHAR U+00A8
ENCODING 168
SWIDTH 480 0
DWIDTH 6 0
BBX 6 13 0 -2
BITMAP
00
00
D8
00
00
00
00
00
00
00
00
00
00
ENDCHAR
STARTCHAR U+00A9
ENCODING 169
SWIDTH 480 0
DWIDTH 6 0
BBX 6 13 0 -2
BITMAP
00
70
88
A8
D8
C8
D8
A8
88
70
00
00
00
ENDCHAR
STARTCHAR U+00AA
ENCODING 170
SWIDTH 480 0
DWIDTH 6 0
BBX 6 13 0 -2
BITMAP
00
00
70
08
78
88
78
00
F8
00
00
00
00
ENDCHAR
STARTCHAR U+00AB
ENCODING 171
SWIDTH 480 0
DWIDTH 6 0
BBX 6 13 0 -2
BITMAP
00
00
00
00
28
50
A0
A0
50
28
00
00
00
ENDCHAR
STARTCHAR U+00AC
ENCODING 172
SWIDTH 480 0
DWIDTH 6 0
BBX 6 13 0 -2
BITMAP
00
00
00
00
00
00
F8
08
08
00
00
00
00
ENDCHAR
STARTCHAR U+00AD
ENCODING 173
SWIDTH 480 0
DWIDTH 6 0
BBX 6 13 0 -2
BITMAP
00
00
00
00
00
00
F8
00
00
00
00
00
00
ENDCHAR
STARTCHAR U+00AE
ENCODING 174
SWIDTH 480 0
DWIDTH 6 0
BBX 6 13 0 -2
BITMAP
00
70
88
E8
D8
D8
E8
D8
88
70
00
00
00
ENDCHAR
STARTCHAR U+00AF
ENCODING 175
SWIDTH 480 0
DWIDTH 6 0
BBX 6 13 0 -2
BITMAP
00
00
F8
00
00
00
00
00
00
00
00
00
00
ENDCHAR
STARTCHAR U+00B0
ENCODING 176
SWIDTH 480 0
DWIDTH 6 0
BBX 6 13 0 -2
BITMAP
00
00
30
48
48
30
00
00
00
00
00
00
00
ENDCHAR
STARTCHAR U+00B1
ENCODING 177
SWIDTH 480 0
DWIDTH 6 0
BBX 6 13 0 -2
BITMAP
00
00
00
20
20
F8
20
20
00
F8
00
00
00
ENDCHAR
STARTCHAR U+00B2
ENCODING 178
SWIDTH 480 0
DWIDTH 6 0
BBX 6 13 0 -2
BITMAP
00
40
A0
20
40
E0
00
00
00
00
00
00
00
ENDCHAR
STARTCHAR U+00B3
ENCODING 179
SWIDTH 480 0
DWIDTH 6 0
BBX 6 13 0 -2
BITMAP
00
40
A0
40
20
C0
00
00
00
00
00
00
00
ENDCHAR
STARTCHAR U+00B4
ENCODING 180
SWIDTH 480 0
DWIDTH 6 0
BBX 6 13 0 -2
BITMAP
00
10
20
00
00
00
00
00
00
00
00
00
00
ENDCHAR
STARTCHAR U+00B5
ENCODING 181
SWIDTH 480 0
DWIDTH 6 0
BBX 6 13 0 -2
BITMAP
00
00
00
00
00
88
88
88
88
98
E8
80
00
ENDCHAR
STARTCHAR U+00B6
ENCODING 182
SWIDTH 480 0
DWIDTH 6 0
BBX 6 13 0 -2
BITMAP
00
00
78
E8
E8
E8
E8
68
28
28
28
00
00
ENDCHAR
STARTCHAR U+00B7
ENCODING 183
SWIDTH 480 0
DWIDTH 6 0
BBX 6 13 0 -2
BITMAP
00
00
00
00
00
00
30
00
00
00
00
00
00
ENDCHAR
STARTCHAR U+00B8
ENCODING 184
SWIDTH 480 0
DWIDTH 6 0
BBX 6 13 0 -2
BITMAP
00
00
00
00
00
00
00
00
00
00
00
10
20
ENDCHAR
STARTCHAR U+00B9
ENCODING 185
SWIDTH 480 0
DWIDTH 6 0
BBX 6 13 0 -2
BITMAP
00
40
C0
40
40
E0
00
00
00
00
00
00
00
ENDCHAR
STARTCHAR U+00BA
ENCODING 186
SWIDTH 480 0
DWIDTH 6 0
BBX 6 13 0 -2
BITMAP
00
00
30
48
48
30
00
78
00
00
00
00
00
ENDCHAR
STARTCHAR U+00BB
ENCODING 187
SWIDTH 480 0
DWIDTH 6 0
BBX 6 13 0 -2
BITMAP
00
00
00
00
A0
50
28
28
50
A0
00
00
00
ENDCHAR
STARTCHAR U+00BC
ENCODING 188
SWIDTH 480 0
DWIDTH 6 0
BBX 6 13 0 -2
BITMAP
00
40
C0
40
40
E0
08
18
28
38
08
00
00
ENDCHAR
STARTCHAR U+00BD
ENCODING 189
SWIDTH 480 0
DWIDTH 6 0
BBX 6 13 0 -2
BITMAP
00
40
C0
40
40
E0
10
28
08
10
38
00
00
ENDCHAR
STARTCHAR U+00BE
ENCODING 190
SWIDTH 480 0
DWIDTH 6 0
BBX 6 13 0 -2
BITMAP
00
40
A0
40
20
A0
48
18
28
38
08
00
00
ENDCHAR
STARTCHAR U+00BF
ENCODING 191
SWIDTH 480 0
DWIDTH 6 0
BBX 6 13 0 -2
BITMAP
00
00
20
00
20
20
40
80
88
88
70
00
00
ENDCHAR
STARTCHAR U+00C0
ENCODING 192
SWIDTH 480 0
DWIDTH 6 0
BBX 6 13 0 -2
BITMAP
00
20
10
00
20
50
88
88
F8
88
88
00
00
ENDCHAR
STARTCHAR U+00C1
ENCODING 193
SWIDTH 480 0
DWIDTH 6 0
BBX 6 13 0 -2
BITMAP
00
10
20
00
20
50
88
88
F8
88
88
00
00
ENDCHAR
STARTCHAR U+00C2
ENCODING 194
SWIDTH 480 0
DWIDTH 6 0
BBX 6 13 0 -2
BITMAP
00
30
48
00
20
50
88
88
F8
88
88
00
00
ENDCHAR
STARTCHAR U+00C3
ENCODING 195
SWIDTH 480 0
DWIDTH 6 0
BBX 6 13 0 -2
BITMAP
00
28
50
00
20
50
88
88
F8
88
88
00
00
ENDCHAR
STARTCHAR U+00C4
ENCODING 196
SWIDTH 480 0
DWIDTH 6 0
BBX 6 13 0 -2
BITMAP
00
50
50
00
20
50
88
88
F8
88
88
00
00
ENDCHAR
STARTCHAR U+00C5
ENCODING 197
SWIDTH 480 0
DWIDTH 6 0
BBX 6 13 0 -2
BITMAP
00
20
50
20
20
50
88
88
F8
88
88
00
00
ENDCHAR
STARTCHAR U+00C6
ENCODING 198
SWIDTH 480 0
DWIDTH 6 0
BBX 6 13 0 -2
BITMAP
00
00
58
A0
A0
A0
B0
E0
A0
A0
B8
00
00
ENDCHAR
STARTCHAR U+00C7
ENCODING 199
SWIDTH 480 0
DWIDTH 6 0
BBX 6 13 0 -2
BITMAP
00
00
70
88
80
80
80
80
80
88
70
20
40
ENDCHAR
STARTCHAR U+00C8
ENCODING 200
SWIDTH 480 0
DWIDTH 6 0
BBX 6 13 0 -2
BITMAP
00
20
10
00
F8
80
80
F0
80
80
F8
00
00
ENDCHAR
STARTCHAR U+00C9
ENCODING 201
SWIDTH 480 0
DWIDTH 6 0
BBX 6 13 0 -2
BITMAP
00
10
20
00
F8
80
80
F0
80
80
F8
00
00
ENDCHAR
STARTCHAR U+00CA
ENCODING 202
SWIDTH 480 0
DWIDTH 6 0
BBX 6 13 0 -2
BITMAP
00
60
90
00
F8
80
80
F0
80
80
F8
00
00
ENDCHAR
STARTCHAR U+00CB
ENCODING 203
SWIDTH 480 0
DWIDTH 6 0
BBX 6 13 0 -2
BITMAP
00
50
50
00
F8
80
80
F0
80
80
F8
00
00
ENDCHAR
STARTCHAR U+00CC
ENCODING 204
SWIDTH 480 0
DWIDTH 6 0
BBX 6 13 0 -2
BITMAP
00
20
10
00
F8
20
20
20
20
20
F8
00
00
ENDCHAR
STARTCHAR U+00CD
ENCODING 205
SWIDTH 480 0
DWIDTH 6 0
BBX 6 13 0 -2
BITMAP
00
10
20
00
F8
20
20
20
20
20
F8
00
00
ENDCHAR
STARTCHAR U+00CE
ENCODING 206
SWIDTH 480 0
DWIDTH 6 0
BBX 6 13 0 -2
BITMAP
00
30
48
00
F8
20
20
20
20
20
F8
00
00
ENDCHAR
STARTCHAR U+00CF
ENCODING 207
SWIDTH 480 0
DWIDTH 6 0
BBX 6 13 0 -2
BITMAP
00
50
50
00
F8
20
20
20
20
20
F8
00
00
ENDCHAR
STARTCHAR U+00D0
ENCODING 208
SWIDTH 480 0
DWIDTH 6 0
BBX 6 13 0 -2
BITMAP
00
00
F0
48
48
48
E8
48
48
48
F0
00
00
ENDCHAR
STARTCHAR U+00D1
ENCODING 209
SWIDTH 480 0
DWIDTH 6 0
BBX 6 13 0 -2
BITMAP
00
28
50
00
88
88
C8
A8
98
88
88
00
00
ENDCHAR
STARTCHAR U+00D2
ENCODING 210
SWIDTH 480 0
DWIDTH 6 0
BBX 6 13 0 -2
BITMAP
00
20
10
00
70
88
88
88
88
88
70
00
00
ENDCHAR
STARTCHAR U+00D3
ENCODING 211
SWIDTH 480 0
DWIDTH 6 0
BBX 6 13 0 -2
BITMAP
00
10
20
00
70
88
88
88
88
88
70
00
00
ENDCHAR
STARTCHAR U+00D4
ENCODING 212
SWIDTH 480 0
DWIDTH 6 0
BBX 6 13 0 -2
BITMAP
00
30
48
00
70
88
88
88
88
88
70
00
00
ENDCHAR
STARTCHAR U+00D5
ENCODING 213
SWIDTH 480 0
DWIDTH 6 0
BBX 6 13 0 -2
BITMAP
00
28
50
00
70
88
88
88
88
88
70
00
00
ENDCHAR
STARTCHAR U+00D6
ENCODING 214
SWIDTH 480 0
DWIDTH 6 0
BBX 6 13 0 -2
BITMAP
00
50
50
00
70
88
88
88
88
88
70
00
00
ENDCHAR
STARTCHAR U+00D7
ENCODING 215
SWIDTH 480 0
DWIDTH 6 0
BBX 6 13 0 -2
BITMAP
00
00
00
00
00
88
50
20
50
88
00
00
00
ENDCHAR
STARTCHAR U+00D8
ENCODING 216
SWIDTH 480 0
DWIDTH 6 0
BBX 6 13 0 -2
BITMAP
00
08
70
98
98
A8
A8
A8
C8
C8
70
80
00
ENDCHAR
STARTCHAR U+00D9
ENCODING 217
SWIDTH 480 0
DWIDTH 6 0
BBX 6 13 0 -2
BITMAP
00
20
10
00
88
88
88
88
88
88
70
00
00
ENDCHAR
STARTCHAR U+00DA
ENCODING 218
SWIDTH 480 0
DWIDTH 6 0
BBX 6 13 0 -2
BITMAP
00
10
20
00
88
88
88
88
88
88
70
00
00
ENDCHAR
STARTCHAR U+00DB
ENCODING 219
SWIDTH 480 0
DWIDTH 6 0
BBX 6 13 0 -2
BITMAP
00
30
48
00
88
88
88
88
88
88
70
00
00
ENDCHAR
STARTCHAR U+00DC
ENCODING 220
SWIDTH 480 0
DWIDTH 6 0
BBX 6 13 0 -2
BITMAP
00
50
50
00
88
88
88
88
88
88
70
00
00
ENDCHAR
STARTCHAR U+00DD
ENCODING 221
SWIDTH 480 0
DWIDTH 6 0
BBX 6 13 0 -2
BITMAP
00
10
20
00
88
88
50
20
20
20
20
00
00
ENDCHAR
STARTCHAR U+00DE
ENCODING 222
SWIDTH 480 0
DWIDTH 6 0
BBX 6 13 0 -2
BITMAP
00
00
80
F0
88
88
88
F0
80
80
80
00
00
ENDCHAR
STARTCHAR U+00DF
ENCODING 223
SWIDTH 480 0
DWIDTH 6 0
BBX 6 13 0 -2
BITMAP
00
00
00
70
88
88
F0
88
88
C8
B0
80
00
ENDCHAR
STARTCHAR U+00E0
ENCODING 224
SWIDTH 480 0
DWIDTH 6 0
BBX 6 13 0 -2
BITMAP
00
20
10
00
00
70
08
78
88
98
68
00
00
ENDCHAR
STARTCHAR U+00E1
ENCODING 225
SWIDTH 480 0
DWIDTH 6 0
BBX 6 13 0 -2
BITMAP
00
10
20
00
00
70
08
78
88
98
68
00
00
ENDCHAR
STARTCHAR U+00E2
ENCODING 226
SWIDTH 480 0
DWIDTH 6 0
BBX 6 13 0 -2
BITMAP
00
30
48
00
00
70
08
78
88
98
68
00
00
ENDCHAR
STARTCHAR U+00E3
ENCODING 227
SWIDTH 480 0
DWIDTH 6 0
BBX 6 13 0 -2
BITMAP
00
28
50
00
00
70
08
78
88
98
68
00
00
ENDCHAR
STARTCHAR U+00E4
ENCODING 228
SWIDTH 480 0
DWIDTH 6 0
BBX 6 13 0 -2
BITMAP
00
50
50
00
00
70
08
78
88
98
68
00
00
ENDCHAR
STARTCHAR U+00E5
ENCODING 229
SWIDTH 480 0
DWIDTH 6 0
BBX 6 13 0 -2
BITMAP
00
30
48
30
00
70
08
78
88
98
68
00
00
ENDCHAR
STARTCHAR U+00E6
ENCODING 230
SWIDTH 480 0
DWIDTH 6 0
BBX 6 13 0 -2
BITMAP
00
00
00
00
00
70
28
70
A0
A8
50
00
00
ENDCHAR
STARTCHAR U+00E7
ENCODING 231
SWIDTH 480 0
DWIDTH 6 0
BBX 6 13 0 -2
BITMAP
00
00
00
00
00
70
88
80
80
88
70
20
40
ENDCHAR
STARTCHAR U+00E8
ENCODING 232
SWIDTH 480 0
DWIDTH 6 0
BBX 6 13 0 -2
BITMAP
00
20
10
00
00
70
88
F8
80
88
70
00
00
ENDCHAR
STARTCHAR U+00E9
ENCODING 233
SWIDTH 480 0
DWIDTH 6 0
BBX 6 13 0 -2
BITMAP
00
10
20
00
00
70
88
F8
80
88
70
00
00
ENDCHAR
STARTCHAR U+00EA
ENCODING 234
SWIDTH 480 0
DWIDTH 6 0
BBX 6 13 0 -2
BITMAP
00
30
48
00
00
70
88
F8
80
88
70
00
00
ENDCHAR
STARTCHAR U+00EB
ENCODING 235
SWIDTH 480 0
DWIDTH 6 0
BBX 6 13 0 -2
BITMAP
00
50
50
00
00
70
88
F8
80
88
70
00
00
ENDCHAR
STARTCHAR U+00EC
ENCODING 236
SWIDTH 480 0
DWIDTH 6 0
BBX 6 13 0 -2
BITMAP
00
20
10
00
00
60
20
20
20
20
F8
00
00
ENDCHAR
STARTCHAR U+00ED
ENCODING 237
SWIDTH 480 0
DWIDTH 6 0
BBX 6 13 0 -2
BITMAP
00
10
20
00
00
60
20
20
20
20
F8
00
00
ENDCHAR
STARTCHAR U+00EE
ENCODING 238
SWIDTH 480 0
DWIDTH 6 0
BBX 6 13 0 -2
BITMAP
00
30
48
00
00
60
20
20
20
20
F8
00
00
ENDCHAR
STARTCHAR U+00EF
ENCODING 239
SWIDTH 480 0
DWIDTH 6 0
BBX 6 13 0 -2
BITMAP
00
50
50
00
00
60
20
20
20
20
F8
00
00
ENDCHAR
STARTCHAR U+00F0
ENCODING 240
SWIDTH 480 0
DWIDTH 6 0
BBX 6 13 0 -2
BITMAP
00
50
20
60
10
70
88
88
88
88
70
00
00
ENDCHAR
STARTCHAR U+00F1
ENCODING 241
SWIDTH 480 0
DWIDTH 6 0
BBX 6 13 0 -2
BITMAP
00
28
50
00
00
B0
C8
88
88
88
88
00
00
ENDCHAR
STARTCHAR U+00F2
ENCODING 242
SWIDTH 480 0
DWIDTH 6 0
BBX 6 13 0 -2
BITMAP
00
20
10
00
00
70
88
88
88
88
70
00
00
ENDCHAR
STARTCHAR U+00F3
ENCODING 243
SWIDTH 480 0
DWIDTH 6 0
BBX 6 13 0 -2
BITMAP
00
10
20
00
00
70
88
88
88
88
70
00
00
ENDCHAR
STARTCHAR U+00F4
ENCODING 244
SWIDTH 480 0
DWIDTH 6 0
BBX 6 13 0 -2
BITMAP
00
30
48
00
00
70
88
88
88
88
70
00
00
ENDCHAR
STARTCHAR U+00F5
ENCODING 245
SWIDTH 480 0
DWIDTH 6 0
BBX 6 13 0 -2
BITMAP
00
28
50
00
00
70
88
88
88
88
70
00
00
ENDCHAR
STARTCHAR U+00F6
ENCODING 246
SWIDTH 480 0
DWIDTH 6 0
BBX 6 13 0 -2
BITMAP
00
50
50
00
00
70
88
88
88
88
70
00
00
ENDCHAR
STARTCHAR U+00F7
ENCODING 247
SWIDTH 480 0
DWIDTH 6 0
BBX 6 13 0 -2
BITMAP
00
00
00
20
20
00
F8
00
20
20
00
00
00
ENDCHAR
STARTCHAR U+00F8
ENCODING 248
SWIDTH 480 0
DWIDTH 6 0
BBX 6 13 0 -2
BITMAP
00
00
00
00
08
70
98
A8
A8
C8
70
80
00
ENDCHAR
STARTCHAR U+00F9
ENCODING 249
SWIDTH 480 0
DWIDTH 6 0
BBX 6 13 0 -2
BITMAP
00
20
10
00
00
88
88
88
88
88
78
00
00
ENDCHAR
STARTCHAR U+00FA
ENCODING 250
SWIDTH 480 0
DWIDTH 6 0
BBX 6 13 0 -2
BITMAP
00
10
20
00
00
88
88
88
88
88
78
00
00
ENDCHAR
STARTCHAR U+00FB
ENCODING 251
SWIDTH 480 0
DWIDTH 6 0
BBX 6 13 0 -2
BITMAP
00
30
48
00
00
88
88
88
88
88
78
00
00
ENDCHAR
STARTCHAR U+00FC
ENCODING 252
SWIDTH 480 0
DWIDTH 6 0
BBX 6 13 0 -2
BITMAP
00
50
50
00
00
88
88
88
88
88
78
00
00
ENDCHAR
STARTCHAR U+00FD
ENCODING 253
SWIDTH 480 0
DWIDTH 6 0
BBX 6 13 0 -2
BITMAP
00
10
20
00
00
88
88
88
98
68
08
88
70
ENDCHAR
STARTCHAR U+00FE
ENCODING 254
SWIDTH 480 0
DWIDTH 6 0
BBX 6 13 0 -2
BITMAP
00
00
00
80
80
B0
C8
88
88
C8
B0
80
80
ENDCHAR
STARTCHAR U+00FF
ENCODING 255
SWIDTH 480 0
DWIDTH 6 0
BBX 6 13 0 -2
BITMAP
00
50
50
00
00
88
88
88
98
68
08
88
70
ENDCHAR
STARTCHAR U+0100
ENCODING 256
SWIDTH 480 0
DWIDTH 6 0
BBX 6 13 0 -2
BITMAP
00
00
F8
00
20
50
88
88
F8
88
88
00
00
ENDCHAR
STARTCHAR U+0101
ENCODING 257
SWIDTH 480 0
DWIDTH 6 0
BBX 6 13 0 -2
BITMAP
00
00
F8
00
00
70
08
78
88
98
68
00
00
ENDCHAR
STARTCHAR U+0102
ENCODING 258
SWIDTH 480 0
DWIDTH 6 0
BBX 6 13 0 -2
BITMAP
00
88
70
00
20
50
88
88
F8
88
88
00
00
ENDCHAR
STARTCHAR U+0103
ENCODING 259
SWIDTH 480 0
DWIDTH 6 0
BBX 6 13 0 -2
BITMAP
00
88
70
00
00
70
08
78
88
98
68
00
00
ENDCHAR
STARTCHAR U+0104
ENCODING 260
SWIDTH 480 0
DWIDTH 6 0
BBX 6 13 0 -2
BITMAP
00
00
20
50
88
88
88
F8
88
88
88
08
04
ENDCHAR
STARTCHAR U+0105
ENCODING 261
SWIDTH 480 0
DWIDTH 6 0
BBX 6 13 0 -2
BITMAP
00
00
00
00
00
70
08
78
88
98
68
08
04
ENDCHAR
STARTCHAR U+0106
ENCODING 262
SWIDTH 480 0
DWIDTH 6 0
BBX 6 13 0 -2
BITMAP
00
10
20
00
70
88
80
80
80
88
70
00
00
ENDCHAR
STARTCHAR U+0107
ENCODING 263
SWIDTH 480 0
DWIDTH 6 0
BBX 6 13 0 -2
BITMAP
00
10
20
00
00
70
88
80
80
88
70
00
00
ENDCHAR
STARTCHAR U+0108
ENCODING 264
SWIDTH 480 0
DWIDTH 6 0
BBX 6 13 0 -2
BITMAP
00
30
48
00
70
88
80
80
80
88
70
00
00
ENDCHAR
STARTCHAR U+0109
ENCODING 265
SWIDTH 480 0
DWIDTH 6 0
BBX 6 13 0 -2
BITMAP
00
30
48
00
00
70
88
80
80
88
70
00
00
ENDCHAR
STARTCHAR U+010A
ENCODING 266
SWIDTH 480 0
DWIDTH 6 0
BBX 6 13 0 -2
BITMAP
00
20
20
00
70
88
80
80
80
88
70
00
00
ENDCHAR
STARTCHAR U+010B
ENCODING 267
SWIDTH 480 0
DWIDTH 6 0
BBX 6 13 0 -2
BITMAP
00
20
20
00
00
70
88
80
80
88
70
00
00
ENDCHAR
STARTCHAR U+010C
ENCODING 268
SWIDTH 480 0
DWIDTH 6 0
BBX 6 13 0 -2
BITMAP
00
48
30
00
70
88
80
80
80
88
70
00
00
ENDCHAR
STARTCHAR U+010D
ENCODING 269
SWIDTH 480 0
DWIDTH 6 0
BBX 6 13 0 -2
BITMAP
00
48
30
00
00
70
88
80
80
88
70
00
00
ENDCHAR
STARTCHAR U+010E
ENCODING 270
SWIDTH 480 0
DWIDTH 6 0
BBX 6 13 0 -2
BITMAP
00
48
30
00
F0
48
48
48
48
48
F0
00
00
ENDCHAR
STARTCHAR U+010F
ENCODING 271
SWIDTH 480 0
DWIDTH 6 0
BBX 6 13 0 -2
BITMAP
48
30
00
08
08
78
88
88
88
88
78
00
00
ENDCHAR
STARTCHAR U+0110
ENCODING 272
SWIDTH 480 0
DWIDTH 6 0
BBX 6 13 0 -2
BITMAP
00
00
F0
48
48
48
E8
48
48
48
F0
00
00
ENDCHAR
STARTCHAR U+0111
ENCODING 273
SWIDTH 480 0
DWIDTH 6 0
BBX 6 13 0 -2
BITMAP
00
00
08
1C
08
78
88
88
88
88
78
00
00
ENDCHAR
STARTCHAR U+0112
ENCODING 274
SWIDTH 480 0
DWIDTH 6 0
BBX 6 13 0 -2
BITMAP
00
00
F8
00
F8
80
80
F0
80
80
F8
00
00
ENDCHAR
STARTCHAR U+0113
ENCODING 275
SWIDTH 480 0
DWIDTH 6 0
BBX 6 13 0 -2
BITMAP
00
00
F8
00
00
70
88
F8
80
88
70
00
00
ENDCHAR
STARTCHAR U+0114
ENCODING 276
SWIDTH 480 0
DWIDTH 6 0
BBX 6 13 0 -2
BITMAP
00
88
70
00
F8
80
80
F0
80
80
F8
00
00
ENDCHAR
STARTCHAR U+0115
ENCODING 277
SWIDTH 480 0
DWIDTH 6 0
BBX 6 13 0 -2
BITMAP
00
88
70
00
00
70
88
F8
80
88
70
00
00
ENDCHAR
STARTCHAR U+0116
ENCODING 278
SWIDTH 480 0
DWIDTH 6 0
BBX 6 13 0 -2
BITMAP
00
20
20
00
F8
80
80
F0
80
80
F8
00
00
ENDCHAR
STARTCHAR U+0117
ENCODING 279
SWIDTH 480 0
DWIDTH 6 0
BBX 6 13 0 -2
BITMAP
00
20
20
00
00
70
88
F8
80
88
70
00
00
ENDCHAR
STARTCHAR U+0118
ENCODING 280
SWIDTH 480 0
DWIDTH 6 0
BBX 6 13 0 -2
BITMAP
00
00
F8
80
80
80
F0
80
80
80
F8
20
10
ENDCHAR
STARTCHAR U+0119
ENCODING 281
SWIDTH 480 0
DWIDTH 6 0
BBX 6 13 0 -2
BITMAP
00
00
00
00
00
70
88
F8
80
88
70
20
10
ENDCHAR
STARTCHAR U+011A
ENCODING 282
SWIDTH 480 0
DWIDTH 6 0
BBX 6 13 0 -2
BITMAP
00
48
30
00
F8
80
80
F0
80
80
F8
00
00
ENDCHAR
STARTCHAR U+011B
ENCODING 283
SWIDTH 480 0
DWIDTH 6 0
BBX 6 13 0 -2
BITMAP
00
48
30
00
00
70
88
F8
80
88
70
00
00
ENDCHAR
STARTCHAR U+011C
ENCODING 284
SWIDTH 480 0
DWIDTH 6 0
BBX 6 13 0 -2
BITMAP
00
30
48
00
70
88
80
80
98
88
70
00
00
ENDCHAR
STARTCHAR U+011D
ENCODING 285
SWIDTH 480 0
DWIDTH 6 0
BBX 6 13 0 -2
BITMAP
00
30
48
00
00
70
88
88
88
78
08
88
70
ENDCHAR
STARTCHAR U+011E
ENCODING 286
SWIDTH 480 0
DWIDTH 6 0
BBX 6 13 0 -2
BITMAP
00
88
70
00
70
88
80
80
98
88
70
00
00
ENDCHAR
STARTCHAR U+011F
ENCODING 287
SWIDTH 480 0
DWIDTH 6 0
BBX 6 13 0 -2
BITMAP
00
88
70
00
00
70
88
88
88
78
08
88
70
ENDCHAR
STARTCHAR U+0120
ENCODING 288
SWIDTH 480 0
DWIDTH 6 0
BBX 6 13 0 -2
BITMAP
00
20
20
00
70
88
80
80
98
88
70
00
00
ENDCHAR
STARTCHAR U+0121
ENCODING 289
SWIDTH 480 0
DWIDTH 6 0
BBX 6 13 0 -2
BITMAP
00
20
20
00
00
70
88
88
88
78
08
88
70
ENDCHAR
STARTCHAR U+0122
ENCODING 290
SWIDTH 480 0
DWIDTH 6 0
BBX 6 13 0 -2
BITMAP
00
00
70
88
80
80
80
98
88
88
70
20
40
ENDCHAR
STARTCHAR U+0123
ENCODING 291
SWIDTH 480 0
DWIDTH 6 0
BBX 6 13 0 -2
BITMAP
20
40
60
00
00
70
88
88
88
78
08
88
70
ENDCHAR
STARTCHAR U+0124
ENCODING 292
SWIDTH 480 0
DWIDTH 6 0
BBX 6 13 0 -2
BITMAP
00
30
48
00
88
88
88
F8
88
88
88
00
00
ENDCHAR
STARTCHAR U+0125
ENCODING 293
SWIDTH 480 0
DWIDTH 6 0
BBX 6 13 0 -2
BITMAP
00
30
48
00
80
80
B0
C8
88
88
88
00
00
ENDCHAR
STARTCHAR U+0126
ENCODING 294
SWIDTH 480 0
DWIDTH 6 0
BBX 6 13 0 -2
BITMAP
00
00
88
88
F8
88
F8
88
88
88
88
00
00
ENDCHAR
STARTCHAR U+0127
ENCODING 295
SWIDTH 480 0
DWIDTH 6 0
BBX 6 13 0 -2
BITMAP
00
00
80
F0
80
B0
C8
88
88
88
88
00
00
ENDCHAR
STARTCHAR U+0128
ENCODING 296
SWIDTH 480 0
DWIDTH 6 0
BBX 6 13 0 -2
BITMAP
00
28
50
00
F8
20
20
20
20
20
F8
00
00
ENDCHAR
STARTCHAR U+0129
ENCODING 297
SWIDTH 480 0
DWIDTH 6 0
BBX 6 13 0 -2
BITMAP
00
50
A0
00
00
60
20
20
20
20
F8
00
00
ENDCHAR
STARTCHAR U+012A
ENCODING 298
SWIDTH 480 0
DWIDTH 6 0
BBX 6 13 0 -2
BITMAP
00
00
F8
00
F8
20
20
20
20
20
F8
00
00
ENDCHAR
STARTCHAR U+012B
ENCODING 299
SWIDTH 480 0
DWIDTH 6 0
BBX 6 13 0 -2
BITMAP
00
00
F8
00
00
60
20
20
20
20
F8
00
00
ENDCHAR
STARTCHAR U+012C
ENCODING 300
SWIDTH 480 0
DWIDTH 6 0
BBX 6 13 0 -2
BITMAP
00
88
70
00
F8
20
20
20
20
20
F8
00
00
ENDCHAR
STARTCHAR U+012D
ENCODING 301
SWIDTH 480 0
DWIDTH 6 0
BBX 6 13 0 -2
BITMAP
00
88
70
00
00
60
20
20
20
20
F8
00
00
ENDCHAR
STARTCHAR U+012E
ENCODING 302
SWIDTH 480 0
DWIDTH 6 0
BBX 6 13 0 -2
BITMAP
00
00
70
20
20
20
20
20
20
20
70
20
10
ENDCHAR
STARTCHAR U+012F
ENCODING 303
SWIDTH 480 0
DWIDTH 6 0
BBX 6 13 0 -2
BITMAP
00
00
00
20
00
60
20
20
20
20
F8
20
10
ENDCHAR
STARTCHAR U+0130
ENCODING 304
SWIDTH 480 0
DWIDTH 6 0
BBX 6 13 0 -2
BITMAP
00
20
20
00
F8
20
20
20
20
20
F8
00
00
ENDCHAR
STARTCHAR U+0131
ENCODING 305
SWIDTH 480 0
DWIDTH 6 0
BBX 6 13 0 -2
BITMAP
00
00
00
00
00
60
20
20
20
20
F8
00
00
ENDCHAR
STARTCHAR U+0132
ENCODING 306
SWIDTH 480 0
DWIDTH 6 0
BBX 6 13 0 -2
BITMAP
00
00
DC
88
88
88
88
88
88
A8
D0
00
00
ENDCHAR
STARTCHAR U+0133
ENCODING 307
SWIDTH 480 0
DWIDTH 6 0
BBX 6 13 0 -2
BITMAP
00
00
00
48
00
D8
48
48
48
48
E8
48
30
ENDCHAR
STARTCHAR U+0134
ENCODING 308
SWIDTH 480 0
DWIDTH 6 0
BBX 6 13 0 -2
BITMAP
00
30
48
00
38
10
10
10
10
90
60
00
00
ENDCHAR
STARTCHAR U+0135
ENCODING 309
SWIDTH 480 0
DWIDTH 6 0
BBX 6 13 0 -2
BITMAP
00
30
48
00
00
30
10
10
10
10
90
90
60
ENDCHAR
STARTCHAR U+0136
ENCODING 310
SWIDTH 480 0
DWIDTH 6 0
BBX 6 13 0 -2
BITMAP
00
00
88
88
90
A0
C0
A0
90
88
88
40
80
ENDCHAR
STARTCHAR U+0137
ENCODING 311
SWIDTH 480 0
DWIDTH 6 0
BBX 6 13 0 -2
BITMAP
00
00
80
80
80
90
A0
C0
A0
90
88
40
80
ENDCHAR
STARTCHAR U+0138
ENCODING 312
SWIDTH 480 0
DWIDTH 6 0
BBX 6 13 0 -2
BITMAP
00
00
00
00
00
88
90
A0
E0
90
88
00
00
ENDCHAR
STARTCHAR U+0139
ENCODING 313
SWIDTH 480 0
DWIDTH 6 0
BBX 6 13 0 -2
BITMAP
00
40
80
00
80
80
80
80
80
80
F8
00
00
ENDCHAR
STARTCHAR U+013A
ENCODING 314
SWIDTH 480 0
DWIDTH 6 0
BBX 6 13 0 -2
BITMAP
10
20
00
60
20
20
20
20
20
20
70
00
00
ENDCHAR
STARTCHAR U+013B
ENCODING 315
SWIDTH 480 0
DWIDTH 6 0
BBX 6 13 0 -2
BITMAP
00
00
80
80
80
80
80
80
80
80
F8
20
40
ENDCHAR
STARTCHAR U+013C
ENCODING 316
SWIDTH 480 0
DWIDTH 6 0
BBX 6 13 0 -2
BITMAP
00
00
60
20
20
20
20
20
20
20
70
20
40
ENDCHAR
STARTCHAR U+013D
ENCODING 317
SWIDTH 480 0
DWIDTH 6 0
BBX 6 13 0 -2
BITMAP
00
90
60
00
40
40
40
40
40
40
78
00
00
ENDCHAR
STARTCHAR U+013E
ENCODING 318
SWIDTH 480 0
DWIDTH 6 0
BBX 6 13 0 -2
BITMAP
90
60
00
60
20
20
20
20
20
20
70
00
00
ENDCHAR
STARTCHAR U+013F
ENCODING 319
SWIDTH 480 0
DWIDTH 6 0
BBX 6 13 0 -2
BITMAP
00
00
80
80
80
90
90
80
80
80
F8
00
00
ENDCHAR
STARTCHAR U+0140
ENCODING 320
SWIDTH 480 0
DWIDTH 6 0
BBX 6 13 0 -2
BITMAP
00
00
60
20
20
28
28
20
20
20
70
00
00
ENDCHAR
STARTCHAR U+0141
ENCODING 321
SWIDTH 480 0
DWIDTH 6 0
BBX 6 13 0 -2
BITMAP
00
00
40
40
60
40
C0
40
40
40
78
00
00
ENDCHAR
STARTCHAR U+0142
ENCODING 322
SWIDTH 480 0
DWIDTH 6 0
BBX 6 13 0 -2
BITMAP
00
00
60
20
30
20
60
20
20
20
70
00
00
ENDCHAR
STARTCHAR U+0143
ENCODING 323
SWIDTH 480 0
DWIDTH 6 0
BBX 6 13 0 -2
BITMAP
00
10
20
00
88
C8
C8
A8
98
98
88
00
00
ENDCHAR
STARTCHAR U+0144
ENCODING 324
SWIDTH 480 0
DWIDTH 6 0
BBX 6 13 0 -2
BITMAP
00
10
20
00
00
B0
C8
88
88
88
88
00
00
ENDCHAR
STARTCHAR U+0145
ENCODING 325
SWIDTH 480 0
DWIDTH 6 0
BBX 6 13 0 -2
BITMAP
00
00
88
C8
C8
A8
A8
98
98
88
88
40
80
ENDCHAR
STARTCHAR U+0146
ENCODING 326
SWIDTH 480 0
DWIDTH 6 0
BBX 6 13 0 -2
BITMAP
00
00
00
00
00
B0
C8
88
88
88
88
40
80
ENDCHAR
STARTCHAR U+0147
ENCODING 327
SWIDTH 480 0
DWIDTH 6 0
BBX 6 13 0 -2
BITMAP
00
48
30
00
88
C8
C8
A8
98
98
88
00
00
ENDCHAR
STARTCHAR U+0148
ENCODING 328
SWIDTH 480 0
DWIDTH 6 0
BBX 6 13 0 -2
BITMAP
00
48
30
00
00
B0
C8
88
88
88
88
00
00
ENDCHAR
STARTCHAR U+0149
ENCODING 329
SWIDTH 480 0
DWIDTH 6 0
BBX 6 13 0 -2
BITMAP
00
C0
40
80
00
B0
C8
88
88
88
88
00
00
ENDCHAR
STARTCHAR U+014A
ENCODING 330
SWIDTH 480 0
DWIDTH 6 0
BBX 6 13 0 -2
BITMAP
00
00
88
C8
C8
A8
A8
98
98
88
88
28
10
ENDCHAR
STARTCHAR U+014B
ENCODING 331
SWIDTH 480 0
DWIDTH 6 0
BBX 6 13 0 -2
BITMAP
00
00
00
00
00
B0
C8
88
88
88
88
28
10
ENDCHAR
STARTCHAR U+014C
ENCODING 332
SWIDTH 480 0
DWIDTH 6 0
BBX 6 13 0 -2
BITMAP
00
00
F8
00
70
88
88
88
88
88
70
00
00
ENDCHAR
STARTCHAR U+014D
ENCODING 333
SWIDTH 480 0
DWIDTH 6 0
BBX 6 13 0 -2
BITMAP
00
00
F8
00
00
70
88
88
88
88
70
00
00
ENDCHAR
STARTCHAR U+014E
ENCODING 334
SWIDTH 480 0
DWIDTH 6 0
BBX 6 13 0 -2
BITMAP
00
88
70
00
70
88
88
88
88
88
70
00
00
ENDCHAR
STARTCHAR U+014F
ENCODING 335
SWIDTH 480 0
DWIDTH 6 0
BBX 6 13 0 -2
BITMAP
00
88
70
00
00
70
88
88
88
88
70
00
00
ENDCHAR
STARTCHAR U+0150
ENCODING 336
SWIDTH 480 0
DWIDTH 6 0
BBX 6 13 0 -2
BITMAP
00
24
48
00
70
88
88
88
88
88
70
00
00
ENDCHAR
STARTCHAR U+0151
ENCODING 337
SWIDTH 480 0
DWIDTH 6 0
BBX 6 13 0 -2
BITMAP
00
24
48
00
00
70
88
88
88
88
70
00
00
ENDCHAR
STARTCHAR U+0152
ENCODING 338
SWIDTH 480 0
DWIDTH 6 0
BBX 6 13 0 -2
BITMAP
00
00
78
A0
A0
A0
B0
A0
A0
A0
78
00
00
ENDCHAR
STARTCHAR U+0153
ENCODING 339
SWIDTH 480 0
DWIDTH 6 0
BBX 6 13 0 -2
BITMAP
00
00
00
00
00
50
A8
B8
A0
A8
50
00
00
ENDCHAR
STARTCHAR U+0154
ENCODING 340
SWIDTH 480 0
DWIDTH 6 0
BBX 6 13 0 -2
BITMAP
00
10
20
00
F0
88
88
F0
90
88
88
00
00
ENDCHAR
STARTCHAR U+0155
ENCODING 341
SWIDTH 480 0
DWIDTH 6 0
BBX 6 13 0 -2
BITMAP
00
10
20
00
00
B0
C8
80
80
80
80
00
00
ENDCHAR
STARTCHAR U+0156
ENCODING 342
SWIDTH 480 0
DWIDTH 6 0
BBX 6 13 0 -2
BITMAP
00
00
F0
88
88
88
F0
A0
90
88
88
40
80
ENDCHAR
STARTCHAR U+0157
ENCODING 343
SWIDTH 480 0
DWIDTH 6 0
BBX 6 13 0 -2
BITMAP
00
00
00
00
00
B0
C8
80
80
80
80
40
80
ENDCHAR
STARTCHAR U+0158
ENCODING 344
SWIDTH 480 0
DWIDTH 6 0
BBX 6 13 0 -2
BITMAP
00
90
60
00
F0
88
88
F0
90
88
88
00
00
ENDCHAR
STARTCHAR U+0159
ENCODING 345
SWIDTH 480 0
DWIDTH 6 0
BBX 6 13 0 -2
BITMAP
00
90
60
00
00
B0
C8
80
80
80
80
00
00
ENDCHAR
STARTCHAR U+015A
ENCODING 346
SWIDTH 480 0
DWIDTH 6 0
BBX 6 13 0 -2
BITMAP
00
10
20
00
70
88
80
70
08
88
70
00
00
ENDCHAR
STARTCHAR U+015B
ENCODING 347
SWIDTH 480 0
DWIDTH 6 0
BBX 6 13 0 -2
BITMAP
00
00
10
20
00
70
88
60
10
88
70
00
00
ENDCHAR
STARTCHAR U+015C
ENCODING 348
SWIDTH 480 0
DWIDTH 6 0
BBX 6 13 0 -2
BITMAP
00
30
48
00
70
88
80
70
08
88
70
00
00
ENDCHAR
STARTCHAR U+015D
ENCODING 349
SWIDTH 480 0
DWIDTH 6 0
BBX 6 13 0 -2
BITMAP
00
30
48
00
00
70
88
60
10
88
70
00
00
ENDCHAR
STARTCHAR U+015E
ENCODING 350
SWIDTH 480 0
DWIDTH 6 0
BBX 6 13 0 -2
BITMAP
00
00
70
88
80
80
70
08
08
88
70
20
40
ENDCHAR
STARTCHAR U+015F
ENCODING 351
SWIDTH 480 0
DWIDTH 6 0
BBX 6 13 0 -2
BITMAP
00
00
00
00
00
70
88
60
10
88
70
20
40
ENDCHAR
STARTCHAR U+0160
ENCODING 352
SWIDTH 480 0
DWIDTH 6 0
BBX 6 13 0 -2
BITMAP
00
48
30
00
70
88
80
70
08
88
70
00
00
ENDCHAR
STARTCHAR U+0161
ENCODING 353
SWIDTH 480 0
DWIDTH 6 0
BBX 6 13 0 -2
BITMAP
00
48
30
00
00
70
88
60
10
88
70
00
00
ENDCHAR
STARTCHAR U+0162
ENCODING 354
SWIDTH 480 0
DWIDTH 6 0
BBX 6 13 0 -2
BITMAP
00
00
F8
20
20
20
20
20
20
20
20
10
20
ENDCHAR
STARTCHAR U+0163
ENCODING 355
SWIDTH 480 0
DWIDTH 6 0
BBX 6 13 0 -2
BITMAP
00
00
00
40
40
F0
40
40
40
48
30
20
40
ENDCHAR
STARTCHAR U+0164
ENCODING 356
SWIDTH 480 0
DWIDTH 6 0
BBX 6 13 0 -2
BITMAP
00
48
30
00
F8
20
20
20
20
20
20
00
00
ENDCHAR
STARTCHAR U+0165
ENCODING 357
SWIDTH 480 0
DWIDTH 6 0
BBX 6 13 0 -2
BITMAP
00
90
60
00
40
F0
40
40
40
48
30
00
00
ENDCHAR
STARTCHAR U+0166
ENCODING 358
SWIDTH 480 0
DWIDTH 6 0
BBX 6 13 0 -2
BITMAP
00
00
F8
20
20
70
20
20
20
20
20
00
00
ENDCHAR
STARTCHAR U+0167
ENCODING 359
SWIDTH 480 0
DWIDTH 6 0
BBX 6 13 0 -2
BITMAP
00
00
00
40
40
F0
40
E0
40
48
30
00
00
ENDCHAR
STARTCHAR U+0168
ENCODING 360
SWIDTH 480 0
DWIDTH 6 0
BBX 6 13 0 -2
BITMAP
00
28
50
00
88
88
88
88
88
88
70
00
00
ENDCHAR
STARTCHAR U+0169
ENCODING 361
SWIDTH 480 0
DWIDTH 6 0
BBX 6 13 0 -2
BITMAP
00
28
50
00
00
88
88
88
88
88
78
00
00
ENDCHAR
STARTCHAR U+016A
ENCODING 362
SWIDTH 480 0
DWIDTH 6 0
BBX 6 13 0 -2
BITMAP
00
00
F8
00
88
88
88
88
88
88
70
00
00
ENDCHAR
STARTCHAR U+016B
ENCODING 363
SWIDTH 480 0
DWIDTH 6 0
BBX 6 13 0 -2
BITMAP
00
00
F8
00
00
88
88
88
88
88
78
00
00
ENDCHAR
STARTCHAR U+016C
ENCODING 364
SWIDTH 480 0
DWIDTH 6 0
BBX 6 13 0 -2
BITMAP
00
88
70
00
88
88
88
88
88
88
70
00
00
ENDCHAR
STARTCHAR U+016D
ENCODING 365
SWIDTH 480 0
DWIDTH 6 0
BBX 6 13 0 -2
BITMAP
00
88
70
00
00
88
88
88
88
88
78
00
00
ENDCHAR
STARTCHAR U+016E
ENCODING 366
SWIDTH 480 0
DWIDTH 6 0
BBX 6 13 0 -2
BITMAP
20
50
20
00
88
88
88
88
88
88
70
00
00
ENDCHAR
STARTCHAR U+016F
ENCODING 367
SWIDTH 480 0
DWIDTH 6 0
BBX 6 13 0 -2
BITMAP
20
50
20
00
00
88
88
88
88
88
78
00
00
ENDCHAR
STARTCHAR U+0170
ENCODING 368
SWIDTH 480 0
DWIDTH 6 0
BBX 6 13 0 -2
BITMAP
00
48
90
00
88
88
88
88
88
88
70
00
00
ENDCHAR
STARTCHAR U+0171
ENCODING 369
SWIDTH 480 0
DWIDTH 6 0
BBX 6 13 0 -2
BITMAP
00
48
90
00
00
88
88
88
88
88
78
00
00
ENDCHAR
STARTCHAR U+0172
ENCODING 370
SWIDTH 480 0
DWIDTH 6 0
BBX 6 13 0 -2
BITMAP
00
00
88
88
88
88
88
88
88
88
70
20
10
ENDCHAR
STARTCHAR U+0173
ENCODING 371
SWIDTH 480 0
DWIDTH 6 0
BBX 6 13 0 -2
BITMAP
00
00
00
00
00
88
88
88
88
88
78
20
10
ENDCHAR
STARTCHAR U+0174
ENCODING 372
SWIDTH 480 0
DWIDTH 6 0
BBX 6 13 0 -2
BITMAP
00
30
48
00
88
88
88
A8
A8
D8
88
00
00
ENDCHAR
STARTCHAR U+0175
ENCODING 373
SWIDTH 480 0
DWIDTH 6 0
BBX 6 13 0 -2
BITMAP
00
30
48
00
00
88
88
A8
A8
A8
50
00
00
ENDCHAR
STARTCHAR U+0176
ENCODING 374
SWIDTH 480 0
DWIDTH 6 0
BBX 6 13 0 -2
BITMAP
00
30
48
00
88
50
50
20
20
20
20
00
00
ENDCHAR
STARTCHAR U+0177
ENCODING 375
SWIDTH 480 0
DWIDTH 6 0
BBX 6 13 0 -2
BITMAP
00
30
48
00
00
88
88
88
98
68
08
88
70
ENDCHAR
STARTCHAR U+0178
ENCODING 376
SWIDTH 480 0
DWIDTH 6 0
BBX 6 13 0 -2
BITMAP
00
50
50
00
88
50
50
20
20
20
20
00
00
ENDCHAR
STARTCHAR U+0179
ENCODING 377
SWIDTH 480 0
DWIDTH 6 0
BBX 6 13 0 -2
BITMAP
00
10
20
00
F8
08
10
20
40
80
F8
00
00
ENDCHAR
STARTCHAR U+017A
ENCODING 378
SWIDTH 480 0
DWIDTH 6 0
BBX 6 13 0 -2
BITMAP
00
10
20
00
00
F8
10
20
40
80
F8
00
00
ENDCHAR
STARTCHAR U+017B
ENCODING 379
SWIDTH 480 0
DWIDTH 6 0
BBX 6 13 0 -2
BITMAP
00
20
20
00
F8
08
10
20
40
80
F8
00
00
ENDCHAR
STARTCHAR U+017C
ENCODING 380
SWIDTH 480 0
DWIDTH 6 0
BBX 6 13 0 -2
BITMAP
00
20
20
00
00
F8
10
20
40
80
F8
00
00
ENDCHAR
STARTCHAR U+017D
ENCODING 381
SWIDTH 480 0
DWIDTH 6 0
BBX 6 13 0 -2
BITMAP
00
48
30
00
F8
08
10
20
40
80
F8
00
00
ENDCHAR
STARTCHAR U+017E
ENCODING 382
SWIDTH 480 0
DWIDTH 6 0
BBX 6 13 0 -2
BITMAP
00
48
30
00
00
F8
10
20
40
80
F8
00
00
ENDCHAR
STARTCHAR U+017F
ENCODING 383
SWIDTH 480 0
DWIDTH 6 0
BBX 6 13 0 -2
BITMAP
00
00
30
48
40
40
C0
40
40
40
40
00
00
ENDCHAR
STARTCHAR U+0180
ENCODING 384
SWIDTH 480 0
DWIDTH 6 0
BBX 6 13 0 -2
BITMAP
00
00
40
E0
40
70
48
48
48
48
70
00
00
ENDCHAR
STARTCHAR U+0181
ENCODING 385
SWIDTH 480 0
DWIDTH 6 0
BBX 6 13 0 -2
BITMAP
00
00
70
A8
28
28
30
28
28
28
70
00
00
ENDCHAR
STARTCHAR U+0182
ENCODING 386
SWIDTH 480 0
DWIDTH 6 0
BBX 6 13 0 -2
BITMAP
00
00
F8
88
80
80
F0
88
88
88
F0
00
00
ENDCHAR
STARTCHAR U+0183
ENCODING 387
SWIDTH 480 0
DWIDTH 6 0
BBX 6 13 0 -2
BITMAP
00
00
78
48
40
40
70
48
48
48
70
00
00
ENDCHAR
STARTCHAR U+0184
ENCODING 388
SWIDTH 480 0
DWIDTH 6 0
BBX 6 13 0 -2
BITMAP
00
00
40
C0
40
40
70
48
48
48
70
00
00
ENDCHAR
STARTCHAR U+0185
ENCODING 389
SWIDTH 480 0
DWIDTH 6 0
BBX 6 13 0 -2
BITMAP
00
00
40
C0
40
40
60
50
50
50
60
00
00
ENDCHAR
STARTCHAR U+0186
ENCODING 390
SWIDTH 480 0
DWIDTH 6 0
BBX 6 13 0 -2
BITMAP
00
00
70
88
08
08
08
08
08
88
70
00
00
ENDCHAR
STARTCHAR U+0187
ENCODING 391
SWIDTH 480 0
DWIDTH 6 0
BBX 6 13 0 -2
BITMAP
00
04
78
88
80
80
80
80
80
88
70
00
00
ENDCHAR
STARTCHAR U+0188
ENCODING 392
SWIDTH 480 0
DWIDTH 6 0
BBX 6 13 0 -2
BITMAP
00
00
00
00
04
78
88
80
80
88
70
00
00
ENDCHAR
STARTCHAR U+0189
ENCODING 393
SWIDTH 480 0
DWIDTH 6 0
BBX 6 13 0 -2
BITMAP
00
00
F0
48
48
48
E8
48
48
48
F0
00
00
ENDCHAR
STARTCHAR U+018A
ENCODING 394
SWIDTH 480 0
DWIDTH 6 0
BBX 6 13 0 -2
BITMAP
00
00
70
A8
28
28
28
28
28
28
70
00
00
ENDCHAR
STARTCHAR U+018B
ENCODING 395
SWIDTH 480 0
DWIDTH 6 0
BBX 6 13 0 -2
BITMAP
00
00
F8
88
08
08
78
88
88
88
78
00
00
ENDCHAR
STARTCHAR U+018C
ENCODING 396
SWIDTH 480 0
DWIDTH 6 0
BBX 6 13 0 -2
BITMAP
00
00
78
48
08
08
38
48
48
48
38
00
00
ENDCHAR
STARTCHAR U+018D
ENCODING 397
SWIDTH 480 0
DWIDTH 6 0
BBX 6 13 0 -2
BITMAP
00
00
00
00
00
70
88
88
88
70
08
88
70
ENDCHAR
STARTCHAR U+018E
ENCODING 398
SWIDTH 480 0
DWIDTH 6 0
BBX 6 13 0 -2
BITMAP
00
00
F8
08
08
08
78
08
08
08
F8
00
00
ENDCHAR
STARTCHAR U+018F
ENCODING 399
SWIDTH 480 0
DWIDTH 6 0
BBX 6 13 0 -2
BITMAP
00
00
70
88
08
08
F8
88
88
88
70
00
00
ENDCHAR
STARTCHAR U+0190
ENCODING 400
SWIDTH 480 0
DWIDTH 6 0
BBX 6 13 0 -2
BITMAP
00
00
70
88
80
80
60
80
88
88
70
00
00
ENDCHAR
STARTCHAR U+0191
ENCODING 401
SWIDTH 480 0
DWIDTH 6 0
BBX 6 13 0 -2
BITMAP
00
00
38
20
20
20
38
20
20
20
20
A0
40
ENDCHAR
STARTCHAR U+0192
ENCODING 402
SWIDTH 480 0
DWIDTH 6 0
BBX 6 13 0 -2
BITMAP
00
00
10
28
20
20
70
20
20
20
20
A0
40
ENDCHAR
STARTCHAR U+0193
ENCODING 403
SWIDTH 480 0
DWIDTH 6 0
BBX 6 13 0 -2
BITMAP
00
04
78
88
80
80
80
98
88
88
70
00
00
ENDCHAR
STARTCHAR U+0194
ENCODING 404
SWIDTH 480 0
DWIDTH 6 0
BBX 6 13 0 -2
BITMAP
00
00
00
00
00
88
88
50
20
20
50
50
20
ENDCHAR
STARTCHAR U+0195
ENCODING 405
SWIDTH 480 0
DWIDTH 6 0
BBX 6 13 0 -2
BITMAP
00
00
80
80
80
C8
A8
A8
A8
A8
90
00
00
ENDCHAR
STARTCHAR U+0196
ENCODING 406
SWIDTH 480 0
DWIDTH 6 0
BBX 6 13 0 -2
BITMAP
00
00
60
20
20
20
20
20
20
28
10
00
00
ENDCHAR
STARTCHAR U+0197
ENCODING 407
SWIDTH 480 0
DWIDTH 6 0
BBX 6 13 0 -2
BITMAP
00
00
70
20
20
20
70
20
20
20
70
00
00
ENDCHAR
STARTCHAR U+0198
ENCODING 408
SWIDTH 480 0
DWIDTH 6 0
BBX 6 13 0 -2
BITMAP
00
00
88
94
90
A0
C0
A0
90
88
88
00
00
ENDCHAR
STARTCHAR U+0199
ENCODING 409
SWIDTH 480 0
DWIDTH 6 0
BBX 6 13 0 -2
BITMAP
00
00
40
A0
80
90
A0
C0
A0
90
88
00
00
ENDCHAR
STARTCHAR U+019A
ENCODING 410
SWIDTH 480 0
DWIDTH 6 0
BBX 6 13 0 -2
BITMAP
00
00
60
20
20
20
70
20
20
20
70
00
00
ENDCHAR
STARTCHAR U+019B
ENCODING 411
SWIDTH 480 0
DWIDTH 6 0
BBX 6 13 0 -2
BITMAP
00
00
90
60
40
A0
20
50
50
88
88
00
00
ENDCHAR
STARTCHAR U+019C
ENCODING 412
SWIDTH 480 0
DWIDTH 6 0
BBX 6 13 0 -2
BITMAP
00
00
A8
A8
A8
A8
A8
A8
A8
A8
58
00
00
ENDCHAR
STARTCHAR U+019D
ENCODING 413
SWIDTH 480 0
DWIDTH 6 0
BBX 6 13 0 -2
BITMAP
00
00
48
48
68
68
78
58
58
48
48
C0
40
ENDCHAR
STARTCHAR U+019E
ENCODING 414
SWIDTH 480 0
DWIDTH 6 0
BBX 6 13 0 -2
BITMAP
00
00
00
00
00
B0
C8
88
88
88
88
08
08
ENDCHAR
STARTCHAR U+019F
ENCODING 415
SWIDTH 480 0
DWIDTH 6 0
BBX 6 13 0 -2
BITMAP
00
00
70
88
88
88
F8
88
88
88
70
00
00
ENDCHAR
STARTCHAR U+01A0
ENCODING 416
SWIDTH 480 0
DWIDTH 6 0
BBX 6 13 0 -2
BITMAP
00
00
64
94
98
90
90
90
90
90
60
00
00
ENDCHAR
STARTCHAR U+01A1
ENCODING 417
SWIDTH 480 0
DWIDTH 6 0
BBX 6 13 0 -2
BITMAP
00
00
00
00
00
64
94
98
90
90
60
00
00
ENDCHAR
STARTCHAR U+01A2
ENCODING 418
SWIDTH 480 0
DWIDTH 6 0
BBX 6 13 0 -2
BITMAP
00
00
50
A8
A8
A8
A8
A8
A8
A8
48
00
00
ENDCHAR
STARTCHAR U+01A3
ENCODING 419
SWIDTH 480 0
DWIDTH 6 0
BBX 6 13 0 -2
BITMAP
00
00
00
00
00
50
A8
A8
A8
A8
48
08
08
ENDCHAR
STARTCHAR U+01A4
ENCODING 420
SWIDTH 480 0
DWIDTH 6 0
BBX 6 13 0 -2
BITMAP
00
00
70
A8
A8
28
30
20
20
20
20
00
00
ENDCHAR
STARTCHAR U+01A5
ENCODING 421
SWIDTH 480 0
DWIDTH 6 0
BBX 6 13 0 -2
BITMAP
00
00
40
A0
80
F0
88
88
88
F0
80
80
80
ENDCHAR
STARTCHAR U+01A6
ENCODING 422
SWIDTH 480 0
DWIDTH 6 0
BBX 6 13 0 -2
BITMAP
00
00
80
80
F0
88
88
88
F0
A0
90
08
08
ENDCHAR
STARTCHAR U+01A7
ENCODING 423
SWIDTH 480 0
DWIDTH 6 0
BBX 6 13 0 -2
BITMAP
00
00
70
88
08
08
70
80
80
88
70
00
00
ENDCHAR
STARTCHAR U+01A8
ENCODING 424
SWIDTH 480 0
DWIDTH 6 0
BBX 6 13 0 -2
BITMAP
00
00
00
00
00
70
88
30
40
88
70
00
00
ENDCHAR
STARTCHAR U+01A9
ENCODING 425
SWIDTH 480 0
DWIDTH 6 0
BBX 6 13 0 -2
BITMAP
00
00
F8
80
40
20
10
20
40
80
F8
00
00
ENDCHAR
STARTCHAR U+01AA
ENCODING 426
SWIDTH 480 0
DWIDTH 6 0
BBX 6 13 0 -2
BITMAP
00
00
40
A0
60
20
20
20
20
20
28
10
00
ENDCHAR
STARTCHAR U+01AB
ENCODING 427
SWIDTH 480 0
DWIDTH 6 0
BBX 6 13 0 -2
BITMAP
00
00
00
40
40
F0
40
40
40
48
30
10
20
ENDCHAR
STARTCHAR U+01AC
ENCODING 428
SWIDTH 480 0
DWIDTH 6 0
BBX 6 13 0 -2
BITMAP
00
00
78
A0
A0
20
20
20
20
20
20
00
00
ENDCHAR
STARTCHAR U+01AD
ENCODING 429
SWIDTH 480 0
DWIDTH 6 0
BBX 6 13 0 -2
BITMAP
00
00
20
50
40
F0
40
40
40
48
30
00
00
ENDCHAR
STARTCHAR U+01AE
ENCODING 430
SWIDTH 480 0
DWIDTH 6 0
BBX 6 13 0 -2
BITMAP
00
00
F8
20
20
20
20
20
20
20
20
28
10
ENDCHAR
STARTCHAR U+01AF
ENCODING 431
SWIDTH 480 0
DWIDTH 6 0
BBX 6 13 0 -2
BITMAP
00
00
94
94
98
90
90
90
90
90
60
00
00
ENDCHAR
STARTCHAR U+01B0
ENCODING 432
SWIDTH 480 0
DWIDTH 6 0
BBX 6 13 0 -2
BITMAP
00
00
00
00
00
94
94
98
90
B0
50
00
00
ENDCHAR
STARTCHAR U+01B1
ENCODING 433
SWIDTH 480 0
DWIDTH 6 0
BBX 6 13 0 -2
BITMAP
00
00
D8
50
50
88
88
88
88
88
70
00
00
ENDCHAR
STARTCHAR U+01B2
ENCODING 434
SWIDTH 480 0
DWIDTH 6 0
BBX 6 13 0 -2
BITMAP
00
00
90
88
88
88
88
88
88
88
70
00
00
ENDCHAR
STARTCHAR U+01B3
ENCODING 435
SWIDTH 480 0
DWIDTH 6 0
BBX 6 13 0 -2
BITMAP
00
00
68
A8
A8
28
10
10
10
10
10
00
00
ENDCHAR
STARTCHAR U+01B4
ENCODING 436
SWIDTH 480 0
DWIDTH 6 0
BBX 6 13 0 -2
BITMAP
00
00
00
00
08
94
90
90
90
70
10
90
60
ENDCHAR
STARTCHAR U+01B5
ENCODING 437
SWIDTH 480 0
DWIDTH 6 0
BBX 6 13 0 -2
BITMAP
00
00
F8
08
10
10
F8
40
40
80
F8
00
00
ENDCHAR
STARTCHAR U+01B6
ENCODING 438
SWIDTH 480 0
DWIDTH 6 0
BBX 6 13 0 -2
BITMAP
00
00
00
00
00
F8
10
F8
40
80
F8
00
00
ENDCHAR
STARTCHAR U+01B7
ENCODING 439
SWIDTH 480 0
DWIDTH 6 0
BBX 6 13 0 -2
BITMAP
00
00
F8
08
10
20
70
08
08
88
70
00
00
ENDCHAR
STARTCHAR U+01B8
ENCODING 440
SWIDTH 480 0
DWIDTH 6 0
BBX 6 13 0 -2
BITMAP
00
00
F8
80
40
20
70
80
80
88
70
00
00
ENDCHAR
STARTCHAR U+01B9
ENCODING 441
SWIDTH 480 0
DWIDTH 6 0
BBX 6 13 0 -2
BITMAP
00
00
00
00
00
F8
40
20
70
80
80
88
70
ENDCHAR
STARTCHAR U+01BA
ENCODING 442
SWIDTH 480 0
DWIDTH 6 0
BBX 6 13 0 -2
BITMAP
00
00
00
00
00
F8
10
20
70
10
60
88
70
ENDCHAR
STARTCHAR U+01BB
ENCODING 443
SWIDTH 480 0
DWIDTH 6 0
BBX 6 13 0 -2
BITMAP
00
00
70
88
88
08
10
F8
40
80
F8
00
00
ENDCHAR
STARTCHAR U+01BC
ENCODING 444
SWIDTH 480 0
DWIDTH 6 0
BBX 6 13 0 -2
BITMAP
00
00
F8
88
80
B0
C8
08
08
88
70
00
00
ENDCHAR
STARTCHAR U+01BD
ENCODING 445
SWIDTH 480 0
DWIDTH 6 0
BBX 6 13 0 -2
BITMAP
00
00
78
48
40
50
68
08
08
48
30
00
00
ENDCHAR
STARTCHAR U+01BE
ENCODING 446
SWIDTH 480 0
DWIDTH 6 0
BBX 6 13 0 -2
BITMAP
00
00
00
00
20
20
70
20
10
50
20
00
00
ENDCHAR
STARTCHAR U+01BF
ENCODING 447
SWIDTH 480 0
DWIDTH 6 0
BBX 6 13 0 -2
BITMAP
00
00
00
00
00
50
68
48
48
50
60
40
C0
ENDCHAR
STARTCHAR U+01C0
ENCODING 448
SWIDTH 480 0
DWIDTH 6 0
BBX 6 13 0 -2
BITMAP
00
00
20
20
20
20
20
20
20
20
20
20
20
ENDCHAR
STARTCHAR U+01C1
ENCODING 449
SWIDTH 480 0
DWIDTH 6 0
BBX 6 13 0 -2
BITMAP
00
00
50
50
50
50
50
50
50
50
50
50
50
ENDCHAR
STARTCHAR U+01C2
ENCODING 450
SWIDTH 480 0
DWIDTH 6 0
BBX 6 13 0 -2
BITMAP
00
00
00
00
20
20
F8
20
F8
20
20
00
00
ENDCHAR
STARTCHAR U+01C3
ENCODING 451
SWIDTH 480 0
DWIDTH 6 0
BBX 6 13 0 -2
BITMAP
00
00
20
20
20
20
20
20
20
00
20
00
00
ENDCHAR
STARTCHAR U+01C4
ENCODING 452
SWIDTH 480 0
DWIDTH 6 0
BBX 6 13 0 -2
BITMAP
00
28
10
00
D8
A8
A8
B0
B0
B0
D8
00
00
ENDCHAR
STARTCHAR U+01C5
ENCODING 453
SWIDTH 480 0
DWIDTH 6 0
BBX 6 13 0 -2
BITMAP
00
28
10
00
C0
A0
B8
A8
A8
B0
D8
00
00
ENDCHAR
STARTCHAR U+01C6
ENCODING 454
SWIDTH 480 0
DWIDTH 6 0
BBX 6 13 0 -2
BITMAP
00
28
10
00
20
20
78
A8
A8
B0
78
00
00
ENDCHAR
STARTCHAR U+01C7
ENCODING 455
SWIDTH 480 0
DWIDTH 6 0
BBX 6 13 0 -2
BITMAP
00
00
88
88
88
88
88
88
88
A8
F0
00
00
ENDCHAR
STARTCHAR U+01C8
ENCODING 456
SWIDTH 480 0
DWIDTH 6 0
BBX 6 13 0 -2
BITMAP
00
00
80
88
80
98
88
88
88
88
F8
28
10
ENDCHAR
STARTCHAR U+01C9
ENCODING 457
SWIDTH 480 0
DWIDTH 6 0
BBX 6 13 0 -2
BITMAP
00
00
C0
48
40
58
48
48
48
48
E8
28
10
ENDCHAR
STARTCHAR U+01CA
ENCODING 458
SWIDTH 480 0
DWIDTH 6 0
BBX 6 13 0 -2
BITMAP
00
00
B8
A8
E8
E8
E8
E8
E8
B8
B8
00
00
ENDCHAR
STARTCHAR U+01CB
ENCODING 459
SWIDTH 480 0
DWIDTH 6 0
BBX 6 13 0 -2
BITMAP
00
00
A0
A8
E0
F8
E8
E8
E8
A8
A8
28
10
ENDCHAR
STARTCHAR U+01CC
ENCODING 460
SWIDTH 480 0
DWIDTH 6 0
BBX 6 13 0 -2
BITMAP
00
00
00
08
00
C8
A8
A8
A8
A8
A8
28
10
ENDCHAR
STARTCHAR U+01CD
ENCODING 461
SWIDTH 480 0
DWIDTH 6 0
BBX 6 13 0 -2
BITMAP
00
48
30
00
20
50
88
88
F8
88
88
00
00
ENDCHAR
STARTCHAR U+01CE
ENCODING 462
SWIDTH 480 0
DWIDTH 6 0
BBX 6 13 0 -2
BITMAP
00
48
30
00
00
70
08
78
88
98
68
00
00
ENDCHAR
STARTCHAR U+01CF
ENCODING 463
SWIDTH 480 0
DWIDTH 6 0
BBX 6 13 0 -2
BITMAP
00
48
30
00
F8
20
20
20
20
20
F8
00
00
ENDCHAR
STARTCHAR U+01D0
ENCODING 464
SWIDTH 480 0
DWIDTH 6 0
BBX 6 13 0 -2
BITMAP
00
48
30
00
00
60
20
20
20
20
F8
00
00
ENDCHAR
STARTCHAR U+01D1
ENCODING 465
SWIDTH 480 0
DWIDTH 6 0
BBX 6 13 0 -2
BITMAP
00
48
30
00
70
88
88
88
88
88
70
00
00
ENDCHAR
STARTCHAR U+01D2
ENCODING 466
SWIDTH 480 0
DWIDTH 6 0
BBX 6 13 0 -2
BITMAP
00
48
30
00
00
70
88
88
88
88
70
00
00
ENDCHAR
STARTCHAR U+01D3
ENCODING 467
SWIDTH 480 0
DWIDTH 6 0
BBX 6 13 0 -2
BITMAP
00
48
30
00
88
88
88
88
88
88
70
00
00
ENDCHAR
STARTCHAR U+01D4
ENCODING 468
SWIDTH 480 0
DWIDTH 6 0
BBX 6 13 0 -2
BITMAP
00
48
30
00
00
88
88
88
88
88
78
00
00
ENDCHAR
STARTCHAR U+01D5
ENCODING 469
SWIDTH 480 0
DWIDTH 6 0
BBX 6 13 0 -2
BITMAP
00
70
00
50
00
88
88
88
88
88
70
00
00
ENDCHAR
STARTCHAR U+01D6
ENCODING 470
SWIDTH 480 0
DWIDTH 6 0
BBX 6 13 0 -2
BITMAP
00
70
00
50
50
00
88
88
88
88
78
00
00
ENDCHAR
STARTCHAR U+01D7
ENCODING 471
SWIDTH 480 0
DWIDTH 6 0
BBX 6 13 0 -2
BITMAP
10
20
00
50
00
88
88
88
88
88
70
00
00
ENDCHAR
STARTCHAR U+01D8
ENCODING 472
SWIDTH 480 0
DWIDTH 6 0
BBX 6 13 0 -2
BITMAP
10
20
00
50
50
00
88
88
88
88
78
00
00
ENDCHAR
STARTCHAR U+01D9
ENCODING 473
SWIDTH 480 0
DWIDTH 6 0
BBX 6 13 0 -2
BITMAP
48
30
00
50
00
88
88
88
88
88
70
00
00
ENDCHAR
STARTCHAR U+01DA
ENCODING 474
SWIDTH 480 0
DWIDTH 6 0
BBX 6 13 0 -2
BITMAP
48
30
00
50
50
00
88
88
88
88
78
00
00
ENDCHAR
STARTCHAR U+01DB
ENCODING 475
SWIDTH 480 0
DWIDTH 6 0
BBX 6 13 0 -2
BITMAP
40
20
00
50
00
88
88
88
88
88
70
00
00
ENDCHAR
STARTCHAR U+01DC
ENCODING 476
SWIDTH 480 0
DWIDTH 6 0
BBX 6 13 0 -2
BITMAP
40
20
00
50
50
00
88
88
88
88
78
00
00
ENDCHAR
STARTCHAR U+01DD
ENCODING 477
SWIDTH 480 0
DWIDTH 6 0
BBX 6 13 0 -2
BITMAP
00
00
00
00
00
70
88
08
F8
88
70
00
00
ENDCHAR
STARTCHAR U+01DE
ENCODING 478
SWIDTH 480 0
DWIDTH 6 0
BBX 6 13 0 -2
BITMAP
F8
00
50
00
20
50
88
88
F8
88
88
00
00
ENDCHAR
STARTCHAR U+01DF
ENCODING 479
SWIDTH 480 0
DWIDTH 6 0
BBX 6 13 0 -2
BITMAP
F8
00
50
50
00
70
08
78
88
98
68
00
00
ENDCHAR
STARTCHAR U+01E0
ENCODING 480
SWIDTH 480 0
DWIDTH 6 0
BBX 6 13 0 -2
BITMAP
F8
00
20
00
20
50
88
88
F8
88
88
00
00
ENDCHAR
STARTCHAR U+01E1
ENCODING 481
SWIDTH 480 0
DWIDTH 6 0
BBX 6 13 0 -2
BITMAP
F8
00
20
20
00
70
08
78
88
98
68
00
00
ENDCHAR
STARTCHAR U+01E2
ENCODING 482
SWIDTH 480 0
DWIDTH 6 0
BBX 6 13 0 -2
BITMAP
00
00
F8
00
58
A0
A0
F0
A0
A0
B8
00
00
ENDCHAR
STARTCHAR U+01E3
ENCODING 483
SWIDTH 480 0
DWIDTH 6 0
BBX 6 13 0 -2
BITMAP
00
00
F8
00
00
70
28
70
A0
A8
50
00
00
ENDCHAR
STARTCHAR U+01E4
ENCODING 484
SWIDTH 480 0
DWIDTH 6 0
BBX 6 13 0 -2
BITMAP
00
00
60
90
80
80
80
B0
B8
90
60
00
00
ENDCHAR
STARTCHAR U+01E5
ENCODING 485
SWIDTH 480 0
DWIDTH 6 0
BBX 6 13 0 -2
BITMAP
00
00
00
00
00
60
90
90
90
70
10
F8
60
ENDCHAR
STARTCHAR U+01E6
ENCODING 486
SWIDTH 480 0
DWIDTH 6 0
BBX 6 13 0 -2
BITMAP
00
48
30
00
70
88
80
98
88
88
70
00
00
ENDCHAR
STARTCHAR U+01E7
ENCODING 487
SWIDTH 480 0
DWIDTH 6 0
BBX 6 13 0 -2
BITMAP
00
48
30
00
00
70
88
88
88
78
08
88
70
ENDCHAR
STARTCHAR U+01E8
ENCODING 488
SWIDTH 480 0
DWIDTH 6 0
BBX 6 13 0 -2
BITMAP
00
48
30
00
88
90
A0
C0
A0
90
88
00
00
ENDCHAR
STARTCHAR U+01E9
ENCODING 489
SWIDTH 480 0
DWIDTH 6 0
BBX 6 13 0 -2
BITMAP
00
48
30
00
80
80
90
A0
C0
A0
90
00
00
ENDCHAR
STARTCHAR U+01EA
ENCODING 490
SWIDTH 480 0
DWIDTH 6 0
BBX 6 13 0 -2
BITMAP
00
00
70
88
88
88
88
88
88
88
70
20
10
ENDCHAR
STARTCHAR U+01EB
ENCODING 491
SWIDTH 480 0
DWIDTH 6 0
BBX 6 13 0 -2
BITMAP
00
00
00
00
00
70
88
88
88
88
70
20
10
ENDCHAR
STARTCHAR U+01EC
ENCODING 492
SWIDTH 480 0
DWIDTH 6 0
BBX 6 13 0 -2
BITMAP
00
00
F8
00
70
88
88
88
88
88
70
20
10
ENDCHAR
STARTCHAR U+01ED
ENCODING 493
SWIDTH 480 0
DWIDTH 6 0
BBX 6 13 0 -2
BITMAP
00
00
F8
00
00
70
88
88
88
88
70
20
10
ENDCHAR
STARTCHAR U+01EE
ENCODING 494
SWIDTH 480 0
DWIDTH 6 0
BBX 6 13 0 -2
BITMAP
00
48
30
00
F8
10
20
70
08
88
70
00
00
ENDCHAR
STARTCHAR U+01EF
ENCODING 495
SWIDTH 480 0
DWIDTH 6 0
BBX 6 13 0 -2
BITMAP
00
48
30
00
00
F8
10
20
70
08
08
88
70
ENDCHAR
STARTCHAR U+01F0
ENCODING 496
SWIDTH 480 0
DWIDTH 6 0
BBX 6 13 0 -2
BITMAP
00
48
30
00
00
30
10
10
10
10
90
90
60
ENDCHAR
STARTCHAR U+01F1
ENCODING 497
SWIDTH 480 0
DWIDTH 6 0
BBX 6 13 0 -2
BITMAP
00
00
D8
A8
A8
A8
A8
B0
B0
B0
D8
00
00
ENDCHAR
STARTCHAR U+01F2
ENCODING 498
SWIDTH 480 0
DWIDTH 6 0
BBX 6 13 0 -2
BITMAP
00
00
C0
A0
A0
B8
A8
A8
B0
B0
D8
00
00
ENDCHAR
STARTCHAR U+01F3
ENCODING 499
SWIDTH 480 0
DWIDTH 6 0
BBX 6 13 0 -2
BITMAP
00
00
20
20
20
78
A8
A8
B0
B0
78
00
00
ENDCHAR
STARTCHAR U+01F4
ENCODING 500
SWIDTH 480 0
DWIDTH 6 0
BBX 6 13 0 -2
BITMAP
00
10
20
00
70
88
80
98
88
88
70
00
00
ENDCHAR
STARTCHAR U+01F5
ENCODING 501
SWIDTH 480 0
DWIDTH 6 0
BBX 6 13 0 -2
BITMAP
00
10
20
00
00
70
88
88
88
78
08
88
70
ENDCHAR
STARTCHAR U+01FA
ENCODING 506
SWIDTH 480 0
DWIDTH 6 0
BBX 6 13 0 -2
BITMAP
10
20
00
20
50
20
20
50
88
F8
88
00
00
ENDCHAR
STARTCHAR U+01FB
ENCODING 507
SWIDTH 480 0
DWIDTH 6 0
BBX 6 13 0 -2
BITMAP
10
20
30
48
30
70
08
78
88
98
68
00
00
ENDCHAR
STARTCHAR U+01FC
ENCODING 508
SWIDTH 480 0
DWIDTH 6 0
BBX 6 13 0 -2
BITMAP
00
10
20
00
58
A0
A0
F0
A0
A0
B8
00
00
ENDCHAR
STARTCHAR U+01FD
ENCODING 509
SWIDTH 480 0
DWIDTH 6 0
BBX 6 13 0 -2
BITMAP
00
10
20
00
00
70
28
70
A0
A8
50
00
00
ENDCHAR
STARTCHAR U+01FE
ENCODING 510
SWIDTH 480 0
DWIDTH 6 0
BBX 6 13 0 -2
BITMAP
00
10
20
08
70
98
98
A8
C8
C8
70
80
00
ENDCHAR
STARTCHAR U+01FF
ENCODING 511
SWIDTH 480 0
DWIDTH 6 0
BBX 6 13 0 -2
BITMAP
00
10
20
00
08
70
98
A8
A8
C8
70
80
00
ENDCHAR
STARTCHAR U+0200
ENCODING 512
SWIDTH 480 0
DWIDTH 6 0
BBX 6 13 0 -2
BITMAP
00
90
48
00
20
50
88
88
F8
88
88
00
00
ENDCHAR
STARTCHAR U+0201
ENCODING 513
SWIDTH 480 0
DWIDTH 6 0
BBX 6 13 0 -2
BITMAP
00
90
48
00
00
70
08
78
88
98
68
00
00
ENDCHAR
STARTCHAR U+0202
ENCODING 514
SWIDTH 480 0
DWIDTH 6 0
BBX 6 13 0 -2
BITMAP
00
70
88
00
20
50
88
88
F8
88
88
00
00
ENDCHAR
STARTCHAR U+0203
ENCODING 515
SWIDTH 480 0
DWIDTH 6 0
BBX 6 13 0 -2
BITMAP
00
70
88
00
00
70
08
78
88
98
68
00
00
ENDCHAR
STARTCHAR U+0204
ENCODING 516
SWIDTH 480 0
DWIDTH 6 0
BBX 6 13 0 -2
BITMAP
00
90
48
00
F8
80
80
F0
80
80
F8
00
00
ENDCHAR
STARTCHAR U+0205
ENCODING 517
SWIDTH 480 0
DWIDTH 6 0
BBX 6 13 0 -2
BITMAP
00
90
48
00
00
70
88
F8
80
88
70
00
00
ENDCHAR
STARTCHAR U+0206
ENCODING 518
SWIDTH 480 0
DWIDTH 6 0
BBX 6 13 0 -2
BITMAP
00
70
88
00
F8
80
80
F0
80
80
F8
00
00
ENDCHAR
STARTCHAR U+0207
ENCODING 519
SWIDTH 480 0
DWIDTH 6 0
BBX 6 13 0 -2
BITMAP
00
70
88
00
00
70
88
F8
80
88
70
00
00
ENDCHAR
STARTCHAR U+0208
ENCODING 520
SWIDTH 480 0
DWIDTH 6 0
BBX 6 13 0 -2
BITMAP
00
90
48
00
F8
20
20
20
20
20
F8
00
00
ENDCHAR
STARTCHAR U+0209
ENCODING 521
SWIDTH 480 0
DWIDTH 6 0
BBX 6 13 0 -2
BITMAP
00
90
48
00
00
60
20
20
20
20
F8
00
00
ENDCHAR
STARTCHAR U+020A
ENCODING 522
SWIDTH 480 0
DWIDTH 6 0
BBX 6 13 0 -2
BITMAP
00
70
88
00
F8
20
20
20
20
20
F8
00
00
ENDCHAR
STARTCHAR U+020B
ENCODING 523
SWIDTH 480 0
DWIDTH 6 0
BBX 6 13 0 -2
BITMAP
00
70
88
00
00
60
20
20
20
20
F8
00
00
ENDCHAR
STARTCHAR U+020C
ENCODING 524
SWIDTH 480 0
DWIDTH 6 0
BBX 6 13 0 -2
BITMAP
00
90
48
00
70
88
88
88
88
88
70
00
00
ENDCHAR
STARTCHAR U+020D
ENCODING 525
SWIDTH 480 0
DWIDTH 6 0
BBX 6 13 0 -2
BITMAP
00
90
48
00
00
70
88
88
88
88
70
00
00
ENDCHAR
STARTCHAR U+020E
ENCODING 526
SWIDTH 480 0
DWIDTH 6 0
BBX 6 13 0 -2
BITMAP
00
70
88
00
70
88
88
88
88
88
70
00
00
ENDCHAR
STARTCHAR U+020F
ENCODING 527
SWIDTH 480 0
DWIDTH 6 0
BBX 6 13 0 -2
BITMAP
00
70
88
00
00
70
88
88
88
88
70
00
00
ENDCHAR
STARTCHAR U+0210
ENCODING 528
SWIDTH 480 0
DWIDTH 6 0
BBX 6 13 0 -2
BITMAP
00
90
48
00
F0
88
88
F0
90
88
88
00
00
ENDCHAR
STARTCHAR U+0211
ENCODING 529
SWIDTH 480 0
DWIDTH 6 0
BBX 6 13 0 -2
BITMAP
00
90
48
00
00
B0
C8
80
80
80
80
00
00
ENDCHAR
STARTCHAR U+0212
ENCODING 530
SWIDTH 480 0
DWIDTH 6 0
BBX 6 13 0 -2
BITMAP
00
70
88
00
F0
88
88
F0
90
88
88
00
00
ENDCHAR
STARTCHAR U+0213
ENCODING 531
SWIDTH 480 0
DWIDTH 6 0
BBX 6 13 0 -2
BITMAP
00
70
88
00
00
B0
C8
80
80
80
80
00
00
ENDCHAR
STARTCHAR U+0214
ENCODING 532
SWIDTH 480 0
DWIDTH 6 0
BBX 6 13 0 -2
BITMAP
00
90
48
00
88
88
88
88
88
88
70
00
00
ENDCHAR
STARTCHAR U+0215
ENCODING 533
SWIDTH 480 0
DWIDTH 6 0
BBX 6 13 0 -2
BITMAP
00
90
48
00
00
88
88
88
88
88
78
00
00
ENDCHAR
STARTCHAR U+0216
ENCODING 534
SWIDTH 480 0
DWIDTH 6 0
BBX 6 13 0 -2
BITMAP
00
70
88
00
88
88
88
88
88
88
70
00
00
ENDCHAR
STARTCHAR U+0217
ENCODING 535
SWIDTH 480 0
DWIDTH 6 0
BBX 6 13 0 -2
BITMAP
00
70
88
00
00
88
88
88
88
88
78
00
00
ENDCHAR
STARTCHAR U+0250
ENCODING 592
SWIDTH 480 0
DWIDTH 6 0
BBX 6 13 0 -2
BITMAP
00
00
00
00
00
F0
88
88
F0
80
70
00
00
ENDCHAR
STARTCHAR U+0251
ENCODING 593
SWIDTH 480 0
DWIDTH 6 0
BBX 6 13 0 -2
BITMAP
00
00
00
00
00
68
98
88
88
98
68
00
00
ENDCHAR
STARTCHAR U+0252
ENCODING 594
SWIDTH 480 0
DWIDTH 6 0
BBX 6 13 0 -2
BITMAP
00
00
00
00
00
B0
C8
88
88
C8
B0
00
00
ENDCHAR
STARTCHAR U+0253
ENCODING 595
SWIDTH 480 0
DWIDTH 6 0
BBX 6 13 0 -2
BITMAP
00
00
60
90
80
F0
88
88
88
88
F0
00
00
ENDCHAR
STARTCHAR U+0254
ENCODING 596
SWIDTH 480 0
DWIDTH 6 0
BBX 6 13 0 -2
BITMAP
00
00
00
00
00
70
88
08
08
88
70
00
00
ENDCHAR
STARTCHAR U+0255
ENCODING 597
SWIDTH 480 0
DWIDTH 6 0
BBX 6 13 0 -2
BITMAP
00
00
00
00
00
70
88
80
B0
C8
70
80
00
ENDCHAR
STARTCHAR U+0256
ENCODING 598
SWIDTH 480 0
DWIDTH 6 0
BBX 6 13 0 -2
BITMAP
00
00
10
10
10
70
90
90
90
90
70
14
08
ENDCHAR
STARTCHAR U+0257
ENCODING 599
SWIDTH 480 0
DWIDTH 6 0
BBX 6 13 0 -2
BITMAP
00
08
14
10
10
70
90
90
90
90
70
00
00
ENDCHAR
STARTCHAR U+0258
ENCODING 600
SWIDTH 480 0
DWIDTH 6 0
BBX 6 13 0 -2
BITMAP
00
00
00
00
00
70
88
F8
08
88
70
00
00
ENDCHAR
STARTCHAR U+0259
ENCODING 601
SWIDTH 480 0
DWIDTH 6 0
BBX 6 13 0 -2
BITMAP
00
00
00
00
00
70
88
08
F8
88
70
00
00
ENDCHAR
STARTCHAR U+025A
ENCODING 602
SWIDTH 480 0
DWIDTH 6 0
BBX 6 13 0 -2
BITMAP
00
00
00
00
00
60
98
14
70
90
60
00
00
ENDCHAR
STARTCHAR U+025B
ENCODING 603
SWIDTH 480 0
DWIDTH 6 0
BBX 6 13 0 -2
BITMAP
00
00
00
00
00
70
88
60
80
88
70
00
00
ENDCHAR
STARTCHAR U+025C
ENCODING 604
SWIDTH 480 0
DWIDTH 6 0
BBX 6 13 0 -2
BITMAP
00
00
00
00
00
70
88
30
08
88
70
00
00
ENDCHAR
STARTCHAR U+025D
ENCODING 605
SWIDTH 480 0
DWIDTH 6 0
BBX 6 13 0 -2
BITMAP
00
00
00
00
00
60
98
24
10
90
60
00
00
ENDCHAR
STARTCHAR U+025E
ENCODING 606
SWIDTH 480 0
DWIDTH 6 0
BBX 6 13 0 -2
BITMAP
00
00
00
00
00
70
88
B0
88
88
70
00
00
ENDCHAR
STARTCHAR U+025F
ENCODING 607
SWIDTH 480 0
DWIDTH 6 0
BBX 6 13 0 -2
BITMAP
00
00
00
00
10
10
10
10
78
10
10
90
60
ENDCHAR
STARTCHAR U+0260
ENCODING 608
SWIDTH 480 0
DWIDTH 6 0
BBX 6 13 0 -2
BITMAP
00
00
08
14
10
70
90
90
90
70
10
90
60
ENDCHAR
STARTCHAR U+0261
ENCODING 609
SWIDTH 480 0
DWIDTH 6 0
BBX 6 13 0 -2
BITMAP
00
00
00
00
00
78
88
88
88
78
08
88
70
ENDCHAR
STARTCHAR U+0262
ENCODING 610
SWIDTH 480 0
DWIDTH 6 0
BBX 6 13 0 -2
BITMAP
00
00
00
00
00
70
88
80
98
88
70
00
00
ENDCHAR
STARTCHAR U+0263
ENCODING 611
SWIDTH 480 0
DWIDTH 6 0
BBX 6 13 0 -2
BITMAP
00
00
00
00
00
88
88
50
50
20
20
50
20
ENDCHAR
STARTCHAR U+0264
ENCODING 612
SWIDTH 480 0
DWIDTH 6 0
BBX 6 13 0 -2
BITMAP
00
00
00
00
00
50
A8
20
50
50
20
00
00
ENDCHAR
STARTCHAR U+0265
ENCODING 613
SWIDTH 480 0
DWIDTH 6 0
BBX 6 13 0 -2
BITMAP
00
00
88
88
88
88
98
68
08
08
08
00
00
ENDCHAR
STARTCHAR U+0266
ENCODING 614
SWIDTH 480 0
DWIDTH 6 0
BBX 6 13 0 -2
BITMAP
00
00
60
90
80
B0
C8
88
88
88
88
00
00
ENDCHAR
STARTCHAR U+0267
ENCODING 615
SWIDTH 480 0
DWIDTH 6 0
BBX 6 13 0 -2
BITMAP
00
00
60
90
80
B0
C8
88
88
88
88
28
10
ENDCHAR
STARTCHAR U+0268
ENCODING 616
SWIDTH 480 0
DWIDTH 6 0
BBX 6 13 0 -2
BITMAP
00
00
00
20
00
60
20
70
20
20
70
00
00
ENDCHAR
STARTCHAR U+0269
ENCODING 617
SWIDTH 480 0
DWIDTH 6 0
BBX 6 13 0 -2
BITMAP
00
00
00
00
00
60
20
20
20
28
10
00
00
ENDCHAR
STARTCHAR U+026A
ENCODING 618
SWIDTH 480 0
DWIDTH 6 0
BBX 6 13 0 -2
BITMAP
00
00
00
00
00
70
20
20
20
20
70
00
00
ENDCHAR
STARTCHAR U+026B
ENCODING 619
SWIDTH 480 0
DWIDTH 6 0
BBX 6 13 0 -2
BITMAP
00
00
60
20
20
68
B0
20
20
20
70
00
00
ENDCHAR
STARTCHAR U+026C
ENCODING 620
SWIDTH 480 0
DWIDTH 6 0
BBX 6 13 0 -2
BITMAP
00
00
60
20
20
60
A0
78
20
20
70
00
00
ENDCHAR
STARTCHAR U+026D
ENCODING 621
SWIDTH 480 0
DWIDTH 6 0
BBX 6 13 0 -2
BITMAP
00
00
60
20
20
20
20
20
20
20
20
28
10
ENDCHAR
STARTCHAR U+026E
ENCODING 622
SWIDTH 480 0
DWIDTH 6 0
BBX 6 13 0 -2
BITMAP
00
00
C0
40
40
78
48
50
70
48
E8
08
30
ENDCHAR
STARTCHAR U+026F
ENCODING 623
SWIDTH 480 0
DWIDTH 6 0
BBX 6 13 0 -2
BITMAP
00
00
00
00
00
88
A8
A8
A8
A8
58
00
00
ENDCHAR
STARTCHAR U+0270
ENCODING 624
SWIDTH 480 0
DWIDTH 6 0
BBX 6 13 0 -2
BITMAP
00
00
00
00
00
88
A8
A8
A8
A8
58
08
08
ENDCHAR
STARTCHAR U+0271
ENCODING 625
SWIDTH 480 0
DWIDTH 6 0
BBX 6 13 0 -2
BITMAP
00
00
00
00
00
D0
A8
A8
A8
A8
88
28
10
ENDCHAR
STARTCHAR U+0272
ENCODING 626
SWIDTH 480 0
DWIDTH 6 0
BBX 6 13 0 -2
BITMAP
00
00
00
00
00
50
68
48
48
48
48
C0
40
ENDCHAR
STARTCHAR U+0273
ENCODING 627
SWIDTH 480 0
DWIDTH 6 0
BBX 6 13 0 -2
BITMAP
00
00
00
00
00
A0
D0
90
90
90
90
14
08
ENDCHAR
STARTCHAR U+0274
ENCODING 628
SWIDTH 480 0
DWIDTH 6 0
BBX 6 13 0 -2
BITMAP
00
00
00
00
00
88
C8
A8
A8
98
88
00
00
ENDCHAR
STARTCHAR U+0275
ENCODING 629
SWIDTH 480 0
DWIDTH 6 0
BBX 6 13 0 -2
BITMAP
00
00
00
00
00
70
88
F8
88
88
70
00
00
ENDCHAR
STARTCHAR U+0276
ENCODING 630
SWIDTH 480 0
DWIDTH 6 0
BBX 6 13 0 -2
BITMAP
00
00
00
00
00
78
A0
B0
A0
A0
78
00
00
ENDCHAR
STARTCHAR U+0277
ENCODING 631
SWIDTH 480 0
DWIDTH 6 0
BBX 6 13 0 -2
BITMAP
00
00
00
00
00
70
88
A8
A8
A8
50
00
00
ENDCHAR
STARTCHAR U+0278
ENCODING 632
SWIDTH 480 0
DWIDTH 6 0
BBX 6 13 0 -2
BITMAP
00
00
00
20
20
70
A8
A8
A8
A8
70
20
20
ENDCHAR
STARTCHAR U+0279
ENCODING 633
SWIDTH 480 0
DWIDTH 6 0
BBX 6 13 0 -2
BITMAP
00
00
00
00
00
08
08
08
08
98
68
00
00
ENDCHAR
STARTCHAR U+027A
ENCODING 634
SWIDTH 480 0
DWIDTH 6 0
BBX 6 13 0 -2
BITMAP
00
00
08
08
08
08
08
08
08
98
68
00
00
ENDCHAR
STARTCHAR U+027B
ENCODING 635
SWIDTH 480 0
DWIDTH 6 0
BBX 6 13 0 -2
BITMAP
00
00
00
00
00
10
10
10
10
B0
50
14
08
ENDCHAR
STARTCHAR U+027C
ENCODING 636
SWIDTH 480 0
DWIDTH 6 0
BBX 6 13 0 -2
BITMAP
00
00
00
00
00
B0
C8
80
80
80
80
80
80
ENDCHAR
STARTCHAR U+027D
ENCODING 637
SWIDTH 480 0
DWIDTH 6 0
BBX 6 13 0 -2
BITMAP
00
00
00
00
00
B0
C8
80
80
80
80
A0
40
ENDCHAR
STARTCHAR U+027E
ENCODING 638
SWIDTH 480 0
DWIDTH 6 0
BBX 6 13 0 -2
BITMAP
00
00
00
00
00
30
48
80
80
80
80
00
00
ENDCHAR
STARTCHAR U+027F
ENCODING 639
SWIDTH 480 0
DWIDTH 6 0
BBX 6 13 0 -2
BITMAP
00
00
00
00
00
60
90
08
08
08
08
00
00
ENDCHAR
STARTCHAR U+0280
ENCODING 640
SWIDTH 480 0
DWIDTH 6 0
BBX 6 13 0 -2
BITMAP
00
00
00
00
00
F0
88
F0
A0
90
88
00
00
ENDCHAR
STARTCHAR U+0281
ENCODING 641
SWIDTH 480 0
DWIDTH 6 0
BBX 6 13 0 -2
BITMAP
00
00
00
00
00
88
90
A0
F0
88
F0
00
00
ENDCHAR
STARTCHAR U+0282
ENCODING 642
SWIDTH 480 0
DWIDTH 6 0
BBX 6 13 0 -2
BITMAP
00
00
00
00
00
78
80
70
08
08
F0
80
40
ENDCHAR
STARTCHAR U+0283
ENCODING 643
SWIDTH 480 0
DWIDTH 6 0
BBX 6 13 0 -2
BITMAP
00
00
10
28
20
20
20
20
20
20
20
A0
40
ENDCHAR
STARTCHAR U+0284
ENCODING 644
SWIDTH 480 0
DWIDTH 6 0
BBX 6 13 0 -2
BITMAP
00
00
10
28
20
70
20
20
20
70
20
A0
40
ENDCHAR
STARTCHAR U+0285
ENCODING 645
SWIDTH 480 0
DWIDTH 6 0
BBX 6 13 0 -2
BITMAP
00
00
00
00
00
40
A0
20
20
20
20
28
10
ENDCHAR
STARTCHAR U+0286
ENCODING 646
SWIDTH 480 0
DWIDTH 6 0
BBX 6 13 0 -2
BITMAP
00
00
10
28
20
20
20
20
20
60
B0
A8
40
ENDCHAR
STARTCHAR U+0287
ENCODING 647
SWIDTH 480 0
DWIDTH 6 0
BBX 6 13 0 -2
BITMAP
00
00
00
60
90
10
10
10
78
10
10
00
00
ENDCHAR
STARTCHAR U+0288
ENCODING 648
SWIDTH 480 0
DWIDTH 6 0
BBX 6 13 0 -2
BITMAP
00
00
00
40
40
F0
40
40
40
40
40
48
30
ENDCHAR
STARTCHAR U+0289
ENCODING 649
SWIDTH 480 0
DWIDTH 6 0
BBX 6 13 0 -2
BITMAP
00
00
00
00
00
48
48
FC
48
58
28
00
00
ENDCHAR
STARTCHAR U+028A
ENCODING 650
SWIDTH 480 0
DWIDTH 6 0
BBX 6 13 0 -2
BITMAP
00
00
00
00
00
D8
50
88
88
88
70
00
00
ENDCHAR
STARTCHAR U+028B
ENCODING 651
SWIDTH 480 0
DWIDTH 6 0
BBX 6 13 0 -2
BITMAP
00
00
00
00
00
90
88
88
50
50
20
00
00
ENDCHAR
STARTCHAR U+028C
ENCODING 652
SWIDTH 480 0
DWIDTH 6 0
BBX 6 13 0 -2
BITMAP
00
00
00
00
00
20
50
50
88
88
88
00
00
ENDCHAR
STARTCHAR U+028D
ENCODING 653
SWIDTH 480 0
DWIDTH 6 0
BBX 6 13 0 -2
BITMAP
00
00
00
00
00
50
A8
A8
A8
88
88
00
00
ENDCHAR
STARTCHAR U+028E
ENCODING 654
SWIDTH 480 0
DWIDTH 6 0
BBX 6 13 0 -2
BITMAP
00
00
08
10
10
20
20
50
50
88
88
00
00
ENDCHAR
STARTCHAR U+028F
ENCODING 655
SWIDTH 480 0
DWIDTH 6 0
BBX 6 13 0 -2
BITMAP
00
00
00
00
00
88
50
50
20
20
20
00
00
ENDCHAR
STARTCHAR U+0290
ENCODING 656
SWIDTH 480 0
DWIDTH 6 0
BBX 6 13 0 -2
BITMAP
00
00
00
00
00
F8
10
20
40
80
F8
10
08
ENDCHAR
STARTCHAR U+0291
ENCODING 657
SWIDTH 480 0
DWIDTH 6 0
BBX 6 13 0 -2
BITMAP
00
00
00
00
00
F8
10
20
50
A8
F0
40
00
ENDCHAR
STARTCHAR U+0292
ENCODING 658
SWIDTH 480 0
DWIDTH 6 0
BBX 6 13 0 -2
BITMAP
00
00
00
00
00
F8
10
20
70
08
08
88
70
ENDCHAR
STARTCHAR U+0293
ENCODING 659
SWIDTH 480 0
DWIDTH 6 0
BBX 6 13 0 -2
BITMAP
00
00
00
00
00
F8
10
20
70
08
68
98
78
ENDCHAR
STARTCHAR U+0294
ENCODING 660
SWIDTH 480 0
DWIDTH 6 0
BBX 6 13 0 -2
BITMAP
00
00
30
48
08
08
30
20
20
20
70
00
00
ENDCHAR
STARTCHAR U+0295
ENCODING 661
SWIDTH 480 0
DWIDTH 6 0
BBX 6 13 0 -2
BITMAP
00
00
30
48
40
40
30
10
10
10
38
00
00
ENDCHAR
STARTCHAR U+0296
ENCODING 662
SWIDTH 480 0
DWIDTH 6 0
BBX 6 13 0 -2
BITMAP
00
00
70
20
20
20
30
08
08
48
30
00
00
ENDCHAR
STARTCHAR U+0297
ENCODING 663
SWIDTH 480 0
DWIDTH 6 0
BBX 6 13 0 -2
BITMAP
00
00
00
00
00
70
88
80
80
80
80
88
70
ENDCHAR
STARTCHAR U+0298
ENCODING 664
SWIDTH 480 0
DWIDTH 6 0
BBX 6 13 0 -2
BITMAP
00
00
00
00
00
00
70
88
A8
88
70
00
00
ENDCHAR
STARTCHAR U+0299
ENCODING 665
SWIDTH 480 0
DWIDTH 6 0
BBX 6 13 0 -2
BITMAP
00
00
00
00
00
F0
48
70
48
48
F0
00
00
ENDCHAR
STARTCHAR U+029A
ENCODING 666
SWIDTH 480 0
DWIDTH 6 0
BBX 6 13 0 -2
BITMAP
00
00
00
00
00
70
88
68
88
88
70
00
00
ENDCHAR
STARTCHAR U+029B
ENCODING 667
SWIDTH 480 0
DWIDTH 6 0
BBX 6 13 0 -2
BITMAP
00
00
00
00
04
78
88
80
98
88
70
00
00
ENDCHAR
STARTCHAR U+029C
ENCODING 668
SWIDTH 480 0
DWIDTH 6 0
BBX 6 13 0 -2
BITMAP
00
00
00
00
00
88
88
F8
88
88
88
00
00
ENDCHAR
STARTCHAR U+029D
ENCODING 669
SWIDTH 480 0
DWIDTH 6 0
BBX 6 13 0 -2
BITMAP
00
00
00
10
00
30
10
10
10
10
70
98
68
ENDCHAR
STARTCHAR U+029E
ENCODING 670
SWIDTH 480 0
DWIDTH 6 0
BBX 6 13 0 -2
BITMAP
00
00
88
48
28
18
28
48
08
08
08
00
00
ENDCHAR
STARTCHAR U+029F
ENCODING 671
SWIDTH 480 0
DWIDTH 6 0
BBX 6 13 0 -2
BITMAP
00
00
00
00
00
40
40
40
40
40
78
00
00
ENDCHAR
STARTCHAR U+02A0
ENCODING 672
SWIDTH 480 0
DWIDTH 6 0
BBX 6 13 0 -2
BITMAP
00
00
00
08
14
70
90
90
90
70
10
10
10
ENDCHAR
STARTCHAR U+02A1
ENCODING 673
SWIDTH 480 0
DWIDTH 6 0
BBX 6 13 0 -2
BITMAP
00
00
30
48
08
08
30
20
70
20
70
00
00
ENDCHAR
STARTCHAR U+02A2
ENCODING 674
SWIDTH 480 0
DWIDTH 6 0
BBX 6 13 0 -2
BITMAP
00
00
30
48
40
40
30
10
38
10
38
00
00
ENDCHAR
STARTCHAR U+02A3
ENCODING 675
SWIDTH 480 0
DWIDTH 6 0
BBX 6 13 0 -2
BITMAP
00
00
20
20
20
78
A8
A8
B0
B0
78
00
00
ENDCHAR
STARTCHAR U+02A4
ENCODING 676
SWIDTH 480 0
DWIDTH 6 0
BBX 6 13 0 -2
BITMAP
00
00
20
20
20
78
A8
A8
B0
B0
68
08
30
ENDCHAR
STARTCHAR U+02A5
ENCODING 677
SWIDTH 480 0
DWIDTH 6 0
BBX 6 13 0 -2
BITMAP
00
00
20
20
20
78
A8
A8
BC
B4
78
10
20
ENDCHAR
STARTCHAR U+02A6
ENCODING 678
SWIDTH 480 0
DWIDTH 6 0
BBX 6 13 0 -2
BITMAP
00
00
00
40
40
E0
58
60
50
48
30
00
00
ENDCHAR
STARTCHAR U+02A7
ENCODING 679
SWIDTH 480 0
DWIDTH 6 0
BBX 6 13 0 -2
BITMAP
00
00
08
50
50
F8
50
50
50
50
30
50
20
ENDCHAR
STARTCHAR U+02A8
ENCODING 680
SWIDTH 480 0
DWIDTH 6 0
BBX 6 13 0 -2
BITMAP
00
00
00
40
40
E0
58
60
68
74
38
20
40
ENDCHAR
STARTCHAR U+02B0
ENCODING 688
SWIDTH 480 0
DWIDTH 6 0
BBX 6 13 0 -2
BITMAP
00
00
40
50
68
48
48
00
00
00
00
00
00
ENDCHAR
STARTCHAR U+02B1
ENCODING 689
SWIDTH 480 0
DWIDTH 6 0
BBX 6 13 0 -2
BITMAP
00
20
40
50
68
48
48
00
00
00
00
00
00
ENDCHAR
STARTCHAR U+02B2
ENCODING 690
SWIDTH 480 0
DWIDTH 6 0
BBX 6 13 0 -2
BITMAP
00
10
00
10
10
50
20
00
00
00
00
00
00
ENDCHAR
STARTCHAR U+02B3
ENCODING 691
SWIDTH 480 0
DWIDTH 6 0
BBX 6 13 0 -2
BITMAP
00
00
50
60
40
40
40
00
00
00
00
00
00
ENDCHAR
STARTCHAR U+02B4
ENCODING 692
SWIDTH 480 0
DWIDTH 6 0
BBX 6 13 0 -2
BITMAP
00
00
10
10
10
30
50
00
00
00
00
00
00
ENDCHAR
STARTCHAR U+02B5
ENCODING 693
SWIDTH 480 0
DWIDTH 6 0
BBX 6 13 0 -2
BITMAP
00
00
10
10
10
30
50
08
00
00
00
00
00
ENDCHAR
STARTCHAR U+02B6
ENCODING 694
SWIDTH 480 0
DWIDTH 6 0
BBX 6 13 0 -2
BITMAP
00
00
50
50
60
50
60
00
00
00
00
00
00
ENDCHAR
STARTCHAR U+02B7
ENCODING 695
SWIDTH 480 0
DWIDTH 6 0
BBX 6 13 0 -2
BITMAP
00
00
88
A8
A8
50
00
00
00
00
00
00
00
ENDCHAR
STARTCHAR U+02B8
ENCODING 696
SWIDTH 480 0
DWIDTH 6 0
BBX 6 13 0 -2
BITMAP
00
00
50
50
20
20
40
00
00
00
00
00
00
ENDCHAR
STARTCHAR U+02B9
ENCODING 697
SWIDTH 480 0
DWIDTH 6 0
BBX 6 13 0 -2
BITMAP
00
00
20
20
40
00
00
00
00
00
00
00
00
ENDCHAR
STARTCHAR U+02BA
ENCODING 698
SWIDTH 480 0
DWIDTH 6 0
BBX 6 13 0 -2
BITMAP
00
00
28
28
50
00
00
00
00
00
00
00
00
ENDCHAR
STARTCHAR U+02BB
ENCODING 699
SWIDTH 480 0
DWIDTH 6 0
BBX 6 13 0 -2
BITMAP
00
00
10
20
30
00
00
00
00
00
00
00
00
ENDCHAR
STARTCHAR U+02BC
ENCODING 700
SWIDTH 480 0
DWIDTH 6 0
BBX 6 13 0 -2
BITMAP
00
00
30
10
20
00
00
00
00
00
00
00
00
ENDCHAR
STARTCHAR U+02BD
ENCODING 701
SWIDTH 480 0
DWIDTH 6 0
BBX 6 13 0 -2
BITMAP
00
00
30
20
10
00
00
00
00
00
00
00
00
ENDCHAR
STARTCHAR U+02BE
ENCODING 702
SWIDTH 480 0
DWIDTH 6 0
BBX 6 13 0 -2
BITMAP
00
20
10
10
20
00
00
00
00
00
00
00
00
ENDCHAR
STARTCHAR U+02BF
ENCODING 703
SWIDTH 480 0
DWIDTH 6 0
BBX 6 13 0 -2
BITMAP
00
10
20
20
10
00
00
00
00
00
00
00
00
ENDCHAR
STARTCHAR U+02C0
ENCODING 704
SWIDTH 480 0
DWIDTH 6 0
BBX 6 13 0 -2
BITMAP
00
20
50
10
20
20
00
00
00
00
00
00
00
ENDCHAR
STARTCHAR U+02C1
ENCODING 705
SWIDTH 480 0
DWIDTH 6 0
BBX 6 13 0 -2
BITMAP
00
20
50
40
20
20
00
00
00
00
00
00
00
ENDCHAR
STARTCHAR U+02C2
ENCODING 706
SWIDTH 480 0
DWIDTH 6 0
BBX 6 13 0 -2
BITMAP
00
10
20
40
20
10
00
00
00
00
00
00
00
ENDCHAR
STARTCHAR U+02C3
ENCODING 707
SWIDTH 480 0
DWIDTH 6 0
BBX 6 13 0 -2
BITMAP
00
40
20
10
20
40
00
00
00
00
00
00
00
ENDCHAR
STARTCHAR U+02C4
ENCODING 708
SWIDTH 480 0
DWIDTH 6 0
BBX 6 13 0 -2
BITMAP
00
20
50
88
00
00
00
00
00
00
00
00
00
ENDCHAR
STARTCHAR U+02C5
ENCODING 709
SWIDTH 480 0
DWIDTH 6 0
BBX 6 13 0 -2
BITMAP
00
88
50
20
00
00
00
00
00
00
00
00
00
ENDCHAR
STARTCHAR U+02C6
ENCODING 710
SWIDTH 480 0
DWIDTH 6 0
BBX 6 13 0 -2
BITMAP
00
30
48
00
00
00
00
00
00
00
00
00
00
ENDCHAR
STARTCHAR U+02C7
ENCODING 711
SWIDTH 480 0
DWIDTH 6 0
BBX 6 13 0 -2
BITMAP
00
48
30
00
00
00
00
00
00
00
00
00
00
ENDCHAR
STARTCHAR U+02C8
ENCODING 712
SWIDTH 480 0
DWIDTH 6 0
BBX 6 13 0 -2
BITMAP
00
00
20
20
20
00
00
00
00
00
00
00
00
ENDCHAR
STARTCHAR U+02C9
ENCODING 713
SWIDTH 480 0
DWIDTH 6 0
BBX 6 13 0 -2
BITMAP
00
00
78
00
00
00
00
00
00
00
00
00
00
ENDCHAR
STARTCHAR U+02CA
ENCODING 714
SWIDTH 480 0
DWIDTH 6 0
BBX 6 13 0 -2
BITMAP
00
00
20
40
00
00
00
00
00
00
00
00
00
ENDCHAR
STARTCHAR U+02CB
ENCODING 715
SWIDTH 480 0
DWIDTH 6 0
BBX 6 13 0 -2
BITMAP
00
00
20
10
00
00
00
00
00
00
00
00
00
ENDCHAR
STARTCHAR U+02CC
ENCODING 716
SWIDTH 480 0
DWIDTH 6 0
BBX 6 13 0 -2
BITMAP
00
00
00
00
00
00
00
00
20
20
20
00
00
ENDCHAR
STARTCHAR U+02CD
ENCODING 717
SWIDTH 480 0
DWIDTH 6 0
BBX 6 13 0 -2
BITMAP
00
00
00
00
00
00
00
00
00
00
00
00
70
ENDCHAR
STARTCHAR U+02CE
ENCODING 718
SWIDTH 480 0
DWIDTH 6 0
BBX 6 13 0 -2
BITMAP
00
00
00
00
00
00
00
00
00
00
00
20
10
ENDCHAR
STARTCHAR U+02CF
ENCODING 719
SWIDTH 480 0
DWIDTH 6 0
BBX 6 13 0 -2
BITMAP
00
00
00
00
00
00
00
00
00
00
00
20
40
ENDCHAR
STARTCHAR U+02D0
ENCODING 720
SWIDTH 480 0
DWIDTH 6 0
BBX 6 13 0 -2
BITMAP
00
00
00
00
00
70
20
00
00
20
70
00
00
ENDCHAR
STARTCHAR U+02D1
ENCODING 721
SWIDTH 480 0
DWIDTH 6 0
BBX 6 13 0 -2
BITMAP
00
00
00
00
00
70
20
00
00
00
00
00
00
ENDCHAR
STARTCHAR U+02D2
ENCODING 722
SWIDTH 480 0
DWIDTH 6 0
BBX 6 13 0 -2
BITMAP
00
00
00
00
00
20
10
10
20
00
00
00
00
ENDCHAR
STARTCHAR U+02D3
ENCODING 723
SWIDTH 480 0
DWIDTH 6 0
BBX 6 13 0 -2
BITMAP
00
00
00
00
00
20
40
40
20
00
00
00
00
ENDCHAR
STARTCHAR U+02D4
ENCODING 724
SWIDTH 480 0
DWIDTH 6 0
BBX 6 13 0 -2
BITMAP
00
00
00
00
20
20
F8
00
00
00
00
00
00
ENDCHAR
STARTCHAR U+02D5
ENCODING 725
SWIDTH 480 0
DWIDTH 6 0
BBX 6 13 0 -2
BITMAP
00
00
00
00
00
00
F8
20
20
00
00
00
00
ENDCHAR
STARTCHAR U+02D6
ENCODING 726
SWIDTH 480 0
DWIDTH 6 0
BBX 6 13 0 -2
BITMAP
00
00
00
00
20
20
F8
20
20
00
00
00
00
ENDCHAR
STARTCHAR U+02D7
ENCODING 727
SWIDTH 480 0
DWIDTH 6 0
BBX 6 13 0 -2
BITMAP
00
00
00
00
00
88
F8
88
00
00
00
00
00
ENDCHAR
STARTCHAR U+02D8
ENCODING 728
SWIDTH 480 0
DWIDTH 6 0
BBX 6 13 0 -2
BITMAP
00
88
70
00
00
00
00
00
00
00
00
00
00
ENDCHAR
STARTCHAR U+02D9
ENCODING 729
SWIDTH 480 0
DWIDTH 6 0
BBX 6 13 0 -2
BITMAP
00
20
20
00
00
00
00
00
00
00
00
00
00
ENDCHAR
STARTCHAR U+02DA
ENCODING 730
SWIDTH 480 0
DWIDTH 6 0
BBX 6 13 0 -2
BITMAP
00
20
50
20
00
00
00
00
00
00
00
00
00
ENDCHAR
STARTCHAR U+02DB
ENCODING 731
SWIDTH 480 0
DWIDTH 6 0
BBX 6 13 0 -2
BITMAP
00
00
00
00
00
00
00
00
00
00
00
20
10
ENDCHAR
STARTCHAR U+02DC
ENCODING 732
SWIDTH 480 0
DWIDTH 6 0
BBX 6 13 0 -2
BITMAP
00
28
50
00
00
00
00
00
00
00
00
00
00
ENDCHAR
STARTCHAR U+02DD
ENCODING 733
SWIDTH 480 0
DWIDTH 6 0
BBX 6 13 0 -2
BITMAP
00
48
90
00
00
00
00
00
00
00
00
00
00
ENDCHAR
STARTCHAR U+02DE
ENCODING 734
SWIDTH 480 0
DWIDTH 6 0
BBX 6 13 0 -2
BITMAP
00
00
00
00
00
40
C8
30
00
00
00
00
00
ENDCHAR
STARTCHAR U+02E0
ENCODING 736
SWIDTH 480 0
DWIDTH 6 0
BBX 6 13 0 -2
BITMAP
00
00
48
30
30
30
30
00
00
00
00
00
00
ENDCHAR
STARTCHAR U+02E1
ENCODING 737
SWIDTH 480 0
DWIDTH 6 0
BBX 6 13 0 -2
BITMAP
00
60
20
20
20
70
00
00
00
00
00
00
00
ENDCHAR
STARTCHAR U+02E2
ENCODING 738
SWIDTH 480 0
DWIDTH 6 0
BBX 6 13 0 -2
BITMAP
00
00
30
40
20
10
60
00
00
00
00
00
00
ENDCHAR
STARTCHAR U+02E3
ENCODING 739
SWIDTH 480 0
DWIDTH 6 0
BBX 6 13 0 -2
BITMAP
00
00
48
30
30
48
00
00
00
00
00
00
00
ENDCHAR
STARTCHAR U+02E4
ENCODING 740
SWIDTH 480 0
DWIDTH 6 0
BBX 6 13 0 -2
BITMAP
00
00
30
48
40
40
30
10
38
00
00
00
00
ENDCHAR
STARTCHAR U+02E5
ENCODING 741
SWIDTH 480 0
DWIDTH 6 0
BBX 6 13 0 -2
BITMAP
00
00
70
10
10
10
10
10
10
10
10
10
10
ENDCHAR
STARTCHAR U+02E6
ENCODING 742
SWIDTH 480 0
DWIDTH 6 0
BBX 6 13 0 -2
BITMAP
00
00
10
10
70
10
10
10
10
10
10
10
10
ENDCHAR
STARTCHAR U+02E7
ENCODING 743
SWIDTH 480 0
DWIDTH 6 0
BBX 6 13 0 -2
BITMAP
00
00
10
10
10
10
10
70
10
10
10
10
10
ENDCHAR
STARTCHAR U+02E8
ENCODING 744
SWIDTH 480 0
DWIDTH 6 0
BBX 6 13 0 -2
BITMAP
00
00
10
10
10
10
10
10
10
10
70
10
10
ENDCHAR
STARTCHAR U+02E9
ENCODING 745
SWIDTH 480 0
DWIDTH 6 0
BBX 6 13 0 -2
BITMAP
00
00
10
10
10
10
10
10
10
10
10
10
70
ENDCHAR
STARTCHAR U+0374
ENCODING 884
SWIDTH 480 0
DWIDTH 6 0
BBX 6 13 0 -2
BITMAP
00
00
10
20
00
00
00
00
00
00
00
00
00
ENDCHAR
STARTCHAR U+0375
ENCODING 885
SWIDTH 480 0
DWIDTH 6 0
BBX 6 13 0 -2
BITMAP
00
00
00
00
00
00
00
00
00
00
00
10
20
ENDCHAR
STARTCHAR U+037A
ENCODING 890
SWIDTH 480 0
DWIDTH 6 0
BBX 6 13 0 -2
BITMAP
00
00
00
00
00
00
00
00
00
00
00
20
30
ENDCHAR
STARTCHAR U+037E
ENCODING 894
SWIDTH 480 0
DWIDTH 6 0
BBX 6 13 0 -2
BITMAP
00
00
00
00
20
70
20
00
00
60
20
40
00
ENDCHAR
STARTCHAR U+0384
ENCODING 900
SWIDTH 480 0
DWIDTH 6 0
BBX 6 13 0 -2
BITMAP
00
00
10
20
00
00
00
00
00
00
00
00
00
ENDCHAR
STARTCHAR U+0385
ENCODING 901
SWIDTH 480 0
DWIDTH 6 0
BBX 6 13 0 -2
BITMAP
00
10
20
D8
00
00
00
00
00
00
00
00
00
ENDCHAR
STARTCHAR U+0386
ENCODING 902
SWIDTH 480 0
DWIDTH 6 0
BBX 6 13 0 -2
BITMAP
00
00
50
A8
28
28
28
38
28
28
28
00
00
ENDCHAR
STARTCHAR U+0387
ENCODING 903
SWIDTH 480 0
DWIDTH 6 0
BBX 6 13 0 -2
BITMAP
00
00
00
00
20
70
20
00
00
00
00
00
00
ENDCHAR
STARTCHAR U+0388
ENCODING 904
SWIDTH 480 0
DWIDTH 6 0
BBX 6 13 0 -2
BITMAP
00
00
78
A0
20
20
30
20
20
20
38
00
00
ENDCHAR
STARTCHAR U+0389
ENCODING 905
SWIDTH 480 0
DWIDTH 6 0
BBX 6 13 0 -2
BITMAP
00
00
68
A8
28
28
38
28
28
28
28
00
00
ENDCHAR
STARTCHAR U+038A
ENCODING 906
SWIDTH 480 0
DWIDTH 6 0
BBX 6 13 0 -2
BITMAP
00
00
78
90
10
10
10
10
10
10
38
00
00
ENDCHAR
STARTCHAR U+038C
ENCODING 908
SWIDTH 480 0
DWIDTH 6 0
BBX 6 13 0 -2
BITMAP
00
00
50
A8
28
28
28
28
28
28
10
00
00
ENDCHAR
STARTCHAR U+038E
ENCODING 910
SWIDTH 480 0
DWIDTH 6 0
BBX 6 13 0 -2
BITMAP
00
00
68
A8
28
28
10
10
10
10
10
00
00
ENDCHAR
STARTCHAR U+038F
ENCODING 911
SWIDTH 480 0
DWIDTH 6 0
BBX 6 13 0 -2
BITMAP
00
00
50
A8
28
28
28
28
10
10
28
00
00
ENDCHAR
STARTCHAR U+0390
ENCODING 912
SWIDTH 480 0
DWIDTH 6 0
BBX 6 13 0 -2
BITMAP
00
10
20
D8
00
20
20
20
20
20
10
00
00
ENDCHAR
STARTCHAR U+0391
ENCODING 913
SWIDTH 480 0
DWIDTH 6 0
BBX 6 13 0 -2
BITMAP
00
00
20
50
88
88
88
F8
88
88
88
00
00
ENDCHAR
STARTCHAR U+0392
ENCODING 914
SWIDTH 480 0
DWIDTH 6 0
BBX 6 13 0 -2
BITMAP
00
00
F0
48
48
48
70
48
48
48
F0
00
00
ENDCHAR
STARTCHAR U+0393
ENCODING 915
SWIDTH 480 0
DWIDTH 6 0
BBX 6 13 0 -2
BITMAP
00
00
F8
80
80
80
80
80
80
80
80
00
00
ENDCHAR
STARTCHAR U+0394
ENCODING 916
SWIDTH 480 0
DWIDTH 6 0
BBX 6 13 0 -2
BITMAP
00
00
20
20
50
50
50
88
88
88
F8
00
00
ENDCHAR
STARTCHAR U+0395
ENCODING 917
SWIDTH 480 0
DWIDTH 6 0
BBX 6 13 0 -2
BITMAP
00
00
F8
80
80
80
F0
80
80
80
F8
00
00
ENDCHAR
STARTCHAR U+0396
ENCODING 918
SWIDTH 480 0
DWIDTH 6 0
BBX 6 13 0 -2
BITMAP
00
00
F8
08
10
10
20
40
40
80
F8
00
00
ENDCHAR
STARTCHAR U+0397
ENCODING 919
SWIDTH 480 0
DWIDTH 6 0
BBX 6 13 0 -2
BITMAP
00
00
88
88
88
88
F8
88
88
88
88
00
00
ENDCHAR
STARTCHAR U+0398
ENCODING 920
SWIDTH 480 0
DWIDTH 6 0
BBX 6 13 0 -2
BITMAP
00
00
70
88
88
88
F8
88
88
88
70
00
00
ENDCHAR
STARTCHAR U+0399
ENCODING 921
SWIDTH 480 0
DWIDTH 6 0
BBX 6 13 0 -2
BITMAP
00
00
70
20
20
20
20
20
20
20
70
00
00
ENDCHAR
STARTCHAR U+039A
ENCODING 922
SWIDTH 480 0
DWIDTH 6 0
BBX 6 13 0 -2
BITMAP
00
00
88
88
90
A0
C0
A0
90
88
88
00
00
ENDCHAR
STARTCHAR U+039B
ENCODING 923
SWIDTH 480 0
DWIDTH 6 0
BBX 6 13 0 -2
BITMAP
00
00
20
20
50
50
50
88
88
88
88
00
00
ENDCHAR
STARTCHAR U+039C
ENCODING 924
SWIDTH 480 0
DWIDTH 6 0
BBX 6 13 0 -2
BITMAP
00
00
88
88
D8
A8
A8
88
88
88
88
00
00
ENDCHAR
STARTCHAR U+039D
ENCODING 925
SWIDTH 480 0
DWIDTH 6 0
BBX 6 13 0 -2
BITMAP
00
00
88
C8
C8
A8
A8
98
98
88
88
00
00
ENDCHAR
STARTCHAR U+039E
ENCODING 926
SWIDTH 480 0
DWIDTH 6 0
BBX 6 13 0 -2
BITMAP
00
00
F8
00
00
00
70
00
00
00
F8
00
00
ENDCHAR
STARTCHAR U+039F
ENCODING 927
SWIDTH 480 0
DWIDTH 6 0
BBX 6 13 0 -2
BITMAP
00
00
70
88
88
88
88
88
88
88
70
00
00
ENDCHAR
STARTCHAR U+03A0
ENCODING 928
SWIDTH 480 0
DWIDTH 6 0
BBX 6 13 0 -2
BITMAP
00
00
F8
88
88
88
88
88
88
88
88
00
00
ENDCHAR
STARTCHAR U+03A1
ENCODING 929
SWIDTH 480 0
DWIDTH 6 0
BBX 6 13 0 -2
BITMAP
00
00
F0
88
88
88
F0
80
80
80
80
00
00
ENDCHAR
STARTCHAR U+03A3
ENCODING 931
SWIDTH 480 0
DWIDTH 6 0
BBX 6 13 0 -2
BITMAP
00
00
F8
80
40
20
10
20
40
80
F8
00
00
ENDCHAR
STARTCHAR U+03A4
ENCODING 932
SWIDTH 480 0
DWIDTH 6 0
BBX 6 13 0 -2
BITMAP
00
00
F8
20
20
20
20
20
20
20
20
00
00
ENDCHAR
STARTCHAR U+03A5
ENCODING 933
SWIDTH 480 0
DWIDTH 6 0
BBX 6 13 0 -2
BITMAP
00
00
88
88
50
50
20
20
20
20
20
00
00
ENDCHAR
STARTCHAR U+03A6
ENCODING 934
SWIDTH 480 0
DWIDTH 6 0
BBX 6 13 0 -2
BITMAP
00
00
20
70
A8
A8
A8
A8
70
20
20
00
00
ENDCHAR
STARTCHAR U+03A7
ENCODING 935
SWIDTH 480 0
DWIDTH 6 0
BBX 6 13 0 -2
BITMAP
00
00
88
88
50
50
20
50
50
88
88
00
00
ENDCHAR
STARTCHAR U+03A8
ENCODING 936
SWIDTH 480 0
DWIDTH 6 0
BBX 6 13 0 -2
BITMAP
00
00
A8
A8
A8
A8
A8
70
20
20
20
00
00
ENDCHAR
STARTCHAR U+03A9
ENCODING 937
SWIDTH 480 0
DWIDTH 6 0
BBX 6 13 0 -2
BITMAP
00
00
70
88
88
88
88
88
50
50
D8
00
00
ENDCHAR
STARTCHAR U+03AA
ENCODING 938
SWIDTH 480 0
DWIDTH 6 0
BBX 6 13 0 -2
BITMAP
00
D8
00
70
20
20
20
20
20
20
70
00
00
ENDCHAR
STARTCHAR U+03AB
ENCODING 939
SWIDTH 480 0
DWIDTH 6 0
BBX 6 13 0 -2
BITMAP
00
D8
00
88
50
50
20
20
20
20
20
00
00
ENDCHAR
STARTCHAR U+03AC
ENCODING 940
SWIDTH 480 0
DWIDTH 6 0
BBX 6 13 0 -2
BITMAP
00
10
20
00
00
70
88
88
88
98
68
00
00
ENDCHAR
STARTCHAR U+03AD
ENCODING 941
SWIDTH 480 0
DWIDTH 6 0
BBX 6 13 0 -2
BITMAP
00
10
20
00
00
70
88
60
80
88
70
00
00
ENDCHAR
STARTCHAR U+03AE
ENCODING 942
SWIDTH 480 0
DWIDTH 6 0
BBX 6 13 0 -2
BITMAP
00
10
20
00
00
B0
C8
88
88
88
88
08
08
ENDCHAR
STARTCHAR U+03AF
ENCODING 943
SWIDTH 480 0
DWIDTH 6 0
BBX 6 13 0 -2
BITMAP
00
10
20
00
00
20
20
20
20
20
10
00
00
ENDCHAR
STARTCHAR U+03B0
ENCODING 944
SWIDTH 480 0
DWIDTH 6 0
BBX 6 13 0 -2
BITMAP
00
10
20
D8
00
88
88
88
88
88
70
00
00
ENDCHAR
STARTCHAR U+03B1
ENCODING 945
SWIDTH 480 0
DWIDTH 6 0
BBX 6 13 0 -2
BITMAP
00
00
00
00
00
70
88
88
88
98
68
00
00
ENDCHAR
STARTCHAR U+03B2
ENCODING 946
SWIDTH 480 0
DWIDTH 6 0
BBX 6 13 0 -2
BITMAP
00
00
60
90
90
F0
88
88
88
C8
B0
80
80
ENDCHAR
STARTCHAR U+03B3
ENCODING 947
SWIDTH 480 0
DWIDTH 6 0
BBX 6 13 0 -2
BITMAP
00
00
00
00
00
88
88
88
50
50
20
20
20
ENDCHAR
STARTCHAR U+03B4
ENCODING 948
SWIDTH 480 0
DWIDTH 6 0
BBX 6 13 0 -2
BITMAP
00
00
70
88
80
70
88
88
88
88
70
00
00
ENDCHAR
STARTCHAR U+03B5
ENCODING 949
SWIDTH 480 0
DWIDTH 6 0
BBX 6 13 0 -2
BITMAP
00
00
00
00
00
70
88
60
80
88
70
00
00
ENDCHAR
STARTCHAR U+03B6
ENCODING 950
SWIDTH 480 0
DWIDTH 6 0
BBX 6 13 0 -2
BITMAP
00
00
78
10
20
40
40
40
40
40
30
08
10
ENDCHAR
STARTCHAR U+03B7
ENCODING 951
SWIDTH 480 0
DWIDTH 6 0
BBX 6 13 0 -2
BITMAP
00
00
00
00
00
B0
C8
88
88
88
88
08
08
ENDCHAR
STARTCHAR U+03B8
ENCODING 952
SWIDTH 480 0
DWIDTH 6 0
BBX 6 13 0 -2
BITMAP
00
00
30
48
48
48
78
48
48
48
30
00
00
ENDCHAR
STARTCHAR U+03B9
ENCODING 953
SWIDTH 480 0
DWIDTH 6 0
BBX 6 13 0 -2
BITMAP
00
00
00
00
00
20
20
20
20
20
10
00
00
ENDCHAR
STARTCHAR U+03BA
ENCODING 954
SWIDTH 480 0
DWIDTH 6 0
BBX 6 13 0 -2
BITMAP
00
00
00
00
00
88
90
A0
E0
90
88
00
00
ENDCHAR
STARTCHAR U+03BB
ENCODING 955
SWIDTH 480 0
DWIDTH 6 0
BBX 6 13 0 -2
BITMAP
00
00
80
40
40
20
20
50
50
88
88
00
00
ENDCHAR
STARTCHAR U+03BC
ENCODING 956
SWIDTH 480 0
DWIDTH 6 0
BBX 6 13 0 -2
BITMAP
00
00
00
00
00
88
88
88
88
98
E8
80
80
ENDCHAR
STARTCHAR U+03BD
ENCODING 957
SWIDTH 480 0
DWIDTH 6 0
BBX 6 13 0 -2
BITMAP
00
00
00
00
00
88
88
88
50
50
20
00
00
ENDCHAR
STARTCHAR U+03BE
ENCODING 958
SWIDTH 480 0
DWIDTH 6 0
BBX 6 13 0 -2
BITMAP
00
00
78
20
40
40
30
40
40
40
30
08
10
ENDCHAR
STARTCHAR U+03BF
ENCODING 959
SWIDTH 480 0
DWIDTH 6 0
BBX 6 13 0 -2
BITMAP
00
00
00
00
00
70
88
88
88
88
70
00
00
ENDCHAR
STARTCHAR U+03C0
ENCODING 960
SWIDTH 480 0
DWIDTH 6 0
BBX 6 13 0 -2
BITMAP
00
00
00
00
00
F8
50
50
50
50
50
00
00
ENDCHAR
STARTCHAR U+03C1
ENCODING 961
SWIDTH 480 0
DWIDTH 6 0
BBX 6 13 0 -2
BITMAP
00
00
00
00
00
70
88
88
88
88
F0
80
80
ENDCHAR
STARTCHAR U+03C2
ENCODING 962
SWIDTH 480 0
DWIDTH 6 0
BBX 6 13 0 -2
BITMAP
00
00
00
00
00
70
88
80
80
80
70
08
30
ENDCHAR
STARTCHAR U+03C3
ENCODING 963
SWIDTH 480 0
DWIDTH 6 0
BBX 6 13 0 -2
BITMAP
00
00
00
00
00
78
90
88
88
88
70
00
00
ENDCHAR
STARTCHAR U+03C4
ENCODING 964
SWIDTH 480 0
DWIDTH 6 0
BBX 6 13 0 -2
BITMAP
00
00
00
00
00
F8
20
20
20
20
10
00
00
ENDCHAR
STARTCHAR U+03C5
ENCODING 965
SWIDTH 480 0
DWIDTH 6 0
BBX 6 13 0 -2
BITMAP
00
00
00
00
00
88
88
88
88
88
70
00
00
ENDCHAR
STARTCHAR U+03C6
ENCODING 966
SWIDTH 480 0
DWIDTH 6 0
BBX 6 13 0 -2
BITMAP
00
00
00
20
20
70
A8
A8
A8
A8
70
20
20
ENDCHAR
STARTCHAR U+03C7
ENCODING 967
SWIDTH 480 0
DWIDTH 6 0
BBX 6 13 0 -2
BITMAP
00
00
00
00
00
88
50
50
20
20
50
50
88
ENDCHAR
STARTCHAR U+03C8
ENCODING 968
SWIDTH 480 0
DWIDTH 6 0
BBX 6 13 0 -2
BITMAP
00
00
00
00
00
A8
A8
A8
A8
A8
70
20
20
ENDCHAR
STARTCHAR U+03C9
ENCODING 969
SWIDTH 480 0
DWIDTH 6 0
BBX 6 13 0 -2
BITMAP
00
00
00
00
00
88
A8
A8
A8
A8
50
00
00
ENDCHAR
STARTCHAR U+03CA
ENCODING 970
SWIDTH 480 0
DWIDTH 6 0
BBX 6 13 0 -2
BITMAP
00
00
00
D8
00
20
20
20
20
20
10
00
00
ENDCHAR
STARTCHAR U+03CB
ENCODING 971
SWIDTH 480 0
DWIDTH 6 0
BBX 6 13 0 -2
BITMAP
00
00
00
D8
00
88
88
88
88
88
70
00
00
ENDCHAR
STARTCHAR U+03CC
ENCODING 972
SWIDTH 480 0
DWIDTH 6 0
BBX 6 13 0 -2
BITMAP
00
10
20
00
00
70
88
88
88
88
70
00
00
ENDCHAR
STARTCHAR U+03CD
ENCODING 973
SWIDTH 480 0
DWIDTH 6 0
BBX 6 13 0 -2
BITMAP
00
10
20
00
00
88
88
88
88
88
70
00
00
ENDCHAR
STARTCHAR U+03CE
ENCODING 974
SWIDTH 480 0
DWIDTH 6 0
BBX 6 13 0 -2
BITMAP
00
10
20
00
00
88
A8
A8
A8
A8
50
00
00
ENDCHAR
STARTCHAR U+03D0
ENCODING 976
SWIDTH 480 0
DWIDTH 6 0
BBX 6 13 0 -2
BITMAP
00
00
60
90
90
B0
C8
88
88
88
70
00
00
ENDCHAR
STARTCHAR U+03D1
ENCODING 977
SWIDTH 480 0
DWIDTH 6 0
BBX 6 13 0 -2
BITMAP
00
00
30
48
48
3C
08
C8
48
48
30
00
00
ENDCHAR
STARTCHAR U+03D2
ENCODING 978
SWIDTH 480 0
DWIDTH 6 0
BBX 6 13 0 -2
BITMAP
00
00
00
88
54
20
20
20
20
20
20
00
00
ENDCHAR
STARTCHAR U+03D3
ENCODING 979
SWIDTH 480 0
DWIDTH 6 0
BBX 6 13 0 -2
BITMAP
00
00
68
14
50
90
10
10
10
10
10
00
00
ENDCHAR
STARTCHAR U+03D4
ENCODING 980
SWIDTH 480 0
DWIDTH 6 0
BBX 6 13 0 -2
BITMAP
00
D8
00
88
54
20
20
20
20
20
20
00
00
ENDCHAR
STARTCHAR U+03D5
ENCODING 981
SWIDTH 480 0
DWIDTH 6 0
BBX 6 13 0 -2
BITMAP
00
00
00
00
00
B0
A8
A8
A8
A8
70
20
20
ENDCHAR
STARTCHAR U+03D6
ENCODING 982
SWIDTH 480 0
DWIDTH 6 0
BBX 6 13 0 -2
BITMAP
00
00
00
00
00
F8
88
A8
A8
A8
50
00
00
ENDCHAR
STARTCHAR U+03DA
ENCODING 986
SWIDTH 480 0
DWIDTH 6 0
BBX 6 13 0 -2
BITMAP
00
00
70
88
80
80
80
80
80
70
08
08
30
ENDCHAR
STARTCHAR U+03DC
ENCODING 988
SWIDTH 480 0
DWIDTH 6 0
BBX 6 13 0 -2
BITMAP
00
00
F8
80
80
80
E0
80
80
80
80
00
00
ENDCHAR
STARTCHAR U+03DE
ENCODING 990
SWIDTH 480 0
DWIDTH 6 0
BBX 6 13 0 -2
BITMAP
00
00
20
40
40
80
F8
08
10
10
20
00
00
ENDCHAR
STARTCHAR U+03E0
ENCODING 992
SWIDTH 480 0
DWIDTH 6 0
BBX 6 13 0 -2
BITMAP
00
00
70
88
08
18
28
58
A8
48
10
00
00
ENDCHAR
STARTCHAR U+03E2
ENCODING 994
SWIDTH 480 0
DWIDTH 6 0
BBX 6 13 0 -2
BITMAP
00
00
A8
A8
A8
A8
A8
A8
A8
78
08
F0
00
ENDCHAR
STARTCHAR U+03E3
ENCODING 995
SWIDTH 480 0
DWIDTH 6 0
BBX 6 13 0 -2
BITMAP
00
00
00
00
00
A8
A8
A8
A8
78
08
F0
00
ENDCHAR
STARTCHAR U+03E4
ENCODING 996
SWIDTH 480 0
DWIDTH 6 0
BBX 6 13 0 -2
BITMAP
00
00
48
A8
88
88
88
78
08
08
08
00
00
ENDCHAR
STARTCHAR U+03E5
ENCODING 997
SWIDTH 480 0
DWIDTH 6 0
BBX 6 13 0 -2
BITMAP
00
00
00
00
00
48
A8
88
78
08
08
00
00
ENDCHAR
STARTCHAR U+03E6
ENCODING 998
SWIDTH 480 0
DWIDTH 6 0
BBX 6 13 0 -2
BITMAP
00
00
80
80
80
B0
C8
88
88
88
08
F0
00
ENDCHAR
STARTCHAR U+03E7
ENCODING 999
SWIDTH 480 0
DWIDTH 6 0
BBX 6 13 0 -2
BITMAP
00
00
20
20
20
70
A8
A8
48
08
F0
00
00
ENDCHAR
STARTCHAR U+03E8
ENCODING 1000
SWIDTH 480 0
DWIDTH 6 0
BBX 6 13 0 -2
BITMAP
00
00
70
88
48
10
20
40
88
88
70
00
00
ENDCHAR
STARTCHAR U+03E9
ENCODING 1001
SWIDTH 480 0
DWIDTH 6 0
BBX 6 13 0 -2
BITMAP
00
00
00
00
70
88
88
88
70
80
78
00
00
ENDCHAR
STARTCHAR U+03EA
ENCODING 1002
SWIDTH 480 0
DWIDTH 6 0
BBX 6 13 0 -2
BITMAP
00
00
50
A8
20
50
50
50
88
88
F8
00
00
ENDCHAR
STARTCHAR U+03EB
ENCODING 1003
SWIDTH 480 0
DWIDTH 6 0
BBX 6 13 0 -2
BITMAP
00
00
00
00
00
50
A8
20
50
88
F8
00
00
ENDCHAR
STARTCHAR U+03EC
ENCODING 1004
SWIDTH 480 0
DWIDTH 6 0
BBX 6 13 0 -2
BITMAP
00
00
08
70
80
B0
C8
88
88
88
70
00
00
ENDCHAR
STARTCHAR U+03ED
ENCODING 1005
SWIDTH 480 0
DWIDTH 6 0
BBX 6 13 0 -2
BITMAP
00
00
00
00
08
70
80
B0
C8
88
70
00
00
ENDCHAR
STARTCHAR U+03EE
ENCODING 1006
SWIDTH 480 0
DWIDTH 6 0
BBX 6 13 0 -2
BITMAP
00
00
70
20
F8
A8
20
20
20
20
70
00
00
ENDCHAR
STARTCHAR U+03EF
ENCODING 1007
SWIDTH 480 0
DWIDTH 6 0
BBX 6 13 0 -2
BITMAP
00
00
20
30
20
F8
A0
20
20
20
20
60
20
ENDCHAR
STARTCHAR U+03F0
ENCODING 1008
SWIDTH 480 0
DWIDTH 6 0
BBX 6 13 0 -2
BITMAP
00
00
00
00
00
88
48
50
70
50
88
00
00
ENDCHAR
STARTCHAR U+03F1
ENCODING 1009
SWIDTH 480 0
DWIDTH 6 0
BBX 6 13 0 -2
BITMAP
00
00
00
00
00
70
88
88
88
88
F0
80
78
ENDCHAR
STARTCHAR U+03F2
ENCODING 1010
SWIDTH 480 0
DWIDTH 6 0
BBX 6 13 0 -2
BITMAP
00
00
00
00
00
70
88
80
80
88
70
00
00
ENDCHAR
STARTCHAR U+03F3
ENCODING 1011
SWIDTH 480 0
DWIDTH 6 0
BBX 6 13 0 -2
BITMAP
00
00
00
10
00
30
10
10
10
10
90
90
60
ENDCHAR
STARTCHAR U+0401
ENCODING 1025
SWIDTH 480 0
DWIDTH 6 0
BBX 6 13 0 -2
BITMAP
00
50
50
00
F8
80
80
F0
80
80
F8
00
00
ENDCHAR
STARTCHAR U+0402
ENCODING 1026
SWIDTH 480 0
DWIDTH 6 0
BBX 6 13 0 -2
BITMAP
00
00
F8
20
20
30
28
28
28
28
28
08
10
ENDCHAR
STARTCHAR U+0403
ENCODING 1027
SWIDTH 480 0
DWIDTH 6 0
BBX 6 13 0 -2
BITMAP
00
20
40
00
F8
88
80
80
80
80
80
00
00
ENDCHAR
STARTCHAR U+0404
ENCODING 1028
SWIDTH 480 0
DWIDTH 6 0
BBX 6 13 0 -2
BITMAP
00
00
38
40
80
80
F0
80
80
40
38
00
00
ENDCHAR
STARTCHAR U+0405
ENCODING 1029
SWIDTH 480 0
DWIDTH 6 0
BBX 6 13 0 -2
BITMAP
00
00
70
88
80
80
70
08
08
88
70
00
00
ENDCHAR
STARTCHAR U+0406
ENCODING 1030
SWIDTH 480 0
DWIDTH 6 0
BBX 6 13 0 -2
BITMAP
00
00
70
20
20
20
20
20
20
20
70
00
00
ENDCHAR
STARTCHAR U+0407
ENCODING 1031
SWIDTH 480 0
DWIDTH 6 0
BBX 6 13 0 -2
BITMAP
00
50
50
00
F8
20
20
20
20
20
F8
00
00
ENDCHAR
STARTCHAR U+0408
ENCODING 1032
SWIDTH 480 0
DWIDTH 6 0
BBX 6 13 0 -2
BITMAP
00
00
38
10
10
10
10
10
10
90
60
00
00
ENDCHAR
STARTCHAR U+0409
ENCODING 1033
SWIDTH 480 0
DWIDTH 6 0
BBX 6 13 0 -2
BITMAP
00
00
E0
A0
A0
A0
B0
A8
A8
A8
B0
00
00
ENDCHAR
STARTCHAR U+040A
ENCODING 1034
SWIDTH 480 0
DWIDTH 6 0
BBX 6 13 0 -2
BITMAP
00
00
A0
A0
A0
A0
F0
A8
A8
A8
B0
00
00
ENDCHAR
STARTCHAR U+040B
ENCODING 1035
SWIDTH 480 0
DWIDTH 6 0
BBX 6 13 0 -2
BITMAP
00
00
F8
20
20
30
28
28
28
28
28
00
00
ENDCHAR
STARTCHAR U+040C
ENCODING 1036
SWIDTH 480 0
DWIDTH 6 0
BBX 6 13 0 -2
BITMAP
10
20
88
88
90
A0
C0
A0
90
88
88
00
00
ENDCHAR
STARTCHAR U+040E
ENCODING 1038
SWIDTH 480 0
DWIDTH 6 0
BBX 6 13 0 -2
BITMAP
00
88
70
00
88
88
88
78
08
08
70
00
00
ENDCHAR
STARTCHAR U+040F
ENCODING 1039
SWIDTH 480 0
DWIDTH 6 0
BBX 6 13 0 -2
BITMAP
00
00
88
88
88
88
88
88
88
88
F8
20
20
ENDCHAR
STARTCHAR U+0410
ENCODING 1040
SWIDTH 480 0
DWIDTH 6 0
BBX 6 13 0 -2
BITMAP
00
00
20
50
88
88
88
F8
88
88
88
00
00
ENDCHAR
STARTCHAR U+0411
ENCODING 1041
SWIDTH 480 0
DWIDTH 6 0
BBX 6 13 0 -2
BITMAP
00
00
F0
80
80
80
F0
88
88
88
F0
00
00
ENDCHAR
STARTCHAR U+0412
ENCODING 1042
SWIDTH 480 0
DWIDTH 6 0
BBX 6 13 0 -2
BITMAP
00
00
F0
88
88
88
F0
88
88
88
F0
00
00
ENDCHAR
STARTCHAR U+0413
ENCODING 1043
SWIDTH 480 0
DWIDTH 6 0
BBX 6 13 0 -2
BITMAP
00
00
F8
88
80
80
80
80
80
80
80
00
00
ENDCHAR
STARTCHAR U+0414
ENCODING 1044
SWIDTH 480 0
DWIDTH 6 0
BBX 6 13 0 -2
BITMAP
00
00
30
50
50
50
50
50
50
50
F8
88
00
ENDCHAR
STARTCHAR U+0415
ENCODING 1045
SWIDTH 480 0
DWIDTH 6 0
BBX 6 13 0 -2
BITMAP
00
00
F8
80
80
80
F0
80
80
80
F8
00
00
ENDCHAR
STARTCHAR U+0416
ENCODING 1046
SWIDTH 480 0
DWIDTH 6 0
BBX 6 13 0 -2
BITMAP
00
00
A8
A8
A8
70
20
70
A8
A8
A8
00
00
ENDCHAR
STARTCHAR U+0417
ENCODING 1047
SWIDTH 480 0
DWIDTH 6 0
BBX 6 13 0 -2
BITMAP
00
00
70
88
08
08
30
08
08
88
70
00
00
ENDCHAR
STARTCHAR U+0418
ENCODING 1048
SWIDTH 480 0
DWIDTH 6 0
BBX 6 13 0 -2
BITMAP
00
00
88
88
98
98
A8
A8
C8
C8
88
00
00
ENDCHAR
STARTCHAR U+0419
ENCODING 1049
SWIDTH 480 0
DWIDTH 6 0
BBX 6 13 0 -2
BITMAP
00
88
70
00
88
98
98
A8
C8
C8
88
00
00
ENDCHAR
STARTCHAR U+041A
ENCODING 1050
SWIDTH 480 0
DWIDTH 6 0
BBX 6 13 0 -2
BITMAP
00
00
88
88
90
A0
C0
A0
90
88
88
00
00
ENDCHAR
STARTCHAR U+041B
ENCODING 1051
SWIDTH 480 0
DWIDTH 6 0
BBX 6 13 0 -2
BITMAP
00
00
38
48
48
48
48
48
48
88
88
00
00
ENDCHAR
STARTCHAR U+041C
ENCODING 1052
SWIDTH 480 0
DWIDTH 6 0
BBX 6 13 0 -2
BITMAP
00
00
88
D8
D8
A8
A8
88
88
88
88
00
00
ENDCHAR
STARTCHAR U+041D
ENCODING 1053
SWIDTH 480 0
DWIDTH 6 0
BBX 6 13 0 -2
BITMAP
00
00
88
88
88
88
F8
88
88
88
88
00
00
ENDCHAR
STARTCHAR U+041E
ENCODING 1054
SWIDTH 480 0
DWIDTH 6 0
BBX 6 13 0 -2
BITMAP
00
00
70
88
88
88
88
88
88
88
70
00
00
ENDCHAR
STARTCHAR U+041F
ENCODING 1055
SWIDTH 480 0
DWIDTH 6 0
BBX 6 13 0 -2
BITMAP
00
00
F8
88
88
88
88
88
88
88
88
00
00
ENDCHAR
STARTCHAR U+0420
ENCODING 1056
SWIDTH 480 0
DWIDTH 6 0
BBX 6 13 0 -2
BITMAP
00
00
F0
88
88
88
88
F0
80
80
80
00
00
ENDCHAR
STARTCHAR U+0421
ENCODING 1057
SWIDTH 480 0
DWIDTH 6 0
BBX 6 13 0 -2
BITMAP
00
00
70
88
80
80
80
80
80
88
70
00
00
ENDCHAR
STARTCHAR U+0422
ENCODING 1058
SWIDTH 480 0
DWIDTH 6 0
BBX 6 13 0 -2
BITMAP
00
00
F8
20
20
20
20
20
20
20
20
00
00
ENDCHAR
STARTCHAR U+0423
ENCODING 1059
SWIDTH 480 0
DWIDTH 6 0
BBX 6 13 0 -2
BITMAP
00
00
88
88
88
88
88
78
08
08
70
00
00
ENDCHAR
STARTCHAR U+0424
ENCODING 1060
SWIDTH 480 0
DWIDTH 6 0
BBX 6 13 0 -2
BITMAP
00
00
20
70
A8
A8
A8
A8
70
20
20
00
00
ENDCHAR
STARTCHAR U+0425
ENCODING 1061
SWIDTH 480 0
DWIDTH 6 0
BBX 6 13 0 -2
BITMAP
00
00
88
88
50
50
20
50
50
88
88
00
00
ENDCHAR
STARTCHAR U+0426
ENCODING 1062
SWIDTH 480 0
DWIDTH 6 0
BBX 6 13 0 -2
BITMAP
00
00
90
90
90
90
90
90
90
90
F8
08
08
ENDCHAR
STARTCHAR U+0427
ENCODING 1063
SWIDTH 480 0
DWIDTH 6 0
BBX 6 13 0 -2
BITMAP
00
00
88
88
88
88
78
08
08
08
08
00
00
ENDCHAR
STARTCHAR U+0428
ENCODING 1064
SWIDTH 480 0
DWIDTH 6 0
BBX 6 13 0 -2
BITMAP
00
00
A8
A8
A8
A8
A8
A8
A8
A8
F8
00
00
ENDCHAR
STARTCHAR U+0429
ENCODING 1065
SWIDTH 480 0
DWIDTH 6 0
BBX 6 13 0 -2
BITMAP
00
00
A8
A8
A8
A8
A8
A8
A8
A8
F8
08
08
ENDCHAR
STARTCHAR U+042A
ENCODING 1066
SWIDTH 480 0
DWIDTH 6 0
BBX 6 13 0 -2
BITMAP
00
00
C0
40
40
40
70
48
48
48
70
00
00
ENDCHAR
STARTCHAR U+042B
ENCODING 1067
SWIDTH 480 0
DWIDTH 6 0
BBX 6 13 0 -2
BITMAP
00
00
88
88
88
C8
A8
A8
A8
A8
C8
00
00
ENDCHAR
STARTCHAR U+042C
ENCODING 1068
SWIDTH 480 0
DWIDTH 6 0
BBX 6 13 0 -2
BITMAP
00
00
80
80
80
80
F0
88
88
88
F0
00
00
ENDCHAR
STARTCHAR U+042D
ENCODING 1069
SWIDTH 480 0
DWIDTH 6 0
BBX 6 13 0 -2
BITMAP
00
00
E0
10
08
08
78
08
08
10
E0
00
00
ENDCHAR
STARTCHAR U+042E
ENCODING 1070
SWIDTH 480 0
DWIDTH 6 0
BBX 6 13 0 -2
BITMAP
00
00
90
A8
A8
A8
E8
A8
A8
A8
90
00
00
ENDCHAR
STARTCHAR U+042F
ENCODING 1071
SWIDTH 480 0
DWIDTH 6 0
BBX 6 13 0 -2
BITMAP
00
00
78
88
88
88
78
28
48
88
88
00
00
ENDCHAR
STARTCHAR U+0430
ENCODING 1072
SWIDTH 480 0
DWIDTH 6 0
BBX 6 13 0 -2
BITMAP
00
00
00
00
00
70
08
78
88
88
78
00
00
ENDCHAR
STARTCHAR U+0431
ENCODING 1073
SWIDTH 480 0
DWIDTH 6 0
BBX 6 13 0 -2
BITMAP
00
00
00
70
80
80
F0
88
88
88
70
00
00
ENDCHAR
STARTCHAR U+0432
ENCODING 1074
SWIDTH 480 0
DWIDTH 6 0
BBX 6 13 0 -2
BITMAP
00
00
00
00
00
F0
88
F0
88
88
F0
00
00
ENDCHAR
STARTCHAR U+0433
ENCODING 1075
SWIDTH 480 0
DWIDTH 6 0
BBX 6 13 0 -2
BITMAP
00
00
00
00
00
F8
88
80
80
80
80
00
00
ENDCHAR
STARTCHAR U+0434
ENCODING 1076
SWIDTH 480 0
DWIDTH 6 0
BBX 6 13 0 -2
BITMAP
00
00
00
00
00
30
50
50
50
50
F8
88
00
ENDCHAR
STARTCHAR U+0435
ENCODING 1077
SWIDTH 480 0
DWIDTH 6 0
BBX 6 13 0 -2
BITMAP
00
00
00
00
00
70
88
F8
80
88
70
00
00
ENDCHAR
STARTCHAR U+0436
ENCODING 1078
SWIDTH 480 0
DWIDTH 6 0
BBX 6 13 0 -2
BITMAP
00
00
00
00
00
A8
A8
70
70
A8
A8
00
00
ENDCHAR
STARTCHAR U+0437
ENCODING 1079
SWIDTH 480 0
DWIDTH 6 0
BBX 6 13 0 -2
BITMAP
00
00
00
00
00
70
88
30
08
88
70
00
00
ENDCHAR
STARTCHAR U+0438
ENCODING 1080
SWIDTH 480 0
DWIDTH 6 0
BBX 6 13 0 -2
BITMAP
00
00
00
00
00
88
88
98
A8
C8
88
00
00
ENDCHAR
STARTCHAR U+0439
ENCODING 1081
SWIDTH 480 0
DWIDTH 6 0
BBX 6 13 0 -2
BITMAP
00
88
70
00
00
88
88
98
A8
C8
88
00
00
ENDCHAR
STARTCHAR U+043A
ENCODING 1082
SWIDTH 480 0
DWIDTH 6 0
BBX 6 13 0 -2
BITMAP
00
00
00
00
00
88
90
E0
90
88
88
00
00
ENDCHAR
STARTCHAR U+043B
ENCODING 1083
SWIDTH 480 0
DWIDTH 6 0
BBX 6 13 0 -2
BITMAP
00
00
00
00
00
38
48
48
48
48
88
00
00
ENDCHAR
STARTCHAR U+043C
ENCODING 1084
SWIDTH 480 0
DWIDTH 6 0
BBX 6 13 0 -2
BITMAP
00
00
00
00
00
88
D8
A8
A8
88
88
00
00
ENDCHAR
STARTCHAR U+043D
ENCODING 1085
SWIDTH 480 0
DWIDTH 6 0
BBX 6 13 0 -2
BITMAP
00
00
00
00
00
88
88
F8
88
88
88
00
00
ENDCHAR
STARTCHAR U+043E
ENCODING 1086
SWIDTH 480 0
DWIDTH 6 0
BBX 6 13 0 -2
BITMAP
00
00
00
00
00
70
88
88
88
88
70
00
00
ENDCHAR
STARTCHAR U+043F
ENCODING 1087
SWIDTH 480 0
DWIDTH 6 0
BBX 6 13 0 -2
BITMAP
00
00
00
00
00
F8
88
88
88
88
88
00
00
ENDCHAR
STARTCHAR U+0440
ENCODING 1088
SWIDTH 480 0
DWIDTH 6 0
BBX 6 13 0 -2
BITMAP
00
00
00
00
00
F0
88
88
88
F0
80
80
80
ENDCHAR
STARTCHAR U+0441
ENCODING 1089
SWIDTH 480 0
DWIDTH 6 0
BBX 6 13 0 -2
BITMAP
00
00
00
00
00
70
88
80
80
88
70
00
00
ENDCHAR
STARTCHAR U+0442
ENCODING 1090
SWIDTH 480 0
DWIDTH 6 0
BBX 6 13 0 -2
BITMAP
00
00
00
00
00
F8
A8
20
20
20
20
00
00
ENDCHAR
STARTCHAR U+0443
ENCODING 1091
SWIDTH 480 0
DWIDTH 6 0
BBX 6 13 0 -2
BITMAP
00
00
00
00
00
88
88
88
98
68
08
88
70
ENDCHAR
STARTCHAR U+0444
ENCODING 1092
SWIDTH 480 0
DWIDTH 6 0
BBX 6 13 0 -2
BITMAP
00
00
00
20
20
70
A8
A8
A8
A8
70
20
20
ENDCHAR
STARTCHAR U+0445
ENCODING 1093
SWIDTH 480 0
DWIDTH 6 0
BBX 6 13 0 -2
BITMAP
00
00
00
00
00
88
50
20
50
88
88
00
00
ENDCHAR
STARTCHAR U+0446
ENCODING 1094
SWIDTH 480 0
DWIDTH 6 0
BBX 6 13 0 -2
BITMAP
00
00
00
00
00
90
90
90
90
90
F8
08
08
ENDCHAR
STARTCHAR U+0447
ENCODING 1095
SWIDTH 480 0
DWIDTH 6 0
BBX 6 13 0 -2
BITMAP
00
00
00
00
00
88
88
88
78
08
08
00
00
ENDCHAR
STARTCHAR U+0448
ENCODING 1096
SWIDTH 480 0
DWIDTH 6 0
BBX 6 13 0 -2
BITMAP
00
00
00
00
00
A8
A8
A8
A8
A8
F8
00
00
ENDCHAR
STARTCHAR U+0449
ENCODING 1097
SWIDTH 480 0
DWIDTH 6 0
BBX 6 13 0 -2
BITMAP
00
00
00
00
00
A8
A8
A8
A8
A8
F8
08
08
ENDCHAR
STARTCHAR U+044A
ENCODING 1098
SWIDTH 480 0
DWIDTH 6 0
BBX 6 13 0 -2
BITMAP
00
00
00
00
00
C0
40
70
48
48
70
00
00
ENDCHAR
STARTCHAR U+044B
ENCODING 1099
SWIDTH 480 0
DWIDTH 6 0
BBX 6 13 0 -2
BITMAP
00
00
00
00
00
88
88
C8
A8
A8
C8
00
00
ENDCHAR
STARTCHAR U+044C
ENCODING 1100
SWIDTH 480 0
DWIDTH 6 0
BBX 6 13 0 -2
BITMAP
00
00
00
00
00
80
80
F0
88
88
F0
00
00
ENDCHAR
STARTCHAR U+044D
ENCODING 1101
SWIDTH 480 0
DWIDTH 6 0
BBX 6 13 0 -2
BITMAP
00
00
00
00
00
F0
08
38
08
08
F0
00
00
ENDCHAR
STARTCHAR U+044E
ENCODING 1102
SWIDTH 480 0
DWIDTH 6 0
BBX 6 13 0 -2
BITMAP
00
00
00
00
00
90
A8
A8
E8
A8
90
00
00
ENDCHAR
STARTCHAR U+044F
ENCODING 1103
SWIDTH 480 0
DWIDTH 6 0
BBX 6 13 0 -2
BITMAP
00
00
00
00
00
78
88
88
78
48
88
00
00
ENDCHAR
STARTCHAR U+0451
ENCODING 1105
SWIDTH 480 0
DWIDTH 6 0
BBX 6 13 0 -2
BITMAP
00
50
50
00
00
70
88
F8
80
88
70
00
00
ENDCHAR
STARTCHAR U+0452
ENCODING 1106
SWIDTH 480 0
DWIDTH 6 0
BBX 6 13 0 -2
BITMAP
00
00
40
E0
40
50
68
48
48
48
48
08
10
ENDCHAR
STARTCHAR U+0453
ENCODING 1107
SWIDTH 480 0
DWIDTH 6 0
BBX 6 13 0 -2
BITMAP
00
00
20
40
00
F8
88
80
80
80
80
00
00
ENDCHAR
STARTCHAR U+0454
ENCODING 1108
SWIDTH 480 0
DWIDTH 6 0
BBX 6 13 0 -2
BITMAP
00
00
00
00
00
78
80
E0
80
80
78
00
00
ENDCHAR
STARTCHAR U+0455
ENCODING 1109
SWIDTH 480 0
DWIDTH 6 0
BBX 6 13 0 -2
BITMAP
00
00
00
00
00
70
88
60
10
88
70
00
00
ENDCHAR
STARTCHAR U+0456
ENCODING 1110
SWIDTH 480 0
DWIDTH 6 0
BBX 6 13 0 -2
BITMAP
00
00
00
20
00
60
20
20
20
20
70
00
00
ENDCHAR
STARTCHAR U+0457
ENCODING 1111
SWIDTH 480 0
DWIDTH 6 0
BBX 6 13 0 -2
BITMAP
00
50
50
00
00
60
20
20
20
20
F8
00
00
ENDCHAR
STARTCHAR U+0458
ENCODING 1112
SWIDTH 480 0
DWIDTH 6 0
BBX 6 13 0 -2
BITMAP
00
00
00
10
00
30
10
10
10
10
90
90
60
ENDCHAR
STARTCHAR U+0459
ENCODING 1113
SWIDTH 480 0
DWIDTH 6 0
BBX 6 13 0 -2
BITMAP
00
00
00
00
00
E0
A0
B0
A8
A8
B0
00
00
ENDCHAR
STARTCHAR U+045A
ENCODING 1114
SWIDTH 480 0
DWIDTH 6 0
BBX 6 13 0 -2
BITMAP
00
00
00
00
00
A0
A0
F0
A8
A8
B0
00
00
ENDCHAR
STARTCHAR U+045B
ENCODING 1115
SWIDTH 480 0
DWIDTH 6 0
BBX 6 13 0 -2
BITMAP
00
00
40
E0
40
50
68
48
48
48
48
00
00
ENDCHAR
STARTCHAR U+045C
ENCODING 1116
SWIDTH 480 0
DWIDTH 6 0
BBX 6 13 0 -2
BITMAP
00
00
20
40
00
88
90
E0
90
88
88
00
00
ENDCHAR
STARTCHAR U+045E
ENCODING 1118
SWIDTH 480 0
DWIDTH 6 0
BBX 6 13 0 -2
BITMAP
00
88
70
00
00
88
88
88
98
68
08
88
70
ENDCHAR
STARTCHAR U+045F
ENCODING 1119
SWIDTH 480 0
DWIDTH 6 0
BBX 6 13 0 -2
BITMAP
00
00
00
00
00
88
88
88
88
88
F8
20
20
ENDCHAR
STARTCHAR U+0460
ENCODING 1120
SWIDTH 480 0
DWIDTH 6 0
BBX 6 13 0 -2
BITMAP
00
00
50
88
88
88
A8
A8
A8
A8
50
00
00
ENDCHAR
STARTCHAR U+0461
ENCODING 1121
SWIDTH 480 0
DWIDTH 6 0
BBX 6 13 0 -2
BITMAP
00
00
00
00
00
50
88
A8
A8
A8
50
00
00
ENDCHAR
STARTCHAR U+0462
ENCODING 1122
SWIDTH 480 0
DWIDTH 6 0
BBX 6 13 0 -2
BITMAP
00
00
40
F0
40
40
70
48
48
48
70
00
00
ENDCHAR
STARTCHAR U+0463
ENCODING 1123
SWIDTH 480 0
DWIDTH 6 0
BBX 6 13 0 -2
BITMAP
00
00
40
40
40
E0
40
70
48
48
70
00
00
ENDCHAR
STARTCHAR U+0464
ENCODING 1124
SWIDTH 480 0
DWIDTH 6 0
BBX 6 13 0 -2
BITMAP
00
00
98
A0
A0
A0
F8
A0
A0
A0
98
00
00
ENDCHAR
STARTCHAR U+0465
ENCODING 1125
SWIDTH 480 0
DWIDTH 6 0
BBX 6 13 0 -2
BITMAP
00
00
00
00
00
98
A0
F8
A0
A0
98
00
00
ENDCHAR
STARTCHAR U+0466
ENCODING 1126
SWIDTH 480 0
DWIDTH 6 0
BBX 6 13 0 -2
BITMAP
00
00
20
20
50
50
50
88
A8
A8
A8
00
00
ENDCHAR
STARTCHAR U+0467
ENCODING 1127
SWIDTH 480 0
DWIDTH 6 0
BBX 6 13 0 -2
BITMAP
00
00
00
00
00
20
50
50
88
A8
A8
00
00
ENDCHAR
STARTCHAR U+0468
ENCODING 1128
SWIDTH 480 0
DWIDTH 6 0
BBX 6 13 0 -2
BITMAP
00
00
90
90
90
B8
F8
B8
B8
B8
B8
00
00
ENDCHAR
STARTCHAR U+0469
ENCODING 1129
SWIDTH 480 0
DWIDTH 6 0
BBX 6 13 0 -2
BITMAP
00
00
00
00
00
90
90
F8
B8
B8
B8
00
00
ENDCHAR
STARTCHAR U+046A
ENCODING 1130
SWIDTH 480 0
DWIDTH 6 0
BBX 6 13 0 -2
BITMAP
00
00
F8
88
50
50
70
A8
A8
A8
A8
00
00
ENDCHAR
STARTCHAR U+046B
ENCODING 1131
SWIDTH 480 0
DWIDTH 6 0
BBX 6 13 0 -2
BITMAP
00
00
00
00
00
F8
50
50
70
A8
A8
00
00
ENDCHAR
STARTCHAR U+046C
ENCODING 1132
SWIDTH 480 0
DWIDTH 6 0
BBX 6 13 0 -2
BITMAP
00
00
B8
A8
A8
A8
F0
B8
D4
D4
D4
00
00
ENDCHAR
STARTCHAR U+046D
ENCODING 1133
SWIDTH 480 0
DWIDTH 6 0
BBX 6 13 0 -2
BITMAP
00
00
00
00
00
B8
A8
90
F8
B8
B8
00
00
ENDCHAR
STARTCHAR U+046E
ENCODING 1134
SWIDTH 480 0
DWIDTH 6 0
BBX 6 13 0 -2
BITMAP
00
48
30
00
70
88
08
30
08
08
70
80
70
ENDCHAR
STARTCHAR U+046F
ENCODING 1135
SWIDTH 480 0
DWIDTH 6 0
BBX 6 13 0 -2
BITMAP
00
48
30
00
00
70
88
30
08
08
70
80
70
ENDCHAR
STARTCHAR U+0470
ENCODING 1136
SWIDTH 480 0
DWIDTH 6 0
BBX 6 13 0 -2
BITMAP
00
00
A8
A8
A8
A8
A8
70
20
20
20
00
00
ENDCHAR
STARTCHAR U+0471
ENCODING 1137
SWIDTH 480 0
DWIDTH 6 0
BBX 6 13 0 -2
BITMAP
00
00
00
00
00
A8
A8
A8
A8
A8
70
20
20
ENDCHAR
STARTCHAR U+0472
ENCODING 1138
SWIDTH 480 0
DWIDTH 6 0
BBX 6 13 0 -2
BITMAP
00
00
70
88
88
88
F8
88
88
88
70
00
00
ENDCHAR
STARTCHAR U+0473
ENCODING 1139
SWIDTH 480 0
DWIDTH 6 0
BBX 6 13 0 -2
BITMAP
00
00
00
00
00
30
48
78
48
48
30
00
00
ENDCHAR
STARTCHAR U+0474
ENCODING 1140
SWIDTH 480 0
DWIDTH 6 0
BBX 6 13 0 -2
BITMAP
00
00
98
90
90
90
50
50
50
20
20
00
00
ENDCHAR
STARTCHAR U+0475
ENCODING 1141
SWIDTH 480 0
DWIDTH 6 0
BBX 6 13 0 -2
BITMAP
00
00
00
00
00
98
90
90
50
50
20
00
00
ENDCHAR
STARTCHAR U+0476
ENCODING 1142
SWIDTH 480 0
DWIDTH 6 0
BBX 6 13 0 -2
BITMAP
00
90
48
00
9C
90
90
50
50
20
20
00
00
ENDCHAR
STARTCHAR U+0477
ENCODING 1143
SWIDTH 480 0
DWIDTH 6 0
BBX 6 13 0 -2
BITMAP
00
90
48
00
00
98
90
90
50
50
20
00
00
ENDCHAR
STARTCHAR U+0478
ENCODING 1144
SWIDTH 480 0
DWIDTH 6 0
BBX 6 13 0 -2
BITMAP
00
00
40
A0
A0
B8
B8
B8
B8
B8
58
08
10
ENDCHAR
STARTCHAR U+0479
ENCODING 1145
SWIDTH 480 0
DWIDTH 6 0
BBX 6 13 0 -2
BITMAP
00
00
00
00
00
58
B8
B8
B8
B8
58
08
10
ENDCHAR
STARTCHAR U+047A
ENCODING 1146
SWIDTH 480 0
DWIDTH 6 0
BBX 6 13 0 -2
BITMAP
00
20
70
A8
88
88
88
88
88
A8
70
20
00
ENDCHAR
STARTCHAR U+047B
ENCODING 1147
SWIDTH 480 0
DWIDTH 6 0
BBX 6 13 0 -2
BITMAP
00
00
00
00
20
70
A8
88
88
A8
70
20
00
ENDCHAR
STARTCHAR U+047C
ENCODING 1148
SWIDTH 480 0
DWIDTH 6 0
BBX 6 13 0 -2
BITMAP
60
98
60
00
50
88
A8
A8
A8
A8
50
00
00
ENDCHAR
STARTCHAR U+047D
ENCODING 1149
SWIDTH 480 0
DWIDTH 6 0
BBX 6 13 0 -2
BITMAP
60
98
60
00
00
50
88
A8
A8
A8
50
00
00
ENDCHAR
STARTCHAR U+047E
ENCODING 1150
SWIDTH 480 0
DWIDTH 6 0
BBX 6 13 0 -2
BITMAP
00
F8
A8
00
50
88
A8
A8
A8
A8
50
00
00
ENDCHAR
STARTCHAR U+047F
ENCODING 1151
SWIDTH 480 0
DWIDTH 6 0
BBX 6 13 0 -2
BITMAP
00
F8
A8
00
00
50
88
A8
A8
A8
50
00
00
ENDCHAR
STARTCHAR U+0480
ENCODING 1152
SWIDTH 480 0
DWIDTH 6 0
BBX 6 13 0 -2
BITMAP
00
00
70
88
88
80
80
80
80
80
70
10
10
ENDCHAR
STARTCHAR U+0481
ENCODING 1153
SWIDTH 480 0
DWIDTH 6 0
BBX 6 13 0 -2
BITMAP
00
00
00
00
00
70
88
80
80
70
10
10
00
ENDCHAR
STARTCHAR U+0482
ENCODING 1154
SWIDTH 480 0
DWIDTH 6 0
BBX 6 13 0 -2
BITMAP
00
00
00
28
10
B0
48
40
A0
00
00
00
00
ENDCHAR
STARTCHAR U+0490
ENCODING 1168
SWIDTH 480 0
DWIDTH 6 0
BBX 6 13 0 -2
BITMAP
00
08
F8
80
80
80
80
80
80
80
80
00
00
ENDCHAR
STARTCHAR U+0491
ENCODING 1169
SWIDTH 480 0
DWIDTH 6 0
BBX 6 13 0 -2
BITMAP
00
00
00
00
08
F8
80
80
80
80
80
00
00
ENDCHAR
STARTCHAR U+0492
ENCODING 1170
SWIDTH 480 0
DWIDTH 6 0
BBX 6 13 0 -2
BITMAP
00
00
78
48
40
40
E0
40
40
40
40
00
00
ENDCHAR
STARTCHAR U+0493
ENCODING 1171
SWIDTH 480 0
DWIDTH 6 0
BBX 6 13 0 -2
BITMAP
00
00
00
00
00
78
48
E0
40
40
40
00
00
ENDCHAR
STARTCHAR U+0494
ENCODING 1172
SWIDTH 480 0
DWIDTH 6 0
BBX 6 13 0 -2
BITMAP
00
00
F8
80
80
80
F0
88
88
88
88
10
00
ENDCHAR
STARTCHAR U+0495
ENCODING 1173
SWIDTH 480 0
DWIDTH 6 0
BBX 6 13 0 -2
BITMAP
00
00
00
00
00
F8
80
F0
88
88
88
10
00
ENDCHAR
STARTCHAR U+0496
ENCODING 1174
SWIDTH 480 0
DWIDTH 6 0
BBX 6 13 0 -2
BITMAP
00
00
A8
A8
A8
70
20
70
A8
A8
AC
04
04
ENDCHAR
STARTCHAR U+0497
ENCODING 1175
SWIDTH 480 0
DWIDTH 6 0
BBX 6 13 0 -2
BITMAP
00
00
00
00
00
A8
A8
70
70
A8
AC
04
04
ENDCHAR
STARTCHAR U+0498
ENCODING 1176
SWIDTH 480 0
DWIDTH 6 0
BBX 6 13 0 -2
BITMAP
00
00
70
88
08
08
30
08
08
88
70
20
40
ENDCHAR
STARTCHAR U+0499
ENCODING 1177
SWIDTH 480 0
DWIDTH 6 0
BBX 6 13 0 -2
BITMAP
00
00
00
00
00
70
88
30
08
88
70
20
40
ENDCHAR
STARTCHAR U+049A
ENCODING 1178
SWIDTH 480 0
DWIDTH 6 0
BBX 6 13 0 -2
BITMAP
00
00
90
90
A0
A0
C0
A0
90
90
98
08
08
ENDCHAR
STARTCHAR U+049B
ENCODING 1179
SWIDTH 480 0
DWIDTH 6 0
BBX 6 13 0 -2
BITMAP
00
00
00
00
00
90
A0
C0
A0
90
98
08
08
ENDCHAR
STARTCHAR U+049C
ENCODING 1180
SWIDTH 480 0
DWIDTH 6 0
BBX 6 13 0 -2
BITMAP
00
00
88
A8
B0
A0
E0
A0
B0
A8
88
00
00
ENDCHAR
STARTCHAR U+049D
ENCODING 1181
SWIDTH 480 0
DWIDTH 6 0
BBX 6 13 0 -2
BITMAP
00
00
00
00
00
A8
B0
E0
B0
A8
88
00
00
ENDCHAR
STARTCHAR U+049E
ENCODING 1182
SWIDTH 480 0
DWIDTH 6 0
BBX 6 13 0 -2
BITMAP
00
00
48
E8
50
60
60
60
50
48
48
00
00
ENDCHAR
STARTCHAR U+049F
ENCODING 1183
SWIDTH 480 0
DWIDTH 6 0
BBX 6 13 0 -2
BITMAP
00
00
40
40
E0
48
50
60
50
48
48
00
00
ENDCHAR
STARTCHAR U+04A0
ENCODING 1184
SWIDTH 480 0
DWIDTH 6 0
BBX 6 13 0 -2
BITMAP
00
00
C8
48
50
60
60
60
50
48
48
00
00
ENDCHAR
STARTCHAR U+04A1
ENCODING 1185
SWIDTH 480 0
DWIDTH 6 0
BBX 6 13 0 -2
BITMAP
00
00
00
00
00
C8
50
60
50
48
48
00
00
ENDCHAR
STARTCHAR U+04A2
ENCODING 1186
SWIDTH 480 0
DWIDTH 6 0
BBX 6 13 0 -2
BITMAP
00
00
90
90
90
90
F0
90
90
90
98
08
08
ENDCHAR
STARTCHAR U+04A3
ENCODING 1187
SWIDTH 480 0
DWIDTH 6 0
BBX 6 13 0 -2
BITMAP
00
00
00
00
00
90
90
F0
90
90
98
08
08
ENDCHAR
STARTCHAR U+04A4
ENCODING 1188
SWIDTH 480 0
DWIDTH 6 0
BBX 6 13 0 -2
BITMAP
00
00
98
90
90
90
F0
90
90
90
90
00
00
ENDCHAR
STARTCHAR U+04A5
ENCODING 1189
SWIDTH 480 0
DWIDTH 6 0
BBX 6 13 0 -2
BITMAP
00
00
00
00
00
98
90
F0
90
90
90
00
00
ENDCHAR
STARTCHAR U+04A6
ENCODING 1190
SWIDTH 480 0
DWIDTH 6 0
BBX 6 13 0 -2
BITMAP
00
00
E0
A0
A0
A0
B0
A8
A8
A8
A8
08
10
ENDCHAR
STARTCHAR U+04A7
ENCODING 1191
SWIDTH 480 0
DWIDTH 6 0
BBX 6 13 0 -2
BITMAP
00
00
00
00
00
E0
A0
B0
A8
A8
A8
08
10
ENDCHAR
STARTCHAR U+04A8
ENCODING 1192
SWIDTH 480 0
DWIDTH 6 0
BBX 6 13 0 -2
BITMAP
00
00
70
88
80
90
A8
A8
A8
70
20
18
00
ENDCHAR
STARTCHAR U+04A9
ENCODING 1193
SWIDTH 480 0
DWIDTH 6 0
BBX 6 13 0 -2
BITMAP
00
00
00
00
00
70
80
90
A8
70
20
18
00
ENDCHAR
STARTCHAR U+04AA
ENCODING 1194
SWIDTH 480 0
DWIDTH 6 0
BBX 6 13 0 -2
BITMAP
00
00
70
88
80
80
80
80
80
88
70
20
10
ENDCHAR
STARTCHAR U+04AB
ENCODING 1195
SWIDTH 480 0
DWIDTH 6 0
BBX 6 13 0 -2
BITMAP
00
00
00
00
00
70
88
80
80
88
70
20
10
ENDCHAR
STARTCHAR U+04AC
ENCODING 1196
SWIDTH 480 0
DWIDTH 6 0
BBX 6 13 0 -2
BITMAP
00
00
F8
20
20
20
20
20
20
20
30
10
10
ENDCHAR
STARTCHAR U+04AD
ENCODING 1197
SWIDTH 480 0
DWIDTH 6 0
BBX 6 13 0 -2
BITMAP
00
00
00
00
00
F8
A8
20
20
20
30
10
10
ENDCHAR
STARTCHAR U+04AE
ENCODING 1198
SWIDTH 480 0
DWIDTH 6 0
BBX 6 13 0 -2
BITMAP
00
00
88
88
50
50
20
20
20
20
20
00
00
ENDCHAR
STARTCHAR U+04AF
ENCODING 1199
SWIDTH 480 0
DWIDTH 6 0
BBX 6 13 0 -2
BITMAP
00
00
00
00
00
88
88
50
50
20
20
20
20
ENDCHAR
STARTCHAR U+04B0
ENCODING 1200
SWIDTH 480 0
DWIDTH 6 0
BBX 6 13 0 -2
BITMAP
00
00
88
88
50
50
20
F8
20
20
20
00
00
ENDCHAR
STARTCHAR U+04B1
ENCODING 1201
SWIDTH 480 0
DWIDTH 6 0
BBX 6 13 0 -2
BITMAP
00
00
00
00
00
88
88
50
50
20
F8
20
20
ENDCHAR
STARTCHAR U+04B2
ENCODING 1202
SWIDTH 480 0
DWIDTH 6 0
BBX 6 13 0 -2
BITMAP
00
00
88
88
50
50
20
50
50
88
8C
04
04
ENDCHAR
STARTCHAR U+04B3
ENCODING 1203
SWIDTH 480 0
DWIDTH 6 0
BBX 6 13 0 -2
BITMAP
00
00
00
00
00
88
50
20
50
88
8C
04
04
ENDCHAR
STARTCHAR U+04B4
ENCODING 1204
SWIDTH 480 0
DWIDTH 6 0
BBX 6 13 0 -2
BITMAP
00
00
E8
48
48
48
48
48
48
48
78
08
08
ENDCHAR
STARTCHAR U+04B5
ENCODING 1205
SWIDTH 480 0
DWIDTH 6 0
BBX 6 13 0 -2
BITMAP
00
00
00
00
00
E8
48
48
48
48
78
08
08
ENDCHAR
STARTCHAR U+04B6
ENCODING 1206
SWIDTH 480 0
DWIDTH 6 0
BBX 6 13 0 -2
BITMAP
00
00
90
90
90
90
90
70
10
10
18
08
08
ENDCHAR
STARTCHAR U+04B7
ENCODING 1207
SWIDTH 480 0
DWIDTH 6 0
BBX 6 13 0 -2
BITMAP
00
00
00
00
00
90
90
90
70
10
18
08
08
ENDCHAR
STARTCHAR U+04B8
ENCODING 1208
SWIDTH 480 0
DWIDTH 6 0
BBX 6 13 0 -2
BITMAP
00
00
88
88
88
A8
A8
78
28
28
08
00
00
ENDCHAR
STARTCHAR U+04B9
ENCODING 1209
SWIDTH 480 0
DWIDTH 6 0
BBX 6 13 0 -2
BITMAP
00
00
00
00
00
88
88
A8
78
28
08
00
00
ENDCHAR
STARTCHAR U+04BA
ENCODING 1210
SWIDTH 480 0
DWIDTH 6 0
BBX 6 13 0 -2
BITMAP
00
00
80
80
80
F0
88
88
88
88
88
00
00
ENDCHAR
STARTCHAR U+04BB
ENCODING 1211
SWIDTH 480 0
DWIDTH 6 0
BBX 6 13 0 -2
BITMAP
00
00
80
80
80
80
E0
90
90
90
90
00
00
ENDCHAR
STARTCHAR U+04BC
ENCODING 1212
SWIDTH 480 0
DWIDTH 6 0
BBX 6 13 0 -2
BITMAP
00
00
30
48
48
48
F8
40
40
48
30
00
00
ENDCHAR
STARTCHAR U+04BD
ENCODING 1213
SWIDTH 480 0
DWIDTH 6 0
BBX 6 13 0 -2
BITMAP
00
00
00
00
00
30
48
F8
40
48
30
00
00
ENDCHAR
STARTCHAR U+04BE
ENCODING 1214
SWIDTH 480 0
DWIDTH 6 0
BBX 6 13 0 -2
BITMAP
00
00
30
48
48
48
F8
40
40
48
30
20
10
ENDCHAR
STARTCHAR U+04BF
ENCODING 1215
SWIDTH 480 0
DWIDTH 6 0
BBX 6 13 0 -2
BITMAP
00
00
00
00
00
30
48
F8
40
48
30
20
10
ENDCHAR
STARTCHAR U+04C0
ENCODING 1216
SWIDTH 480 0
DWIDTH 6 0
BBX 6 13 0 -2
BITMAP
00
00
70
20
20
20
20
20
20
20
70
00
00
ENDCHAR
STARTCHAR U+04C1
ENCODING 1217
SWIDTH 480 0
DWIDTH 6 0
BBX 6 13 0 -2
BITMAP
88
70
00
A8
A8
A8
70
70
A8
A8
A8
00
00
ENDCHAR
STARTCHAR U+04C2
ENCODING 1218
SWIDTH 480 0
DWIDTH 6 0
BBX 6 13 0 -2
BITMAP
00
88
70
00
00
A8
A8
70
70
A8
A8
00
00
ENDCHAR
STARTCHAR U+04C3
ENCODING 1219
SWIDTH 480 0
DWIDTH 6 0
BBX 6 13 0 -2
BITMAP
00
00
88
88
90
A0
C0
A0
90
88
88
08
30
ENDCHAR
STARTCHAR U+04C4
ENCODING 1220
SWIDTH 480 0
DWIDTH 6 0
BBX 6 13 0 -2
BITMAP
00
00
00
00
00
88
90
E0
90
88
88
08
30
ENDCHAR
STARTCHAR U+04C7
ENCODING 1223
SWIDTH 480 0
DWIDTH 6 0
BBX 6 13 0 -2
BITMAP
00
00
88
88
88
88
F8
88
88
88
88
08
30
ENDCHAR
STARTCHAR U+04C8
ENCODING 1224
SWIDTH 480 0
DWIDTH 6 0
BBX 6 13 0 -2
BITMAP
00
00
00
00
00
88
88
F8
88
88
88
08
30
ENDCHAR
STARTCHAR U+04CB
ENCODING 1227
SWIDTH 480 0
DWIDTH 6 0
BBX 6 13 0 -2
BITMAP
00
00
88
88
88
88
88
78
08
08
18
10
10
ENDCHAR
STARTCHAR U+04CC
ENCODING 1228
SWIDTH 480 0
DWIDTH 6 0
BBX 6 13 0 -2
BITMAP
00
00
00
00
00
88
88
88
78
08
18
10
10
ENDCHAR
STARTCHAR U+04D0
ENCODING 1232
SWIDTH 480 0
DWIDTH 6 0
BBX 6 13 0 -2
BITMAP
00
88
70
00
20
50
88
88
F8
88
88
00
00
ENDCHAR
STARTCHAR U+04D1
ENCODING 1233
SWIDTH 480 0
DWIDTH 6 0
BBX 6 13 0 -2
BITMAP
00
88
70
00
00
70
08
78
88
98
68
00
00
ENDCHAR
STARTCHAR U+04D2
ENCODING 1234
SWIDTH 480 0
DWIDTH 6 0
BBX 6 13 0 -2
BITMAP
00
50
50
00
20
50
88
88
F8
88
88
00
00
ENDCHAR
STARTCHAR U+04D3
ENCODING 1235
SWIDTH 480 0
DWIDTH 6 0
BBX 6 13 0 -2
BITMAP
00
50
50
00
00
70
08
78
88
98
68
00
00
ENDCHAR
STARTCHAR U+04D4
ENCODING 1236
SWIDTH 480 0
DWIDTH 6 0
BBX 6 13 0 -2
BITMAP
00
00
58
A0
A0
A0
B0
E0
A0
A0
B8
00
00
ENDCHAR
STARTCHAR U+04D5
ENCODING 1237
SWIDTH 480 0
DWIDTH 6 0
BBX 6 13 0 -2
BITMAP
00
00
00
00
00
70
28
70
A0
A8
50
00
00
ENDCHAR
STARTCHAR U+04D6
ENCODING 1238
SWIDTH 480 0
DWIDTH 6 0
BBX 6 13 0 -2
BITMAP
00
88
70
00
F8
80
80
F0
80
80
F8
00
00
ENDCHAR
STARTCHAR U+04D7
ENCODING 1239
SWIDTH 480 0
DWIDTH 6 0
BBX 6 13 0 -2
BITMAP
00
88
70
00
00
70
88
F8
80
88
70
00
00
ENDCHAR
STARTCHAR U+04D8
ENCODING 1240
SWIDTH 480 0
DWIDTH 6 0
BBX 6 13 0 -2
BITMAP
00
00
70
88
08
08
F8
88
88
88
70
00
00
ENDCHAR
STARTCHAR U+04D9
ENCODING 1241
SWIDTH 480 0
DWIDTH 6 0
BBX 6 13 0 -2
BITMAP
00
00
00
00
00
70
88
08
F8
88
70
00
00
ENDCHAR
STARTCHAR U+04DA
ENCODING 1242
SWIDTH 480 0
DWIDTH 6 0
BBX 6 13 0 -2
BITMAP
00
50
50
00
70
88
08
F8
88
88
70
00
00
ENDCHAR
STARTCHAR U+04DB
ENCODING 1243
SWIDTH 480 0
DWIDTH 6 0
BBX 6 13 0 -2
BITMAP
00
50
50
00
00
70
88
08
F8
88
70
00
00
ENDCHAR
STARTCHAR U+04DC
ENCODING 1244
SWIDTH 480 0
DWIDTH 6 0
BBX 6 13 0 -2
BITMAP
00
50
50
00
A8
A8
70
20
70
A8
A8
00
00
ENDCHAR
STARTCHAR U+04DD
ENCODING 1245
SWIDTH 480 0
DWIDTH 6 0
BBX 6 13 0 -2
BITMAP
00
50
50
00
00
A8
A8
70
70
A8
A8
00
00
ENDCHAR
STARTCHAR U+04DE
ENCODING 1246
SWIDTH 480 0
DWIDTH 6 0
BBX 6 13 0 -2
BITMAP
00
50
50
00
70
88
08
30
08
88
70
00
00
ENDCHAR
STARTCHAR U+04DF
ENCODING 1247
SWIDTH 480 0
DWIDTH 6 0
BBX 6 13 0 -2
BITMAP
00
50
50
00
00
70
88
30
08
88
70
00
00
ENDCHAR
STARTCHAR U+04E0
ENCODING 1248
SWIDTH 480 0
DWIDTH 6 0
BBX 6 13 0 -2
BITMAP
00
00
F8
08
10
20
70
08
08
88
70
00
00
ENDCHAR
STARTCHAR U+04E1
ENCODING 1249
SWIDTH 480 0
DWIDTH 6 0
BBX 6 13 0 -2
BITMAP
00
00
00
00
00
F8
10
20
70
08
08
88
70
ENDCHAR
STARTCHAR U+04E2
ENCODING 1250
SWIDTH 480 0
DWIDTH 6 0
BBX 6 13 0 -2
BITMAP
00
00
F8
00
88
98
98
A8
C8
C8
88
00
00
ENDCHAR
STARTCHAR U+04E3
ENCODING 1251
SWIDTH 480 0
DWIDTH 6 0
BBX 6 13 0 -2
BITMAP
00
00
F8
00
00
88
88
98
A8
C8
88
00
00
ENDCHAR
STARTCHAR U+04E4
ENCODING 1252
SWIDTH 480 0
DWIDTH 6 0
BBX 6 13 0 -2
BITMAP
00
50
50
00
88
98
98
A8
C8
C8
88
00
00
ENDCHAR
STARTCHAR U+04E5
ENCODING 1253
SWIDTH 480 0
DWIDTH 6 0
BBX 6 13 0 -2
BITMAP
00
50
50
00
00
88
88
98
A8
C8
88
00
00
ENDCHAR
STARTCHAR U+04E6
ENCODING 1254
SWIDTH 480 0
DWIDTH 6 0
BBX 6 13 0 -2
BITMAP
00
50
50
00
70
88
88
88
88
88
70
00
00
ENDCHAR
STARTCHAR U+04E7
ENCODING 1255
SWIDTH 480 0
DWIDTH 6 0
BBX 6 13 0 -2
BITMAP
00
50
50
00
00
70
88
88
88
88
70
00
00
ENDCHAR
STARTCHAR U+04E8
ENCODING 1256
SWIDTH 480 0
DWIDTH 6 0
BBX 6 13 0 -2
BITMAP
00
00
70
88
88
E8
B8
88
88
88
70
00
00
ENDCHAR
STARTCHAR U+04E9
ENCODING 1257
SWIDTH 480 0
DWIDTH 6 0
BBX 6 13 0 -2
BITMAP
00
00
00
00
00
70
88
E8
B8
88
70
00
00
ENDCHAR
STARTCHAR U+04EA
ENCODING 1258
SWIDTH 480 0
DWIDTH 6 0
BBX 6 13 0 -2
BITMAP
00
50
50
00
70
88
E8
B8
88
88
70
00
00
ENDCHAR
STARTCHAR U+04EB
ENCODING 1259
SWIDTH 480 0
DWIDTH 6 0
BBX 6 13 0 -2
BITMAP
00
50
50
00
00
70
88
E8
B8
88
70
00
00
ENDCHAR
STARTCHAR U+04EE
ENCODING 1262
SWIDTH 480 0
DWIDTH 6 0
BBX 6 13 0 -2
BITMAP
00
00
F8
00
88
88
98
68
08
88
70
00
00
ENDCHAR
STARTCHAR U+04EF
ENCODING 1263
SWIDTH 480 0
DWIDTH 6 0
BBX 6 13 0 -2
BITMAP
00
00
F8
00
00
88
88
88
98
68
08
88
70
ENDCHAR
STARTCHAR U+04F0
ENCODING 1264
SWIDTH 480 0
DWIDTH 6 0
BBX 6 13 0 -2
BITMAP
00
50
50
00
88
88
98
68
08
88
70
00
00
ENDCHAR
STARTCHAR U+04F1
ENCODING 1265
SWIDTH 480 0
DWIDTH 6 0
BBX 6 13 0 -2
BITMAP
00
50
50
00
00
88
88
88
98
68
08
88
70
ENDCHAR
STARTCHAR U+04F2
ENCODING 1266
SWIDTH 480 0
DWIDTH 6 0
BBX 6 13 0 -2
BITMAP
00
48
90
00
88
88
98
68
08
88
70
00
00
ENDCHAR
STARTCHAR U+04F3
ENCODING 1267
SWIDTH 480 0
DWIDTH 6 0
BBX 6 13 0 -2
BITMAP
00
48
90
00
00
88
88
88
98
68
08
88
70
ENDCHAR
STARTCHAR U+04F4
ENCODING 1268
SWIDTH 480 0
DWIDTH 6 0
BBX 6 13 0 -2
BITMAP
00
50
50
00
88
88
88
78
08
08
08
00
00
ENDCHAR
STARTCHAR U+04F5
ENCODING 1269
SWIDTH 480 0
DWIDTH 6 0
BBX 6 13 0 -2
BITMAP
00
50
50
00
00
88
88
88
78
08
08
00
00
ENDCHAR
STARTCHAR U+04F8
ENCODING 1272
SWIDTH 480 0
DWIDTH 6 0
BBX 6 13 0 -2
BITMAP
00
50
50
00
88
88
C8
A8
A8
A8
C8
00
00
ENDCHAR
STARTCHAR U+04F9
ENCODING 1273
SWIDTH 480 0
DWIDTH 6 0
BBX 6 13 0 -2
BITMAP
00
50
50
00
00
88
88
C8
A8
A8
C8
00
00
ENDCHAR
STARTCHAR U+0531
ENCODING 1329
SWIDTH 480 0
DWIDTH 6 0
BBX 6 13 0 -2
BITMAP
00
00
A0
A0
A0
A0
A0
A0
A0
B0
48
00
00
ENDCHAR
STARTCHAR U+0532
ENCODING 1330
SWIDTH 480 0
DWIDTH 6 0
BBX 6 13 0 -2
BITMAP
00
00
70
88
88
80
F0
88
80
80
80
00
00
ENDCHAR
STARTCHAR U+0533
ENCODING 1331
SWIDTH 480 0
DWIDTH 6 0
BBX 6 13 0 -2
BITMAP
00
00
40
A0
A0
A0
70
28
20
20
20
00
00
ENDCHAR
STARTCHAR U+0534
ENCODING 1332
SWIDTH 480 0
DWIDTH 6 0
BBX 6 13 0 -2
BITMAP
00
00
40
A0
A0
20
30
28
20
20
20
00
00
ENDCHAR
STARTCHAR U+0535
ENCODING 1333
SWIDTH 480 0
DWIDTH 6 0
BBX 6 13 0 -2
BITMAP
00
00
80
80
F0
88
80
80
88
88
70
00
00
ENDCHAR
STARTCHAR U+0536
ENCODING 1334
SWIDTH 480 0
DWIDTH 6 0
BBX 6 13 0 -2
BITMAP
00
00
60
90
90
90
70
10
A0
F0
88
00
00
ENDCHAR
STARTCHAR U+0537
ENCODING 1335
SWIDTH 480 0
DWIDTH 6 0
BBX 6 13 0 -2
BITMAP
00
00
80
80
80
F0
88
80
80
80
70
08
10
ENDCHAR
STARTCHAR U+0538
ENCODING 1336
SWIDTH 480 0
DWIDTH 6 0
BBX 6 13 0 -2
BITMAP
00
00
60
90
90
80
80
80
80
80
F0
08
00
ENDCHAR
STARTCHAR U+0539
ENCODING 1337
SWIDTH 480 0
DWIDTH 6 0
BBX 6 13 0 -2
BITMAP
00
00
60
90
90
B8
D0
D0
A0
80
80
00
00
ENDCHAR
STARTCHAR U+053A
ENCODING 1338
SWIDTH 480 0
DWIDTH 6 0
BBX 6 13 0 -2
BITMAP
00
00
10
10
10
10
78
90
90
90
60
00
00
ENDCHAR
STARTCHAR U+053B
ENCODING 1339
SWIDTH 480 0
DWIDTH 6 0
BBX 6 13 0 -2
BITMAP
00
00
80
80
80
F0
88
88
80
80
80
00
00
ENDCHAR
STARTCHAR U+053C
ENCODING 1340
SWIDTH 480 0
DWIDTH 6 0
BBX 6 13 0 -2
BITMAP
00
00
80
80
80
80
80
80
80
80
70
08
10
ENDCHAR
STARTCHAR U+053D
ENCODING 1341
SWIDTH 480 0
DWIDTH 6 0
BBX 6 13 0 -2
BITMAP
00
00
80
80
E8
A8
A8
90
80
80
80
00
00
ENDCHAR
STARTCHAR U+053E
ENCODING 1342
SWIDTH 480 0
DWIDTH 6 0
BBX 6 13 0 -2
BITMAP
00
00
F8
70
88
88
88
88
88
88
70
00
00
ENDCHAR
STARTCHAR U+053F
ENCODING 1343
SWIDTH 480 0
DWIDTH 6 0
BBX 6 13 0 -2
BITMAP
00
00
80
80
88
88
88
88
78
08
08
00
00
ENDCHAR
STARTCHAR U+0540
ENCODING 1344
SWIDTH 480 0
DWIDTH 6 0
BBX 6 13 0 -2
BITMAP
00
00
10
20
10
20
40
80
C0
30
08
00
00
ENDCHAR
STARTCHAR U+0541
ENCODING 1345
SWIDTH 480 0
DWIDTH 6 0
BBX 6 13 0 -2
BITMAP
00
00
30
48
48
48
38
08
70
90
68
00
00
ENDCHAR
STARTCHAR U+0542
ENCODING 1346
SWIDTH 480 0
DWIDTH 6 0
BBX 6 13 0 -2
BITMAP
00
00
40
A0
A0
20
20
20
20
20
30
08
00
ENDCHAR
STARTCHAR U+0543
ENCODING 1347
SWIDTH 480 0
DWIDTH 6 0
BBX 6 13 0 -2
BITMAP
00
00
20
10
10
E0
50
50
88
88
F8
00
00
ENDCHAR
STARTCHAR U+0544
ENCODING 1348
SWIDTH 480 0
DWIDTH 6 0
BBX 6 13 0 -2
BITMAP
00
00
B8
A8
A0
A0
A0
A0
A0
A0
40
00
00
ENDCHAR
STARTCHAR U+0545
ENCODING 1349
SWIDTH 480 0
DWIDTH 6 0
BBX 6 13 0 -2
BITMAP
00
00
70
88
88
28
30
28
88
88
70
00
00
ENDCHAR
STARTCHAR U+0546
ENCODING 1350
SWIDTH 480 0
DWIDTH 6 0
BBX 6 13 0 -2
BITMAP
00
00
40
80
C0
40
40
40
40
48
30
00
00
ENDCHAR
STARTCHAR U+0547
ENCODING 1351
SWIDTH 480 0
DWIDTH 6 0
BBX 6 13 0 -2
BITMAP
00
00
08
F0
40
80
88
88
88
88
70
00
00
ENDCHAR
STARTCHAR U+0548
ENCODING 1352
SWIDTH 480 0
DWIDTH 6 0
BBX 6 13 0 -2
BITMAP
00
00
70
88
88
88
88
88
88
88
88
00
00
ENDCHAR
STARTCHAR U+0549
ENCODING 1353
SWIDTH 480 0
DWIDTH 6 0
BBX 6 13 0 -2
BITMAP
00
00
70
88
88
88
78
10
10
20
F8
00
00
ENDCHAR
STARTCHAR U+054A
ENCODING 1354
SWIDTH 480 0
DWIDTH 6 0
BBX 6 13 0 -2
BITMAP
00
00
70
A8
A8
A8
28
28
08
08
08
00
00
ENDCHAR
STARTCHAR U+054B
ENCODING 1355
SWIDTH 480 0
DWIDTH 6 0
BBX 6 13 0 -2
BITMAP
00
00
60
90
90
90
50
30
A0
F0
88
00
00
ENDCHAR
STARTCHAR U+054C
ENCODING 1356
SWIDTH 480 0
DWIDTH 6 0
BBX 6 13 0 -2
BITMAP
00
00
40
A0
A0
B0
A8
A8
A0
A0
A0
00
00
ENDCHAR
STARTCHAR U+054D
ENCODING 1357
SWIDTH 480 0
DWIDTH 6 0
BBX 6 13 0 -2
BITMAP
00
00
88
88
88
88
88
88
88
88
70
00
00
ENDCHAR
STARTCHAR U+054E
ENCODING 1358
SWIDTH 480 0
DWIDTH 6 0
BBX 6 13 0 -2
BITMAP
00
00
20
20
A0
A0
A0
A0
60
20
30
08
00
ENDCHAR
STARTCHAR U+054F
ENCODING 1359
SWIDTH 480 0
DWIDTH 6 0
BBX 6 13 0 -2
BITMAP
00
00
70
88
80
80
70
08
08
88
70
00
00
ENDCHAR
STARTCHAR U+0550
ENCODING 1360
SWIDTH 480 0
DWIDTH 6 0
BBX 6 13 0 -2
BITMAP
00
00
70
88
88
80
80
80
80
80
80
00
00
ENDCHAR
STARTCHAR U+0551
ENCODING 1361
SWIDTH 480 0
DWIDTH 6 0
BBX 6 13 0 -2
BITMAP
00
00
70
88
88
70
88
08
08
88
70
00
00
ENDCHAR
STARTCHAR U+0552
ENCODING 1362
SWIDTH 480 0
DWIDTH 6 0
BBX 6 13 0 -2
BITMAP
00
00
80
80
80
E0
90
90
88
80
80
00
00
ENDCHAR
STARTCHAR U+0553
ENCODING 1363
SWIDTH 480 0
DWIDTH 6 0
BBX 6 13 0 -2
BITMAP
00
00
20
70
A8
A8
A8
A8
70
20
00
00
00
ENDCHAR
STARTCHAR U+0554
ENCODING 1364
SWIDTH 480 0
DWIDTH 6 0
BBX 6 13 0 -2
BITMAP
00
00
10
28
28
30
A0
70
28
20
20
00
00
ENDCHAR
STARTCHAR U+0555
ENCODING 1365
SWIDTH 480 0
DWIDTH 6 0
BBX 6 13 0 -2
BITMAP
00
00
70
88
88
88
88
88
88
88
70
00
00
ENDCHAR
STARTCHAR U+0556
ENCODING 1366
SWIDTH 480 0
DWIDTH 6 0
BBX 6 13 0 -2
BITMAP
00
00
40
A0
A0
70
28
28
A8
A8
70
00
00
ENDCHAR
STARTCHAR U+0559
ENCODING 1369
SWIDTH 480 0
DWIDTH 6 0
BBX 6 13 0 -2
BITMAP
00
20
40
40
20
00
00
00
00
00
00
00
00
ENDCHAR
STARTCHAR U+055A
ENCODING 1370
SWIDTH 480 0
DWIDTH 6 0
BBX 6 13 0 -2
BITMAP
00
00
30
10
20
00
00
00
00
00
00
00
00
ENDCHAR
STARTCHAR U+055B
ENCODING 1371
SWIDTH 480 0
DWIDTH 6 0
BBX 6 13 0 -2
BITMAP
00
00
10
20
00
00
00
00
00
00
00
00
00
ENDCHAR
STARTCHAR U+055C
ENCODING 1372
SWIDTH 480 0
DWIDTH 6 0
BBX 6 13 0 -2
BITMAP
00
08
70
80
00
00
00
00
00
00
00
00
00
ENDCHAR
STARTCHAR U+055D
ENCODING 1373
SWIDTH 480 0
DWIDTH 6 0
BBX 6 13 0 -2
BITMAP
00
00
20
10
00
00
00
00
00
00
00
00
00
ENDCHAR
STARTCHAR U+055E
ENCODING 1374
SWIDTH 480 0
DWIDTH 6 0
BBX 6 13 0 -2
BITMAP
00
00
70
88
A8
A8
90
00
00
00
00
00
00
ENDCHAR
STARTCHAR U+055F
ENCODING 1375
SWIDTH 480 0
DWIDTH 6 0
BBX 6 13 0 -2
BITMAP
00
00
C0
88
70
00
00
00
00
00
00
00
00
ENDCHAR
STARTCHAR U+0561
ENCODING 1377
SWIDTH 480 0
DWIDTH 6 0
BBX 6 13 0 -2
BITMAP
00
00
00
00
00
88
A8
A8
A8
A8
58
00
00
ENDCHAR
STARTCHAR U+0562
ENCODING 1378
SWIDTH 480 0
DWIDTH 6 0
BBX 6 13 0 -2
BITMAP
00
00
00
00
00
F0
88
88
88
80
F8
80
80
ENDCHAR
STARTCHAR U+0563
ENCODING 1379
SWIDTH 480 0
DWIDTH 6 0
BBX 6 13 0 -2
BITMAP
00
00
00
00
00
70
90
90
90
90
78
10
10
ENDCHAR
STARTCHAR U+0564
ENCODING 1380
SWIDTH 480 0
DWIDTH 6 0
BBX 6 13 0 -2
BITMAP
00
00
00
00
00
A0
D0
90
90
90
98
10
10
ENDCHAR
STARTCHAR U+0565
ENCODING 1381
SWIDTH 480 0
DWIDTH 6 0
BBX 6 13 0 -2
BITMAP
00
00
80
80
80
F8
80
88
88
C8
B0
00
00
ENDCHAR
STARTCHAR U+0566
ENCODING 1382
SWIDTH 480 0
DWIDTH 6 0
BBX 6 13 0 -2
BITMAP
00
00
00
00
00
70
90
90
90
90
70
10
18
ENDCHAR
STARTCHAR U+0567
ENCODING 1383
SWIDTH 480 0
DWIDTH 6 0
BBX 6 13 0 -2
BITMAP
00
00
80
80
F8
80
80
80
80
80
70
08
00
ENDCHAR
STARTCHAR U+0568
ENCODING 1384
SWIDTH 480 0
DWIDTH 6 0
BBX 6 13 0 -2
BITMAP
00
00
00
00
00
B0
C8
88
88
88
88
80
F8
ENDCHAR
STARTCHAR U+0569
ENCODING 1385
SWIDTH 480 0
DWIDTH 6 0
BBX 6 13 0 -2
BITMAP
00
00
00
00
00
A0
D0
90
B8
D0
A0
80
80
ENDCHAR
STARTCHAR U+056A
ENCODING 1386
SWIDTH 480 0
DWIDTH 6 0
BBX 6 13 0 -2
BITMAP
00
00
10
10
10
78
90
90
90
90
60
00
00
ENDCHAR
STARTCHAR U+056B
ENCODING 1387
SWIDTH 480 0
DWIDTH 6 0
BBX 6 13 0 -2
BITMAP
00
00
80
80
80
A0
D0
90
90
90
90
80
80
ENDCHAR
STARTCHAR U+056C
ENCODING 1388
SWIDTH 480 0
DWIDTH 6 0
BBX 6 13 0 -2
BITMAP
00
00
00
00
00
C0
40
40
40
40
40
40
30
ENDCHAR
STARTCHAR U+056D
ENCODING 1389
SWIDTH 480 0
DWIDTH 6 0
BBX 6 13 0 -2
BITMAP
00
00
80
80
80
E8
A8
A8
A8
A8
90
80
80
ENDCHAR
STARTCHAR U+056E
ENCODING 1390
SWIDTH 480 0
DWIDTH 6 0
BBX 6 13 0 -2
BITMAP
00
00
00
80
40
20
78
90
90
90
60
00
00
ENDCHAR
STARTCHAR U+056F
ENCODING 1391
SWIDTH 480 0
DWIDTH 6 0
BBX 6 13 0 -2
BITMAP
00
00
80
80
80
80
88
88
88
88
78
08
08
ENDCHAR
STARTCHAR U+0570
ENCODING 1392
SWIDTH 480 0
DWIDTH 6 0
BBX 6 13 0 -2
BITMAP
00
00
80
80
80
B0
C8
88
88
88
88
00
00
ENDCHAR
STARTCHAR U+0571
ENCODING 1393
SWIDTH 480 0
DWIDTH 6 0
BBX 6 13 0 -2
BITMAP
00
00
20
40
20
78
88
88
88
88
78
00
00
ENDCHAR
STARTCHAR U+0572
ENCODING 1394
SWIDTH 480 0
DWIDTH 6 0
BBX 6 13 0 -2
BITMAP
00
00
00
00
00
A0
D0
90
90
90
90
10
18
ENDCHAR
STARTCHAR U+0573
ENCODING 1395
SWIDTH 480 0
DWIDTH 6 0
BBX 6 13 0 -2
BITMAP
00
00
30
48
40
F8
48
48
48
58
28
00
00
ENDCHAR
STARTCHAR U+0574
ENCODING 1396
SWIDTH 480 0
DWIDTH 6 0
BBX 6 13 0 -2
BITMAP
00
00
08
10
10
90
90
90
90
B0
50
00
00
ENDCHAR
STARTCHAR U+0575
ENCODING 1397
SWIDTH 480 0
DWIDTH 6 0
BBX 6 13 0 -2
BITMAP
00
00
00
00
00
18
08
08
08
08
88
88
70
ENDCHAR
STARTCHAR U+0576
ENCODING 1398
SWIDTH 480 0
DWIDTH 6 0
BBX 6 13 0 -2
BITMAP
00
00
70
88
80
98
88
88
88
98
68
00
00
ENDCHAR
STARTCHAR U+0577
ENCODING 1399
SWIDTH 480 0
DWIDTH 6 0
BBX 6 13 0 -2
BITMAP
00
00
00
00
00
30
48
08
08
10
20
40
38
ENDCHAR
STARTCHAR U+0578
ENCODING 1400
SWIDTH 480 0
DWIDTH 6 0
BBX 6 13 0 -2
BITMAP
00
00
00
00
00
B0
C8
88
88
88
88
00
00
ENDCHAR
STARTCHAR U+0579
ENCODING 1401
SWIDTH 480 0
DWIDTH 6 0
BBX 6 13 0 -2
BITMAP
00
00
20
40
20
20
40
40
80
80
F8
00
00
ENDCHAR
STARTCHAR U+057A
ENCODING 1402
SWIDTH 480 0
DWIDTH 6 0
BBX 6 13 0 -2
BITMAP
00
00
00
00
00
88
A8
A8
A8
A8
58
08
08
ENDCHAR
STARTCHAR U+057B
ENCODING 1403
SWIDTH 480 0
DWIDTH 6 0
BBX 6 13 0 -2
BITMAP
00
00
00
00
00
70
88
88
88
50
20
40
38
ENDCHAR
STARTCHAR U+057C
ENCODING 1404
SWIDTH 480 0
DWIDTH 6 0
BBX 6 13 0 -2
BITMAP
00
00
00
00
00
A0
D0
90
90
90
98
00
00
ENDCHAR
STARTCHAR U+057D
ENCODING 1405
SWIDTH 480 0
DWIDTH 6 0
BBX 6 13 0 -2
BITMAP
00
00
00
00
00
88
88
88
88
98
68
00
00
ENDCHAR
STARTCHAR U+057E
ENCODING 1406
SWIDTH 480 0
DWIDTH 6 0
BBX 6 13 0 -2
BITMAP
00
00
10
10
10
90
90
90
90
90
70
10
18
ENDCHAR
STARTCHAR U+057F
ENCODING 1407
SWIDTH 480 0
DWIDTH 6 0
BBX 6 13 0 -2
BITMAP
00
00
00
00
00
B0
A8
A8
A8
A8
68
00
00
ENDCHAR
STARTCHAR U+0580
ENCODING 1408
SWIDTH 480 0
DWIDTH 6 0
BBX 6 13 0 -2
BITMAP
00
00
00
00
B0
C8
88
88
88
88
88
80
80
ENDCHAR
STARTCHAR U+0581
ENCODING 1409
SWIDTH 480 0
DWIDTH 6 0
BBX 6 13 0 -2
BITMAP
00
00
00
00
00
70
88
88
88
78
08
88
70
ENDCHAR
STARTCHAR U+0582
ENCODING 1410
SWIDTH 480 0
DWIDTH 6 0
BBX 6 13 0 -2
BITMAP
00
00
00
00
00
60
20
20
20
20
18
00
00
ENDCHAR
STARTCHAR U+0583
ENCODING 1411
SWIDTH 480 0
DWIDTH 6 0
BBX 6 13 0 -2
BITMAP
00
00
20
20
20
B0
A8
A8
A8
A8
68
20
20
ENDCHAR
STARTCHAR U+0584
ENCODING 1412
SWIDTH 480 0
DWIDTH 6 0
BBX 6 13 0 -2
BITMAP
00
00
18
20
20
F8
20
20
20
20
20
00
00
ENDCHAR
STARTCHAR U+0585
ENCODING 1413
SWIDTH 480 0
DWIDTH 6 0
BBX 6 13 0 -2
BITMAP
00
00
00
00
00
70
88
88
88
88
70
00
00
ENDCHAR
STARTCHAR U+0586
ENCODING 1414
SWIDTH 480 0
DWIDTH 6 0
BBX 6 13 0 -2
BITMAP
00
00
60
A0
A0
70
28
A8
A8
A8
70
20
20
ENDCHAR
STARTCHAR U+0587
ENCODING 1415
SWIDTH 480 0
DWIDTH 6 0
BBX 6 13 0 -2
BITMAP
00
00
80
80
80
90
90
90
90
90
68
00
00
ENDCHAR
STARTCHAR U+0589
ENCODING 1417
SWIDTH 480 0
DWIDTH 6 0
BBX 6 13 0 -2
BITMAP
00
00
00
00
30
30
00
30
30
00
00
00
00
ENDCHAR
STARTCHAR U+05BE
ENCODING 1470
SWIDTH 480 0
DWIDTH 6 0
BBX 6 13 0 -2
BITMAP
00
00
00
00
00
78
00
00
00
00
00
00
00
ENDCHAR
STARTCHAR U+05C0
ENCODING 1472
SWIDTH 480 0
DWIDTH 6 0
BBX 6 13 0 -2
BITMAP
00
00
00
00
00
20
20
20
20
20
20
00
00
ENDCHAR
STARTCHAR U+05C3
ENCODING 1475
SWIDTH 480 0
DWIDTH 6 0
BBX 6 13 0 -2
BITMAP
00
00
00
00
00
20
20
00
00
20
20
00
00
ENDCHAR
STARTCHAR U+05D0
ENCODING 1488
SWIDTH 480 0
DWIDTH 6 0
BBX 6 13 0 -2
BITMAP
00
00
00
00
00
90
48
68
90
88
C8
00
00
ENDCHAR
STARTCHAR U+05D1
ENCODING 1489
SWIDTH 480 0
DWIDTH 6 0
BBX 6 13 0 -2
BITMAP
00
00
00
00
00
F0
10
10
10
10
F8
00
00
ENDCHAR
STARTCHAR U+05D2
ENCODING 1490
SWIDTH 480 0
DWIDTH 6 0
BBX 6 13 0 -2
BITMAP
00
00
00
00
00
40
20
10
10
28
48
00
00
ENDCHAR
STARTCHAR U+05D3
ENCODING 1491
SWIDTH 480 0
DWIDTH 6 0
BBX 6 13 0 -2
BITMAP
00
00
00
00
00
F8
10
10
10
10
10
00
00
ENDCHAR
STARTCHAR U+05D4
ENCODING 1492
SWIDTH 480 0
DWIDTH 6 0
BBX 6 13 0 -2
BITMAP
00
00
00
00
00
F8
08
08
88
88
88
00
00
ENDCHAR
STARTCHAR U+05D5
ENCODING 1493
SWIDTH 480 0
DWIDTH 6 0
BBX 6 13 0 -2
BITMAP
00
00
00
00
00
30
10
10
10
10
10
00
00
ENDCHAR
STARTCHAR U+05D6
ENCODING 1494
SWIDTH 480 0
DWIDTH 6 0
BBX 6 13 0 -2
BITMAP
00
00
00
00
00
F8
20
20
10
10
10
00
00
ENDCHAR
STARTCHAR U+05D7
ENCODING 1495
SWIDTH 480 0
DWIDTH 6 0
BBX 6 13 0 -2
BITMAP
00
00
00
00
00
F8
48
48
48
48
48
00
00
ENDCHAR
STARTCHAR U+05D8
ENCODING 1496
SWIDTH 480 0
DWIDTH 6 0
BBX 6 13 0 -2
BITMAP
00
00
00
00
00
98
A8
A8
88
88
F8
00
00
ENDCHAR
STARTCHAR U+05D9
ENCODING 1497
SWIDTH 480 0
DWIDTH 6 0
BBX 6 13 0 -2
BITMAP
00
00
00
00
00
30
10
10
00
00
00
00
00
ENDCHAR
STARTCHAR U+05DA
ENCODING 1498
SWIDTH 480 0
DWIDTH 6 0
BBX 6 13 0 -2
BITMAP
00
00
00
00
00
F8
08
08
08
08
08
08
08
ENDCHAR
STARTCHAR U+05DB
ENCODING 1499
SWIDTH 480 0
DWIDTH 6 0
BBX 6 13 0 -2
BITMAP
00
00
00
00
00
F8
08
08
08
08
F0
00
00
ENDCHAR
STARTCHAR U+05DC
ENCODING 1500
SWIDTH 480 0
DWIDTH 6 0
BBX 6 13 0 -2
BITMAP
00
00
80
80
80
F8
08
08
08
10
60
00
00
ENDCHAR
STARTCHAR U+05DD
ENCODING 1501
SWIDTH 480 0
DWIDTH 6 0
BBX 6 13 0 -2
BITMAP
00
00
00
00
00
F8
48
48
48
48
78
00
00
ENDCHAR
STARTCHAR U+05DE
ENCODING 1502
SWIDTH 480 0
DWIDTH 6 0
BBX 6 13 0 -2
BITMAP
00
00
00
00
00
90
A8
48
88
88
B8
00
00
ENDCHAR
STARTCHAR U+05DF
ENCODING 1503
SWIDTH 480 0
DWIDTH 6 0
BBX 6 13 0 -2
BITMAP
00
00
00
00
00
30
10
10
10
10
10
10
10
ENDCHAR
STARTCHAR U+05E0
ENCODING 1504
SWIDTH 480 0
DWIDTH 6 0
BBX 6 13 0 -2
BITMAP
00
00
00
00
00
18
08
08
08
08
78
00
00
ENDCHAR
STARTCHAR U+05E1
ENCODING 1505
SWIDTH 480 0
DWIDTH 6 0
BBX 6 13 0 -2
BITMAP
00
00
00
00
00
F8
48
48
48
50
60
00
00
ENDCHAR
STARTCHAR U+05E2
ENCODING 1506
SWIDTH 480 0
DWIDTH 6 0
BBX 6 13 0 -2
BITMAP
00
00
00
00
00
D8
48
48
48
48
F0
00
00
ENDCHAR
STARTCHAR U+05E3
ENCODING 1507
SWIDTH 480 0
DWIDTH 6 0
BBX 6 13 0 -2
BITMAP
00
00
00
00
00
F8
48
48
48
08
08
08
08
ENDCHAR
STARTCHAR U+05E4
ENCODING 1508
SWIDTH 480 0
DWIDTH 6 0
BBX 6 13 0 -2
BITMAP
00
00
00
00
00
F8
48
48
08
08
F0
00
00
ENDCHAR
STARTCHAR U+05E5
ENCODING 1509
SWIDTH 480 0
DWIDTH 6 0
BBX 6 13 0 -2
BITMAP
00
00
00
00
00
90
48
48
50
60
40
40
40
ENDCHAR
STARTCHAR U+05E6
ENCODING 1510
SWIDTH 480 0
DWIDTH 6 0
BBX 6 13 0 -2
BITMAP
00
00
00
00
00
90
48
28
10
08
F8
00
00
ENDCHAR
STARTCHAR U+05E7
ENCODING 1511
SWIDTH 480 0
DWIDTH 6 0
BBX 6 13 0 -2
BITMAP
00
00
00
00
00
F8
08
88
88
88
B0
80
80
ENDCHAR
STARTCHAR U+05E8
ENCODING 1512
SWIDTH 480 0
DWIDTH 6 0
BBX 6 13 0 -2
BITMAP
00
00
00
00
00
F0
08
08
08
08
08
00
00
ENDCHAR
STARTCHAR U+05E9
ENCODING 1513
SWIDTH 480 0
DWIDTH 6 0
BBX 6 13 0 -2
BITMAP
00
00
00
00
00
A8
A8
A8
E8
88
F0
00
00
ENDCHAR
STARTCHAR U+05EA
ENCODING 1514
SWIDTH 480 0
DWIDTH 6 0
BBX 6 13 0 -2
BITMAP
00
00
00
00
00
F8
48
48
48
48
C8
00
00
ENDCHAR
STARTCHAR U+05F0
ENCODING 1520
SWIDTH 480 0
DWIDTH 6 0
BBX 6 13 0 -2
BITMAP
00
00
00
00
00
D8
48
48
48
48
48
00
00
ENDCHAR
STARTCHAR U+05F1
ENCODING 1521
SWIDTH 480 0
DWIDTH 6 0
BBX 6 13 0 -2
BITMAP
00
00
00
00
00
D8
48
48
08
08
08
00
00
ENDCHAR
STARTCHAR U+05F2
ENCODING 1522
SWIDTH 480 0
DWIDTH 6 0
BBX 6 13 0 -2
BITMAP
00
00
00
00
00
D8
48
48
00
00
00
00
00
ENDCHAR
STARTCHAR U+05F3
ENCODING 1523
SWIDTH 480 0
DWIDTH 6 0
BBX 6 13 0 -2
BITMAP
00
00
00
00
00
10
20
00
00
00
00
00
00
ENDCHAR
STARTCHAR U+05F4
ENCODING 1524
SWIDTH 480 0
DWIDTH 6 0
BBX 6 13 0 -2
BITMAP
00
00
00
00
00
48
90
00
00
00
00
00
00
ENDCHAR
STARTCHAR U+10D0
ENCODING 4304
SWIDTH 480 0
DWIDTH 6 0
BBX 6 13 0 -2
BITMAP
00
00
00
00
00
00
40
30
08
88
70
00
00
ENDCHAR
STARTCHAR U+10D1
ENCODING 4305
SWIDTH 480 0
DWIDTH 6 0
BBX 6 13 0 -2
BITMAP
00
00
40
60
20
20
70
88
88
88
70
00
00
ENDCHAR
STARTCHAR U+10D2
ENCODING 4306
SWIDTH 480 0
DWIDTH 6 0
BBX 6 13 0 -2
BITMAP
00
00
00
00
40
A0
A0
20
70
88
88
88
70
ENDCHAR
STARTCHAR U+10D3
ENCODING 4307
SWIDTH 480 0
DWIDTH 6 0
BBX 6 13 0 -2
BITMAP
00
00
00
00
00
00
70
A8
A8
90
80
60
10
ENDCHAR
STARTCHAR U+10D4
ENCODING 4308
SWIDTH 480 0
DWIDTH 6 0
BBX 6 13 0 -2
BITMAP
00
00
00
00
70
88
88
08
08
08
88
88
70
ENDCHAR
STARTCHAR U+10D5
ENCODING 4309
SWIDTH 480 0
DWIDTH 6 0
BBX 6 13 0 -2
BITMAP
00
00
00
00
70
88
88
30
08
08
88
88
70
ENDCHAR
STARTCHAR U+10D6
ENCODING 4310
SWIDTH 480 0
DWIDTH 6 0
BBX 6 13 0 -2
BITMAP
00
00
40
A0
A8
70
30
28
28
28
10
00
00
ENDCHAR
STARTCHAR U+10D7
ENCODING 4311
SWIDTH 480 0
DWIDTH 6 0
BBX 6 13 0 -2
BITMAP
00
00
00
00
00
00
50
A8
A8
A8
48
00
00
ENDCHAR
STARTCHAR U+10D8
ENCODING 4312
SWIDTH 480 0
DWIDTH 6 0
BBX 6 13 0 -2
BITMAP
00
00
00
00
00
00
70
88
88
88
50
00
00
ENDCHAR
STARTCHAR U+10D9
ENCODING 4313
SWIDTH 480 0
DWIDTH 6 0
BBX 6 13 0 -2
BITMAP
00
00
00
00
10
08
08
30
08
08
88
88
70
ENDCHAR
STARTCHAR U+10DA
ENCODING 4314
SWIDTH 480 0
DWIDTH 6 0
BBX 6 13 0 -2
BITMAP
00
00
00
00
00
00
58
B8
B8
A8
80
70
08
ENDCHAR
STARTCHAR U+10DB
ENCODING 4315
SWIDTH 480 0
DWIDTH 6 0
BBX 6 13 0 -2
BITMAP
00
00
70
88
88
08
78
88
88
88
70
00
00
ENDCHAR
STARTCHAR U+10DC
ENCODING 4316
SWIDTH 480 0
DWIDTH 6 0
BBX 6 13 0 -2
BITMAP
00
00
78
80
80
80
F0
88
88
88
70
00
00
ENDCHAR
STARTCHAR U+10DD
ENCODING 4317
SWIDTH 480 0
DWIDTH 6 0
BBX 6 13 0 -2
BITMAP
00
00
00
00
00
00
50
A8
A8
A8
88
00
00
ENDCHAR
STARTCHAR U+10DE
ENCODING 4318
SWIDTH 480 0
DWIDTH 6 0
BBX 6 13 0 -2
BITMAP
00
00
20
10
08
08
30
08
88
88
70
00
00
ENDCHAR
STARTCHAR U+10DF
ENCODING 4319
SWIDTH 480 0
DWIDTH 6 0
BBX 6 13 0 -2
BITMAP
00
00
00
00
00
08
18
A8
A8
48
08
48
30
ENDCHAR
STARTCHAR U+10E0
ENCODING 4320
SWIDTH 480 0
DWIDTH 6 0
BBX 6 13 0 -2
BITMAP
00
00
00
08
70
80
D0
A8
A8
A8
88
00
00
ENDCHAR
STARTCHAR U+10E1
ENCODING 4321
SWIDTH 480 0
DWIDTH 6 0
BBX 6 13 0 -2
BITMAP
00
00
80
80
80
90
A0
90
88
88
70
00
00
ENDCHAR
STARTCHAR U+10E2
ENCODING 4322
SWIDTH 480 0
DWIDTH 6 0
BBX 6 13 0 -2
BITMAP
00
00
20
50
50
70
D8
D8
A8
88
88
88
70
ENDCHAR
STARTCHAR U+10E3
ENCODING 4323
SWIDTH 480 0
DWIDTH 6 0
BBX 6 13 0 -2
BITMAP
00
00
00
00
B0
48
48
08
08
08
48
48
30
ENDCHAR
STARTCHAR U+10E4
ENCODING 4324
SWIDTH 480 0
DWIDTH 6 0
BBX 6 13 0 -2
BITMAP
00
00
00
00
00
00
50
A8
A8
50
08
48
30
ENDCHAR
STARTCHAR U+10E5
ENCODING 4325
SWIDTH 480 0
DWIDTH 6 0
BBX 6 13 0 -2
BITMAP
00
00
08
18
08
08
38
48
08
08
08
88
70
ENDCHAR
STARTCHAR U+10E6
ENCODING 4326
SWIDTH 480 0
DWIDTH 6 0
BBX 6 13 0 -2
BITMAP
00
00
00
00
00
00
50
A8
A8
88
80
70
08
ENDCHAR
STARTCHAR U+10E7
ENCODING 4327
SWIDTH 480 0
DWIDTH 6 0
BBX 6 13 0 -2
BITMAP
00
00
00
00
00
00
88
88
88
78
08
88
70
ENDCHAR
STARTCHAR U+10E8
ENCODING 4328
SWIDTH 480 0
DWIDTH 6 0
BBX 6 13 0 -2
BITMAP
00
00
50
A8
A8
A8
88
38
48
48
30
00
00
ENDCHAR
STARTCHAR U+10E9
ENCODING 4329
SWIDTH 480 0
DWIDTH 6 0
BBX 6 13 0 -2
BITMAP
00
00
60
90
90
E0
80
F0
88
88
88
00
00
ENDCHAR
STARTCHAR U+10EA
ENCODING 4330
SWIDTH 480 0
DWIDTH 6 0
BBX 6 13 0 -2
BITMAP
00
00
00
00
90
88
88
B0
88
88
88
88
70
ENDCHAR
STARTCHAR U+10EB
ENCODING 4331
SWIDTH 480 0
DWIDTH 6 0
BBX 6 13 0 -2
BITMAP
00
00
10
08
08
08
78
88
88
88
70
00
00
ENDCHAR
STARTCHAR U+10EC
ENCODING 4332
SWIDTH 480 0
DWIDTH 6 0
BBX 6 13 0 -2
BITMAP
00
00
50
A8
A8
80
80
F8
88
50
50
20
20
ENDCHAR
STARTCHAR U+10ED
ENCODING 4333
SWIDTH 480 0
DWIDTH 6 0
BBX 6 13 0 -2
BITMAP
00
00
20
60
A0
20
68
B0
68
20
20
A0
C0
ENDCHAR
STARTCHAR U+10EE
ENCODING 4334
SWIDTH 480 0
DWIDTH 6 0
BBX 6 13 0 -2
BITMAP
00
00
80
80
90
A0
F0
88
88
88
70
00
00
ENDCHAR
STARTCHAR U+10EF
ENCODING 4335
SWIDTH 480 0
DWIDTH 6 0
BBX 6 13 0 -2
BITMAP
00
00
00
00
00
00
88
50
20
50
88
40
80
ENDCHAR
STARTCHAR U+10F0
ENCODING 4336
SWIDTH 480 0
DWIDTH 6 0
BBX 6 13 0 -2
BITMAP
00
40
30
08
30
08
08
30
88
88
70
00
00
ENDCHAR
STARTCHAR U+10F1
ENCODING 4337
SWIDTH 480 0
DWIDTH 6 0
BBX 6 13 0 -2
BITMAP
00
A0
90
88
B0
88
88
B0
88
88
70
00
00
ENDCHAR
STARTCHAR U+10F2
ENCODING 4338
SWIDTH 480 0
DWIDTH 6 0
BBX 6 13 0 -2
BITMAP
00
00
00
00
00
70
88
88
88
50
F8
00
00
ENDCHAR
STARTCHAR U+10F3
ENCODING 4339
SWIDTH 480 0
DWIDTH 6 0
BBX 6 13 0 -2
BITMAP
00
00
00
00
00
78
08
10
30
08
08
88
70
ENDCHAR
STARTCHAR U+10F4
ENCODING 4340
SWIDTH 480 0
DWIDTH 6 0
BBX 6 13 0 -2
BITMAP
00
00
20
40
30
08
08
30
08
08
88
88
70
ENDCHAR
STARTCHAR U+10F5
ENCODING 4341
SWIDTH 480 0
DWIDTH 6 0
BBX 6 13 0 -2
BITMAP
00
00
60
90
90
78
10
78
90
90
60
00
00
ENDCHAR
STARTCHAR U+10F6
ENCODING 4342
SWIDTH 480 0
DWIDTH 6 0
BBX 6 13 0 -2
BITMAP
00
00
00
40
20
20
70
A8
A8
70
20
20
10
ENDCHAR
STARTCHAR U+10FB
ENCODING 4347
SWIDTH 480 0
DWIDTH 6 0
BBX 6 13 0 -2
BITMAP
00
00
00
00
C0
C0
18
18
C0
C0
00
00
00
ENDCHAR
STARTCHAR U+1E00
ENCODING 7680
SWIDTH 480 0
DWIDTH 6 0
BBX 6 13 0 -2
BITMAP
00
00
20
50
88
88
F8
88
88
88
20
50
20
ENDCHAR
STARTCHAR U+1E01
ENCODING 7681
SWIDTH 480 0
DWIDTH 6 0
BBX 6 13 0 -2
BITMAP
00
00
00
00
70
08
78
88
88
78
20
50
20
ENDCHAR
STARTCHAR U+1E02
ENCODING 7682
SWIDTH 480 0
DWIDTH 6 0
BBX 6 13 0 -2
BITMAP
00
20
20
00
F0
48
48
70
48
48
F0
00
00
ENDCHAR
STARTCHAR U+1E03
ENCODING 7683
SWIDTH 480 0
DWIDTH 6 0
BBX 6 13 0 -2
BITMAP
00
20
A0
80
80
F0
88
88
88
88
F0
00
00
ENDCHAR
STARTCHAR U+1E04
ENCODING 7684
SWIDTH 480 0
DWIDTH 6 0
BBX 6 13 0 -2
BITMAP
00
00
F0
48
48
48
70
48
48
48
F0
00
20
ENDCHAR
STARTCHAR U+1E05
ENCODING 7685
SWIDTH 480 0
DWIDTH 6 0
BBX 6 13 0 -2
BITMAP
00
00
80
80
80
F0
88
88
88
88
F0
00
20
ENDCHAR
STARTCHAR U+1E06
ENCODING 7686
SWIDTH 480 0
DWIDTH 6 0
BBX 6 13 0 -2
BITMAP
00
00
F0
48
48
48
70
48
48
48
F0
00
F8
ENDCHAR
STARTCHAR U+1E07
ENCODING 7687
SWIDTH 480 0
DWIDTH 6 0
BBX 6 13 0 -2
BITMAP
00
00
80
80
80
F0
88
88
88
88
F0
00
F8
ENDCHAR
STARTCHAR U+1E08
ENCODING 7688
SWIDTH 480 0
DWIDTH 6 0
BBX 6 13 0 -2
BITMAP
00
10
20
00
70
88
80
80
80
88
70
20
40
ENDCHAR
STARTCHAR U+1E09
ENCODING 7689
SWIDTH 480 0
DWIDTH 6 0
BBX 6 13 0 -2
BITMAP
00
10
20
00
00
70
88
80
80
88
70
20
40
ENDCHAR
STARTCHAR U+1E0A
ENCODING 7690
SWIDTH 480 0
DWIDTH 6 0
BBX 6 13 0 -2
BITMAP
00
20
20
00
F0
48
48
48
48
48
F0
00
00
ENDCHAR
STARTCHAR U+1E0B
ENCODING 7691
SWIDTH 480 0
DWIDTH 6 0
BBX 6 13 0 -2
BITMAP
00
20
28
08
08
78
88
88
88
88
78
00
00
ENDCHAR
STARTCHAR U+1E0C
ENCODING 7692
SWIDTH 480 0
DWIDTH 6 0
BBX 6 13 0 -2
BITMAP
00
00
F0
48
48
48
48
48
48
48
F0
00
20
ENDCHAR
STARTCHAR U+1E0D
ENCODING 7693
SWIDTH 480 0
DWIDTH 6 0
BBX 6 13 0 -2
BITMAP
00
00
08
08
08
78
88
88
88
88
78
00
20
ENDCHAR
STARTCHAR U+1E0E
ENCODING 7694
SWIDTH 480 0
DWIDTH 6 0
BBX 6 13 0 -2
BITMAP
00
00
F0
48
48
48
48
48
48
48
F0
00
F8
ENDCHAR
STARTCHAR U+1E0F
ENCODING 7695
SWIDTH 480 0
DWIDTH 6 0
BBX 6 13 0 -2
BITMAP
00
00
08
08
08
78
88
88
88
88
78
00
F8
ENDCHAR
STARTCHAR U+1E10
ENCODING 7696
SWIDTH 480 0
DWIDTH 6 0
BBX 6 13 0 -2
BITMAP
00
00
F0
48
48
48
48
48
48
48
F0
20
40
ENDCHAR
STARTCHAR U+1E11
ENCODING 7697
SWIDTH 480 0
DWIDTH 6 0
BBX 6 13 0 -2
BITMAP
00
00
08
08
08
78
88
88
88
88
78
20
40
ENDCHAR
STARTCHAR U+1E12
ENCODING 7698
SWIDTH 480 0
DWIDTH 6 0
BBX 6 13 0 -2
BITMAP
00
00
F0
48
48
48
48
48
48
F0
00
20
50
ENDCHAR
STARTCHAR U+1E13
ENCODING 7699
SWIDTH 480 0
DWIDTH 6 0
BBX 6 13 0 -2
BITMAP
00
00
08
08
08
78
88
88
88
78
00
20
50
ENDCHAR
STARTCHAR U+1E14
ENCODING 7700
SWIDTH 480 0
DWIDTH 6 0
BBX 6 13 0 -2
BITMAP
40
20
F8
00
F8
80
80
F0
80
80
F8
00
00
ENDCHAR
STARTCHAR U+1E15
ENCODING 7701
SWIDTH 480 0
DWIDTH 6 0
BBX 6 13 0 -2
BITMAP
00
40
20
F8
00
70
88
F8
80
88
70
00
00
ENDCHAR
STARTCHAR U+1E16
ENCODING 7702
SWIDTH 480 0
DWIDTH 6 0
BBX 6 13 0 -2
BITMAP
10
20
F8
00
F8
80
80
F0
80
80
F8
00
00
ENDCHAR
STARTCHAR U+1E17
ENCODING 7703
SWIDTH 480 0
DWIDTH 6 0
BBX 6 13 0 -2
BITMAP
00
10
20
F8
00
70
88
F8
80
88
70
00
00
ENDCHAR
STARTCHAR U+1E18
ENCODING 7704
SWIDTH 480 0
DWIDTH 6 0
BBX 6 13 0 -2
BITMAP
00
00
F8
80
80
F0
80
80
80
F8
00
20
50
ENDCHAR
STARTCHAR U+1E19
ENCODING 7705
SWIDTH 480 0
DWIDTH 6 0
BBX 6 13 0 -2
BITMAP
00
00
00
00
70
88
F8
80
88
70
00
20
50
ENDCHAR
STARTCHAR U+1E1A
ENCODING 7706
SWIDTH 480 0
DWIDTH 6 0
BBX 6 13 0 -2
BITMAP
00
00
F8
80
80
F0
80
80
80
F8
00
28
50
ENDCHAR
STARTCHAR U+1E1B
ENCODING 7707
SWIDTH 480 0
DWIDTH 6 0
BBX 6 13 0 -2
BITMAP
00
00
00
00
70
88
F8
80
88
70
00
28
50
ENDCHAR
STARTCHAR U+1E1C
ENCODING 7708
SWIDTH 480 0
DWIDTH 6 0
BBX 6 13 0 -2
BITMAP
00
88
70
00
F8
80
80
F0
80
80
F8
20
40
ENDCHAR
STARTCHAR U+1E1D
ENCODING 7709
SWIDTH 480 0
DWIDTH 6 0
BBX 6 13 0 -2
BITMAP
00
88
70
00
00
70
88
F8
80
88
70
20
40
ENDCHAR
STARTCHAR U+1E1E
ENCODING 7710
SWIDTH 480 0
DWIDTH 6 0
BBX 6 13 0 -2
BITMAP
00
20
20
00
F8
80
80
F0
80
80
80
00
00
ENDCHAR
STARTCHAR U+1E1F
ENCODING 7711
SWIDTH 480 0
DWIDTH 6 0
BBX 6 13 0 -2
BITMAP
00
20
20
00
30
48
40
F0
40
40
40
00
00
ENDCHAR
STARTCHAR U+1E20
ENCODING 7712
SWIDTH 480 0
DWIDTH 6 0
BBX 6 13 0 -2
BITMAP
00
00
F8
00
70
88
80
98
88
88
70
00
00
ENDCHAR
STARTCHAR U+1E21
ENCODING 7713
SWIDTH 480 0
DWIDTH 6 0
BBX 6 13 0 -2
BITMAP
00
00
F8
00
00
70
88
88
88
78
08
88
70
ENDCHAR
STARTCHAR U+1E22
ENCODING 7714
SWIDTH 480 0
DWIDTH 6 0
BBX 6 13 0 -2
BITMAP
00
20
20
00
88
88
88
F8
88
88
88
00
00
ENDCHAR
STARTCHAR U+1E23
ENCODING 7715
SWIDTH 480 0
DWIDTH 6 0
BBX 6 13 0 -2
BITMAP
00
20
A0
80
80
B0
C8
88
88
88
88
00
00
ENDCHAR
STARTCHAR U+1E24
ENCODING 7716
SWIDTH 480 0
DWIDTH 6 0
BBX 6 13 0 -2
BITMAP
00
00
88
88
88
88
F8
88
88
88
88
00
20
ENDCHAR
STARTCHAR U+1E25
ENCODING 7717
SWIDTH 480 0
DWIDTH 6 0
BBX 6 13 0 -2
BITMAP
00
00
80
80
80
B0
C8
88
88
88
88
00
20
ENDCHAR
STARTCHAR U+1E26
ENCODING 7718
SWIDTH 480 0
DWIDTH 6 0
BBX 6 13 0 -2
BITMAP
00
50
50
00
88
88
88
F8
88
88
88
00
00
ENDCHAR
STARTCHAR U+1E27
ENCODING 7719
SWIDTH 480 0
DWIDTH 6 0
BBX 6 13 0 -2
BITMAP
00
50
50
00
80
80
B0
C8
88
88
88
00
00
ENDCHAR
STARTCHAR U+1E28
ENCODING 7720
SWIDTH 480 0
DWIDTH 6 0
BBX 6 13 0 -2
BITMAP
00
00
88
88
88
88
F8
88
88
88
88
10
20
ENDCHAR
STARTCHAR U+1E29
ENCODING 7721
SWIDTH 480 0
DWIDTH 6 0
BBX 6 13 0 -2
BITMAP
00
00
80
80
80
B0
C8
88
88
88
88
10
20
ENDCHAR
STARTCHAR U+1E2A
ENCODING 7722
SWIDTH 480 0
DWIDTH 6 0
BBX 6 13 0 -2
BITMAP
00
00
88
88
88
F8
88
88
88
88
00
88
70
ENDCHAR
STARTCHAR U+1E2B
ENCODING 7723
SWIDTH 480 0
DWIDTH 6 0
BBX 6 13 0 -2
BITMAP
00
00
80
80
80
B0
C8
88
88
88
00
88
70
ENDCHAR
STARTCHAR U+1E2C
ENCODING 7724
SWIDTH 480 0
DWIDTH 6 0
BBX 6 13 0 -2
BITMAP
00
00
70
20
20
20
20
20
20
70
00
28
50
ENDCHAR
STARTCHAR U+1E2D
ENCODING 7725
SWIDTH 480 0
DWIDTH 6 0
BBX 6 13 0 -2
BITMAP
00
00
00
20
00
60
20
20
20
70
00
28
50
ENDCHAR
STARTCHAR U+1E2E
ENCODING 7726
SWIDTH 480 0
DWIDTH 6 0
BBX 6 13 0 -2
BITMAP
10
20
00
50
00
70
20
20
20
20
70
00
00
ENDCHAR
STARTCHAR U+1E2F
ENCODING 7727
SWIDTH 480 0
DWIDTH 6 0
BBX 6 13 0 -2
BITMAP
10
20
00
50
00
60
20
20
20
20
70
00
00
ENDCHAR
STARTCHAR U+1E30
ENCODING 7728
SWIDTH 480 0
DWIDTH 6 0
BBX 6 13 0 -2
BITMAP
00
10
20
00
88
90
A0
C0
A0
90
88
00
00
ENDCHAR
STARTCHAR U+1E31
ENCODING 7729
SWIDTH 480 0
DWIDTH 6 0
BBX 6 13 0 -2
BITMAP
00
10
A0
80
80
90
A0
C0
A0
90
88
00
00
ENDCHAR
STARTCHAR U+1E32
ENCODING 7730
SWIDTH 480 0
DWIDTH 6 0
BBX 6 13 0 -2
BITMAP
00
00
88
88
90
A0
C0
A0
90
88
88
00
20
ENDCHAR
STARTCHAR U+1E33
ENCODING 7731
SWIDTH 480 0
DWIDTH 6 0
BBX 6 13 0 -2
BITMAP
00
00
80
80
80
90
A0
C0
A0
90
88
00
20
ENDCHAR
STARTCHAR U+1E34
ENCODING 7732
SWIDTH 480 0
DWIDTH 6 0
BBX 6 13 0 -2
BITMAP
00
00
88
88
90
A0
C0
A0
90
88
88
00
F8
ENDCHAR
STARTCHAR U+1E35
ENCODING 7733
SWIDTH 480 0
DWIDTH 6 0
BBX 6 13 0 -2
BITMAP
00
00
80
80
80
90
A0
C0
A0
90
88
00
F8
ENDCHAR
STARTCHAR U+1E36
ENCODING 7734
SWIDTH 480 0
DWIDTH 6 0
BBX 6 13 0 -2
BITMAP
00
00
80
80
80
80
80
80
80
80
F8
00
20
ENDCHAR
STARTCHAR U+1E37
ENCODING 7735
SWIDTH 480 0
DWIDTH 6 0
BBX 6 13 0 -2
BITMAP
00
00
60
20
20
20
20
20
20
20
70
00
20
ENDCHAR
STARTCHAR U+1E38
ENCODING 7736
SWIDTH 480 0
DWIDTH 6 0
BBX 6 13 0 -2
BITMAP
00
F8
00
80
80
80
80
80
80
80
F8
00
20
ENDCHAR
STARTCHAR U+1E39
ENCODING 7737
SWIDTH 480 0
DWIDTH 6 0
BBX 6 13 0 -2
BITMAP
00
F8
00
60
20
20
20
20
20
20
70
00
20
ENDCHAR
STARTCHAR U+1E3A
ENCODING 7738
SWIDTH 480 0
DWIDTH 6 0
BBX 6 13 0 -2
BITMAP
00
00
80
80
80
80
80
80
80
80
F8
00
F8
ENDCHAR
STARTCHAR U+1E3B
ENCODING 7739
SWIDTH 480 0
DWIDTH 6 0
BBX 6 13 0 -2
BITMAP
00
00
60
20
20
20
20
20
20
20
70
00
70
ENDCHAR
STARTCHAR U+1E3C
ENCODING 7740
SWIDTH 480 0
DWIDTH 6 0
BBX 6 13 0 -2
BITMAP
00
00
80
80
80
80
80
80
80
F8
00
20
50
ENDCHAR
STARTCHAR U+1E3D
ENCODING 7741
SWIDTH 480 0
DWIDTH 6 0
BBX 6 13 0 -2
BITMAP
00
00
60
20
20
20
20
20
20
70
00
20
50
ENDCHAR
STARTCHAR U+1E3E
ENCODING 7742
SWIDTH 480 0
DWIDTH 6 0
BBX 6 13 0 -2
BITMAP
00
10
20
88
88
D8
A8
A8
88
88
88
00
00
ENDCHAR
STARTCHAR U+1E3F
ENCODING 7743
SWIDTH 480 0
DWIDTH 6 0
BBX 6 13 0 -2
BITMAP
00
10
20
00
00
D0
A8
A8
A8
A8
88
00
00
ENDCHAR
STARTCHAR U+1E40
ENCODING 7744
SWIDTH 480 0
DWIDTH 6 0
BBX 6 13 0 -2
BITMAP
00
20
20
88
88
D8
A8
A8
88
88
88
00
00
ENDCHAR
STARTCHAR U+1E41
ENCODING 7745
SWIDTH 480 0
DWIDTH 6 0
BBX 6 13 0 -2
BITMAP
00
20
20
00
00
D0
A8
A8
A8
A8
88
00
00
ENDCHAR
STARTCHAR U+1E42
ENCODING 7746
SWIDTH 480 0
DWIDTH 6 0
BBX 6 13 0 -2
BITMAP
00
00
88
88
D8
A8
A8
88
88
88
88
00
20
ENDCHAR
STARTCHAR U+1E43
ENCODING 7747
SWIDTH 480 0
DWIDTH 6 0
BBX 6 13 0 -2
BITMAP
00
00
00
00
00
D0
A8
A8
A8
A8
88
00
20
ENDCHAR
STARTCHAR U+1E44
ENCODING 7748
SWIDTH 480 0
DWIDTH 6 0
BBX 6 13 0 -2
BITMAP
00
20
20
88
C8
C8
A8
A8
98
98
88
00
00
ENDCHAR
STARTCHAR U+1E45
ENCODING 7749
SWIDTH 480 0
DWIDTH 6 0
BBX 6 13 0 -2
BITMAP
00
20
20
00
00
B0
C8
88
88
88
88
00
00
ENDCHAR
STARTCHAR U+1E46
ENCODING 7750
SWIDTH 480 0
DWIDTH 6 0
BBX 6 13 0 -2
BITMAP
00
00
88
C8
C8
A8
A8
98
98
88
88
00
20
ENDCHAR
STARTCHAR U+1E47
ENCODING 7751
SWIDTH 480 0
DWIDTH 6 0
BBX 6 13 0 -2
BITMAP
00
00
00
00
00
B0
C8
88
88
88
88
00
20
ENDCHAR
STARTCHAR U+1E48
ENCODING 7752
SWIDTH 480 0
DWIDTH 6 0
BBX 6 13 0 -2
BITMAP
00
00
88
C8
C8
A8
A8
98
98
88
88
00
F8
ENDCHAR
STARTCHAR U+1E49
ENCODING 7753
SWIDTH 480 0
DWIDTH 6 0
BBX 6 13 0 -2
BITMAP
00
00
00
00
00
B0
C8
88
88
88
88
00
F8
ENDCHAR
STARTCHAR U+1E4A
ENCODING 7754
SWIDTH 480 0
DWIDTH 6 0
BBX 6 13 0 -2
BITMAP
00
00
88
C8
C8
A8
A8
98
98
88
88
20
50
ENDCHAR
STARTCHAR U+1E4B
ENCODING 7755
SWIDTH 480 0
DWIDTH 6 0
BBX 6 13 0 -2
BITMAP
00
00
00
00
00
B0
C8
88
88
88
88
20
50
ENDCHAR
STARTCHAR U+1E4C
ENCODING 7756
SWIDTH 480 0
DWIDTH 6 0
BBX 6 13 0 -2
BITMAP
10
20
00
28
50
00
70
88
88
88
70
00
00
ENDCHAR
STARTCHAR U+1E4D
ENCODING 7757
SWIDTH 480 0
DWIDTH 6 0
BBX 6 13 0 -2
BITMAP
10
20
00
28
50
00
00
70
88
88
70
00
00
ENDCHAR
STARTCHAR U+1E4E
ENCODING 7758
SWIDTH 480 0
DWIDTH 6 0
BBX 6 13 0 -2
BITMAP
50
50
00
28
50
00
70
88
88
88
70
00
00
ENDCHAR
STARTCHAR U+1E4F
ENCODING 7759
SWIDTH 480 0
DWIDTH 6 0
BBX 6 13 0 -2
BITMAP
50
50
00
28
50
00
00
70
88
88
70
00
00
ENDCHAR
STARTCHAR U+1E50
ENCODING 7760
SWIDTH 480 0
DWIDTH 6 0
BBX 6 13 0 -2
BITMAP
40
20
00
F8
00
70
88
88
88
88
70
00
00
ENDCHAR
STARTCHAR U+1E51
ENCODING 7761
SWIDTH 480 0
DWIDTH 6 0
BBX 6 13 0 -2
BITMAP
40
20
00
F8
00
00
70
88
88
88
70
00
00
ENDCHAR
STARTCHAR U+1E52
ENCODING 7762
SWIDTH 480 0
DWIDTH 6 0
BBX 6 13 0 -2
BITMAP
10
20
00
F8
00
70
88
88
88
88
70
00
00
ENDCHAR
STARTCHAR U+1E53
ENCODING 7763
SWIDTH 480 0
DWIDTH 6 0
BBX 6 13 0 -2
BITMAP
10
20
00
F8
00
00
70
88
88
88
70
00
00
ENDCHAR
STARTCHAR U+1E54
ENCODING 7764
SWIDTH 480 0
DWIDTH 6 0
BBX 6 13 0 -2
BITMAP
00
10
20
00
F0
88
88
F0
80
80
80
00
00
ENDCHAR
STARTCHAR U+1E55
ENCODING 7765
SWIDTH 480 0
DWIDTH 6 0
BBX 6 13 0 -2
BITMAP
00
10
20
00
00
F0
88
88
88
F0
80
80
80
ENDCHAR
STARTCHAR U+1E56
ENCODING 7766
SWIDTH 480 0
DWIDTH 6 0
BBX 6 13 0 -2
BITMAP
00
20
20
00
F0
88
88
F0
80
80
80
00
00
ENDCHAR
STARTCHAR U+1E57
ENCODING 7767
SWIDTH 480 0
DWIDTH 6 0
BBX 6 13 0 -2
BITMAP
00
20
20
00
00
F0
88
88
88
F0
80
80
80
ENDCHAR
STARTCHAR U+1E58
ENCODING 7768
SWIDTH 480 0
DWIDTH 6 0
BBX 6 13 0 -2
BITMAP
00
20
20
00
F0
88
88
F0
A0
90
88
00
00
ENDCHAR
STARTCHAR U+1E59
ENCODING 7769
SWIDTH 480 0
DWIDTH 6 0
BBX 6 13 0 -2
BITMAP
00
20
20
00
00
B0
C8
80
80
80
80
00
00
ENDCHAR
STARTCHAR U+1E5A
ENCODING 7770
SWIDTH 480 0
DWIDTH 6 0
BBX 6 13 0 -2
BITMAP
00
00
F0
88
88
88
F0
A0
90
88
88
00
20
ENDCHAR
STARTCHAR U+1E5B
ENCODING 7771
SWIDTH 480 0
DWIDTH 6 0
BBX 6 13 0 -2
BITMAP
00
00
00
00
00
B0
C8
80
80
80
80
00
20
ENDCHAR
STARTCHAR U+1E5C
ENCODING 7772
SWIDTH 480 0
DWIDTH 6 0
BBX 6 13 0 -2
BITMAP
00
00
F8
00
F0
88
88
F0
A0
90
88
00
20
ENDCHAR
STARTCHAR U+1E5D
ENCODING 7773
SWIDTH 480 0
DWIDTH 6 0
BBX 6 13 0 -2
BITMAP
00
00
F8
00
00
B0
C8
80
80
80
80
00
20
ENDCHAR
STARTCHAR U+1E5E
ENCODING 7774
SWIDTH 480 0
DWIDTH 6 0
BBX 6 13 0 -2
BITMAP
00
00
F0
88
88
88
F0
A0
90
88
88
00
F8
ENDCHAR
STARTCHAR U+1E5F
ENCODING 7775
SWIDTH 480 0
DWIDTH 6 0
BBX 6 13 0 -2
BITMAP
00
00
00
00
00
B0
C8
80
80
80
80
00
F8
ENDCHAR
STARTCHAR U+1E60
ENCODING 7776
SWIDTH 480 0
DWIDTH 6 0
BBX 6 13 0 -2
BITMAP
00
20
20
00
70
88
80
70
08
88
70
00
00
ENDCHAR
STARTCHAR U+1E61
ENCODING 7777
SWIDTH 480 0
DWIDTH 6 0
BBX 6 13 0 -2
BITMAP
00
20
20
00
00
70
88
60
10
88
70
00
00
ENDCHAR
STARTCHAR U+1E62
ENCODING 7778
SWIDTH 480 0
DWIDTH 6 0
BBX 6 13 0 -2
BITMAP
00
00
70
88
80
80
70
08
08
88
70
00
20
ENDCHAR
STARTCHAR U+1E63
ENCODING 7779
SWIDTH 480 0
DWIDTH 6 0
BBX 6 13 0 -2
BITMAP
00
00
00
00
00
70
88
60
10
88
70
00
20
ENDCHAR
STARTCHAR U+1E64
ENCODING 7780
SWIDTH 480 0
DWIDTH 6 0
BBX 6 13 0 -2
BITMAP
40
10
20
00
70
88
80
70
08
88
70
00
00
ENDCHAR
STARTCHAR U+1E65
ENCODING 7781
SWIDTH 480 0
DWIDTH 6 0
BBX 6 13 0 -2
BITMAP
40
10
20
00
00
70
88
60
10
88
70
00
00
ENDCHAR
STARTCHAR U+1E66
ENCODING 7782
SWIDTH 480 0
DWIDTH 6 0
BBX 6 13 0 -2
BITMAP
20
00
50
20
70
88
80
70
08
88
70
00
00
ENDCHAR
STARTCHAR U+1E67
ENCODING 7783
SWIDTH 480 0
DWIDTH 6 0
BBX 6 13 0 -2
BITMAP
20
00
50
20
00
70
88
60
10
88
70
00
00
ENDCHAR
STARTCHAR U+1E68
ENCODING 7784
SWIDTH 480 0
DWIDTH 6 0
BBX 6 13 0 -2
BITMAP
00
20
20
00
70
88
80
70
08
88
70
00
20
ENDCHAR
STARTCHAR U+1E69
ENCODING 7785
SWIDTH 480 0
DWIDTH 6 0
BBX 6 13 0 -2
BITMAP
00
20
20
00
00
70
88
60
10
88
70
00
20
ENDCHAR
STARTCHAR U+1E6A
ENCODING 7786
SWIDTH 480 0
DWIDTH 6 0
BBX 6 13 0 -2
BITMAP
00
20
20
00
F8
20
20
20
20
20
20
00
00
ENDCHAR
STARTCHAR U+1E6B
ENCODING 7787
SWIDTH 480 0
DWIDTH 6 0
BBX 6 13 0 -2
BITMAP
00
20
20
00
40
40
F0
40
40
48
30
00
00
ENDCHAR
STARTCHAR U+1E6C
ENCODING 7788
SWIDTH 480 0
DWIDTH 6 0
BBX 6 13 0 -2
BITMAP
00
00
F8
20
20
20
20
20
20
20
20
00
20
ENDCHAR
STARTCHAR U+1E6D
ENCODING 7789
SWIDTH 480 0
DWIDTH 6 0
BBX 6 13 0 -2
BITMAP
00
00
00
40
40
F0
40
40
40
48
30
00
20
ENDCHAR
STARTCHAR U+1E6E
ENCODING 7790
SWIDTH 480 0
DWIDTH 6 0
BBX 6 13 0 -2
BITMAP
00
00
F8
20
20
20
20
20
20
20
20
00
F8
ENDCHAR
STARTCHAR U+1E6F
ENCODING 7791
SWIDTH 480 0
DWIDTH 6 0
BBX 6 13 0 -2
BITMAP
00
00
00
40
40
F0
40
40
40
48
30
00
F8
ENDCHAR
STARTCHAR U+1E70
ENCODING 7792
SWIDTH 480 0
DWIDTH 6 0
BBX 6 13 0 -2
BITMAP
00
00
F8
20
20
20
20
20
20
20
00
20
50
ENDCHAR
STARTCHAR U+1E71
ENCODING 7793
SWIDTH 480 0
DWIDTH 6 0
BBX 6 13 0 -2
BITMAP
00
00
00
40
40
F0
40
40
48
30
00
20
50
ENDCHAR
STARTCHAR U+1E72
ENCODING 7794
SWIDTH 480 0
DWIDTH 6 0
BBX 6 13 0 -2
BITMAP
00
00
88
88
88
88
88
88
88
88
70
00
50
ENDCHAR
STARTCHAR U+1E73
ENCODING 7795
SWIDTH 480 0
DWIDTH 6 0
BBX 6 13 0 -2
BITMAP
00
00
00
00
00
88
88
88
88
98
68
00
50
ENDCHAR
STARTCHAR U+1E74
ENCODING 7796
SWIDTH 480 0
DWIDTH 6 0
BBX 6 13 0 -2
BITMAP
00
00
88
88
88
88
88
88
88
70
00
28
50
ENDCHAR
STARTCHAR U+1E75
ENCODING 7797
SWIDTH 480 0
DWIDTH 6 0
BBX 6 13 0 -2
BITMAP
00
00
00
00
00
88
88
88
98
68
00
28
50
ENDCHAR
STARTCHAR U+1E76
ENCODING 7798
SWIDTH 480 0
DWIDTH 6 0
BBX 6 13 0 -2
BITMAP
00
00
88
88
88
88
88
88
88
70
00
20
50
ENDCHAR
STARTCHAR U+1E77
ENCODING 7799
SWIDTH 480 0
DWIDTH 6 0
BBX 6 13 0 -2
BITMAP
00
00
00
00
00
88
88
88
98
68
00
20
50
ENDCHAR
STARTCHAR U+1E78
ENCODING 7800
SWIDTH 480 0
DWIDTH 6 0
BBX 6 13 0 -2
BITMAP
10
20
00
28
50
00
88
88
88
88
70
00
00
ENDCHAR
STARTCHAR U+1E79
ENCODING 7801
SWIDTH 480 0
DWIDTH 6 0
BBX 6 13 0 -2
BITMAP
10
20
00
28
50
00
88
88
88
98
68
00
00
ENDCHAR
STARTCHAR U+1E7A
ENCODING 7802
SWIDTH 480 0
DWIDTH 6 0
BBX 6 13 0 -2
BITMAP
50
50
00
F8
00
88
88
88
88
88
70
00
00
ENDCHAR
STARTCHAR U+1E7B
ENCODING 7803
SWIDTH 480 0
DWIDTH 6 0
BBX 6 13 0 -2
BITMAP
50
50
00
F8
00
88
88
88
88
98
68
00
00
ENDCHAR
STARTCHAR U+1E7C
ENCODING 7804
SWIDTH 480 0
DWIDTH 6 0
BBX 6 13 0 -2
BITMAP
00
28
50
00
88
88
88
50
50
20
20
00
00
ENDCHAR
STARTCHAR U+1E7D
ENCODING 7805
SWIDTH 480 0
DWIDTH 6 0
BBX 6 13 0 -2
BITMAP
00
28
50
00
00
88
88
88
50
50
20
00
00
ENDCHAR
STARTCHAR U+1E7E
ENCODING 7806
SWIDTH 480 0
DWIDTH 6 0
BBX 6 13 0 -2
BITMAP
00
00
88
88
88
88
50
50
50
20
20
00
20
ENDCHAR
STARTCHAR U+1E7F
ENCODING 7807
SWIDTH 480 0
DWIDTH 6 0
BBX 6 13 0 -2
BITMAP
00
00
00
00
00
88
88
88
50
50
20
00
20
ENDCHAR
STARTCHAR U+1E80
ENCODING 7808
SWIDTH 480 0
DWIDTH 6 0
BBX 6 13 0 -2
BITMAP
00
40
20
00
88
88
A8
A8
A8
D8
88
00
00
ENDCHAR
STARTCHAR U+1E81
ENCODING 7809
SWIDTH 480 0
DWIDTH 6 0
BBX 6 13 0 -2
BITMAP
00
40
20
00
00
88
88
A8
A8
A8
50
00
00
ENDCHAR
STARTCHAR U+1E82
ENCODING 7810
SWIDTH 480 0
DWIDTH 6 0
BBX 6 13 0 -2
BITMAP
00
10
20
00
88
88
A8
A8
A8
D8
88
00
00
ENDCHAR
STARTCHAR U+1E83
ENCODING 7811
SWIDTH 480 0
DWIDTH 6 0
BBX 6 13 0 -2
BITMAP
00
10
20
00
00
88
88
A8
A8
A8
50
00
00
ENDCHAR
STARTCHAR U+1E84
ENCODING 7812
SWIDTH 480 0
DWIDTH 6 0
BBX 6 13 0 -2
BITMAP
00
50
50
00
88
88
A8
A8
A8
D8
88
00
00
ENDCHAR
STARTCHAR U+1E85
ENCODING 7813
SWIDTH 480 0
DWIDTH 6 0
BBX 6 13 0 -2
BITMAP
00
50
50
00
00
88
88
A8
A8
A8
50
00
00
ENDCHAR
STARTCHAR U+1E86
ENCODING 7814
SWIDTH 480 0
DWIDTH 6 0
BBX 6 13 0 -2
BITMAP
00
20
20
00
88
88
A8
A8
A8
D8
88
00
00
ENDCHAR
STARTCHAR U+1E87
ENCODING 7815
SWIDTH 480 0
DWIDTH 6 0
BBX 6 13 0 -2
BITMAP
00
20
20
00
00
88
88
A8
A8
A8
50
00
00
ENDCHAR
STARTCHAR U+1E88
ENCODING 7816
SWIDTH 480 0
DWIDTH 6 0
BBX 6 13 0 -2
BITMAP
00
00
88
88
88
88
A8
A8
A8
D8
88
00
20
ENDCHAR
STARTCHAR U+1E89
ENCODING 7817
SWIDTH 480 0
DWIDTH 6 0
BBX 6 13 0 -2
BITMAP
00
00
00
00
00
88
88
A8
A8
A8
50
00
20
ENDCHAR
STARTCHAR U+1E8A
ENCODING 7818
SWIDTH 480 0
DWIDTH 6 0
BBX 6 13 0 -2
BITMAP
00
20
20
00
88
88
50
20
50
88
88
00
00
ENDCHAR
STARTCHAR U+1E8B
ENCODING 7819
SWIDTH 480 0
DWIDTH 6 0
BBX 6 13 0 -2
BITMAP
00
20
20
00
00
88
50
20
20
50
88
00
00
ENDCHAR
STARTCHAR U+1E8C
ENCODING 7820
SWIDTH 480 0
DWIDTH 6 0
BBX 6 13 0 -2
BITMAP
00
50
50
00
88
88
50
20
50
88
88
00
00
ENDCHAR
STARTCHAR U+1E8D
ENCODING 7821
SWIDTH 480 0
DWIDTH 6 0
BBX 6 13 0 -2
BITMAP
00
50
50
00
00
88
50
20
20
50
88
00
00
ENDCHAR
STARTCHAR U+1E8E
ENCODING 7822
SWIDTH 480 0
DWIDTH 6 0
BBX 6 13 0 -2
BITMAP
00
20
20
00
88
88
50
50
20
20
20
00
00
ENDCHAR
STARTCHAR U+1E8F
ENCODING 7823
SWIDTH 480 0
DWIDTH 6 0
BBX 6 13 0 -2
BITMAP
00
20
20
00
00
88
88
88
98
68
08
88
70
ENDCHAR
STARTCHAR U+1E90
ENCODING 7824
SWIDTH 480 0
DWIDTH 6 0
BBX 6 13 0 -2
BITMAP
00
30
48
00
F8
08
10
20
40
80
F8
00
00
ENDCHAR
STARTCHAR U+1E91
ENCODING 7825
SWIDTH 480 0
DWIDTH 6 0
BBX 6 13 0 -2
BITMAP
00
30
48
00
00
F8
10
20
40
80
F8
00
00
ENDCHAR
STARTCHAR U+1E92
ENCODING 7826
SWIDTH 480 0
DWIDTH 6 0
BBX 6 13 0 -2
BITMAP
00
00
F8
08
10
10
20
40
40
80
F8
00
20
ENDCHAR
STARTCHAR U+1E93
ENCODING 7827
SWIDTH 480 0
DWIDTH 6 0
BBX 6 13 0 -2
BITMAP
00
00
00
00
00
F8
10
20
40
80
F8
00
20
ENDCHAR
STARTCHAR U+1E94
ENCODING 7828
SWIDTH 480 0
DWIDTH 6 0
BBX 6 13 0 -2
BITMAP
00
00
F8
08
10
10
20
40
40
80
F8
00
F8
ENDCHAR
STARTCHAR U+1E95
ENCODING 7829
SWIDTH 480 0
DWIDTH 6 0
BBX 6 13 0 -2
BITMAP
00
00
00
00
00
F8
10
20
40
80
F8
00
F8
ENDCHAR
STARTCHAR U+1E96
ENCODING 7830
SWIDTH 480 0
DWIDTH 6 0
BBX 6 13 0 -2
BITMAP
00
00
80
80
80
B0
C8
88
88
88
88
00
F8
ENDCHAR
STARTCHAR U+1E97
ENCODING 7831
SWIDTH 480 0
DWIDTH 6 0
BBX 6 13 0 -2
BITMAP
00
50
50
00
40
40
F0
40
40
48
30
00
00
ENDCHAR
STARTCHAR U+1E98
ENCODING 7832
SWIDTH 480 0
DWIDTH 6 0
BBX 6 13 0 -2
BITMAP
00
20
50
20
00
88
88
A8
A8
A8
50
00
00
ENDCHAR
STARTCHAR U+1E99
ENCODING 7833
SWIDTH 480 0
DWIDTH 6 0
BBX 6 13 0 -2
BITMAP
00
20
50
20
00
88
88
88
98
68
08
88
70
ENDCHAR
STARTCHAR U+1E9A
ENCODING 7834
SWIDTH 480 0
DWIDTH 6 0
BBX 6 13 0 -2
BITMAP
08
04
04
08
00
70
08
78
88
88
78
00
00
ENDCHAR
STARTCHAR U+1E9B
ENCODING 7835
SWIDTH 480 0
DWIDTH 6 0
BBX 6 13 0 -2
BITMAP
00
20
20
00
30
48
40
C0
40
40
40
00
00
ENDCHAR
STARTCHAR U+1EA0
ENCODING 7840
SWIDTH 480 0
DWIDTH 6 0
BBX 6 13 0 -2
BITMAP
00
00
20
50
88
88
88
F8
88
88
88
00
20
ENDCHAR
STARTCHAR U+1EA1
ENCODING 7841
SWIDTH 480 0
DWIDTH 6 0
BBX 6 13 0 -2
BITMAP
00
00
00
00
00
70
08
78
88
88
78
00
20
ENDCHAR
STARTCHAR U+1EA2
ENCODING 7842
SWIDTH 480 0
DWIDTH 6 0
BBX 6 13 0 -2
BITMAP
20
50
10
20
20
50
88
88
F8
88
88
00
00
ENDCHAR
STARTCHAR U+1EA3
ENCODING 7843
SWIDTH 480 0
DWIDTH 6 0
BBX 6 13 0 -2
BITMAP
20
50
10
20
20
70
08
78
88
98
68
00
00
ENDCHAR
STARTCHAR U+1EA4
ENCODING 7844
SWIDTH 480 0
DWIDTH 6 0
BBX 6 13 0 -2
BITMAP
00
44
A8
00
20
50
88
88
F8
88
88
00
00
ENDCHAR
STARTCHAR U+1EA5
ENCODING 7845
SWIDTH 480 0
DWIDTH 6 0
BBX 6 13 0 -2
BITMAP
00
44
A8
00
00
70
08
78
88
98
68
00
00
ENDCHAR
STARTCHAR U+1EA6
ENCODING 7846
SWIDTH 480 0
DWIDTH 6 0
BBX 6 13 0 -2
BITMAP
00
88
54
00
20
50
88
88
F8
88
88
00
00
ENDCHAR
STARTCHAR U+1EA7
ENCODING 7847
SWIDTH 480 0
DWIDTH 6 0
BBX 6 13 0 -2
BITMAP
00
88
54
00
00
70
08
78
88
98
68
00
00
ENDCHAR
STARTCHAR U+1EA8
ENCODING 7848
SWIDTH 480 0
DWIDTH 6 0
BBX 6 13 0 -2
BITMAP
08
54
A4
08
28
50
88
88
F8
88
88
00
00
ENDCHAR
STARTCHAR U+1EA9
ENCODING 7849
SWIDTH 480 0
DWIDTH 6 0
BBX 6 13 0 -2
BITMAP
08
54
A4
08
08
70
08
78
88
98
68
00
00
ENDCHAR
STARTCHAR U+1EAA
ENCODING 7850
SWIDTH 480 0
DWIDTH 6 0
BBX 6 13 0 -2
BITMAP
28
50
00
30
48
20
50
88
F8
88
88
00
00
ENDCHAR
STARTCHAR U+1EAB
ENCODING 7851
SWIDTH 480 0
DWIDTH 6 0
BBX 6 13 0 -2
BITMAP
28
50
30
48
00
70
08
78
88
98
68
00
00
ENDCHAR
STARTCHAR U+1EAC
ENCODING 7852
SWIDTH 480 0
DWIDTH 6 0
BBX 6 13 0 -2
BITMAP
00
30
48
00
20
50
88
88
F8
88
88
00
20
ENDCHAR
STARTCHAR U+1EAD
ENCODING 7853
SWIDTH 480 0
DWIDTH 6 0
BBX 6 13 0 -2
BITMAP
00
30
48
00
00
70
08
78
88
98
68
00
20
ENDCHAR
STARTCHAR U+1EAE
ENCODING 7854
SWIDTH 480 0
DWIDTH 6 0
BBX 6 13 0 -2
BITMAP
10
20
88
70
00
20
50
88
F8
88
88
00
00
ENDCHAR
STARTCHAR U+1EAF
ENCODING 7855
SWIDTH 480 0
DWIDTH 6 0
BBX 6 13 0 -2
BITMAP
10
20
88
70
00
70
08
78
88
98
68
00
00
ENDCHAR
STARTCHAR U+1EB0
ENCODING 7856
SWIDTH 480 0
DWIDTH 6 0
BBX 6 13 0 -2
BITMAP
40
20
88
70
00
20
50
88
F8
88
88
00
00
ENDCHAR
STARTCHAR U+1EB1
ENCODING 7857
SWIDTH 480 0
DWIDTH 6 0
BBX 6 13 0 -2
BITMAP
40
20
88
70
00
70
08
78
88
98
68
00
00
ENDCHAR
STARTCHAR U+1EB2
ENCODING 7858
SWIDTH 480 0
DWIDTH 6 0
BBX 6 13 0 -2
BITMAP
20
50
10
A8
70
20
50
88
88
F8
88
00
00
ENDCHAR
STARTCHAR U+1EB3
ENCODING 7859
SWIDTH 480 0
DWIDTH 6 0
BBX 6 13 0 -2
BITMAP
20
50
10
A8
70
00
70
08
78
88
78
00
00
ENDCHAR
STARTCHAR U+1EB4
ENCODING 7860
SWIDTH 480 0
DWIDTH 6 0
BBX 6 13 0 -2
BITMAP
50
A0
88
70
00
20
50
88
F8
88
88
00
00
ENDCHAR
STARTCHAR U+1EB5
ENCODING 7861
SWIDTH 480 0
DWIDTH 6 0
BBX 6 13 0 -2
BITMAP
50
A0
88
70
00
70
08
78
88
98
68
00
00
ENDCHAR
STARTCHAR U+1EB6
ENCODING 7862
SWIDTH 480 0
DWIDTH 6 0
BBX 6 13 0 -2
BITMAP
00
88
70
00
20
50
88
88
F8
88
88
00
20
ENDCHAR
STARTCHAR U+1EB7
ENCODING 7863
SWIDTH 480 0
DWIDTH 6 0
BBX 6 13 0 -2
BITMAP
00
88
70
00
00
70
08
78
88
98
68
00
20
ENDCHAR
STARTCHAR U+1EB8
ENCODING 7864
SWIDTH 480 0
DWIDTH 6 0
BBX 6 13 0 -2
BITMAP
00
00
F8
80
80
80
F0
80
80
80
F8
00
20
ENDCHAR
STARTCHAR U+1EB9
ENCODING 7865
SWIDTH 480 0
DWIDTH 6 0
BBX 6 13 0 -2
BITMAP
00
00
00
00
00
70
88
F8
80
88
70
00
20
ENDCHAR
STARTCHAR U+1EBA
ENCODING 7866
SWIDTH 480 0
DWIDTH 6 0
BBX 6 13 0 -2
BITMAP
20
50
10
20
F8
80
80
F0
80
80
F8
00
00
ENDCHAR
STARTCHAR U+1EBB
ENCODING 7867
SWIDTH 480 0
DWIDTH 6 0
BBX 6 13 0 -2
BITMAP
20
50
10
20
20
70
88
F8
80
88
70
00
00
ENDCHAR
STARTCHAR U+1EBC
ENCODING 7868
SWIDTH 480 0
DWIDTH 6 0
BBX 6 13 0 -2
BITMAP
00
28
50
00
F8
80
80
F0
80
80
F8
00
00
ENDCHAR
STARTCHAR U+1EBD
ENCODING 7869
SWIDTH 480 0
DWIDTH 6 0
BBX 6 13 0 -2
BITMAP
00
28
50
00
00
70
88
F8
80
88
70
00
00
ENDCHAR
STARTCHAR U+1EBE
ENCODING 7870
SWIDTH 480 0
DWIDTH 6 0
BBX 6 13 0 -2
BITMAP
00
44
A8
00
F8
80
80
F0
80
80
F8
00
00
ENDCHAR
STARTCHAR U+1EBF
ENCODING 7871
SWIDTH 480 0
DWIDTH 6 0
BBX 6 13 0 -2
BITMAP
00
44
A8
00
00
70
88
F8
80
88
70
00
00
ENDCHAR
STARTCHAR U+1EC0
ENCODING 7872
SWIDTH 480 0
DWIDTH 6 0
BBX 6 13 0 -2
BITMAP
00
88
54
00
F8
80
80
F0
80
80
F8
00
00
ENDCHAR
STARTCHAR U+1EC1
ENCODING 7873
SWIDTH 480 0
DWIDTH 6 0
BBX 6 13 0 -2
BITMAP
00
88
54
00
00
70
88
F8
80
88
70
00
00
ENDCHAR
STARTCHAR U+1EC2
ENCODING 7874
SWIDTH 480 0
DWIDTH 6 0
BBX 6 13 0 -2
BITMAP
08
54
A8
08
00
F8
80
E0
80
80
F8
00
00
ENDCHAR
STARTCHAR U+1EC3
ENCODING 7875
SWIDTH 480 0
DWIDTH 6 0
BBX 6 13 0 -2
BITMAP
08
54
A8
08
00
70
88
F8
80
88
70
00
00
ENDCHAR
STARTCHAR U+1EC4
ENCODING 7876
SWIDTH 480 0
DWIDTH 6 0
BBX 6 13 0 -2
BITMAP
28
50
30
48
00
F8
80
F0
80
80
F8
00
00
ENDCHAR
STARTCHAR U+1EC5
ENCODING 7877
SWIDTH 480 0
DWIDTH 6 0
BBX 6 13 0 -2
BITMAP
28
50
30
48
00
70
88
F8
80
88
70
00
00
ENDCHAR
STARTCHAR U+1EC6
ENCODING 7878
SWIDTH 480 0
DWIDTH 6 0
BBX 6 13 0 -2
BITMAP
00
30
48
00
F8
80
80
F0
80
80
F8
00
20
ENDCHAR
STARTCHAR U+1EC7
ENCODING 7879
SWIDTH 480 0
DWIDTH 6 0
BBX 6 13 0 -2
BITMAP
00
30
48
00
00
70
88
F8
80
88
70
00
20
ENDCHAR
STARTCHAR U+1EC8
ENCODING 7880
SWIDTH 480 0
DWIDTH 6 0
BBX 6 13 0 -2
BITMAP
20
50
10
20
F8
20
20
20
20
20
F8
00
00
ENDCHAR
STARTCHAR U+1EC9
ENCODING 7881
SWIDTH 480 0
DWIDTH 6 0
BBX 6 13 0 -2
BITMAP
20
50
20
20
00
60
20
20
20
20
70
00
00
ENDCHAR
STARTCHAR U+1ECA
ENCODING 7882
SWIDTH 480 0
DWIDTH 6 0
BBX 6 13 0 -2
BITMAP
00
00
70
20
20
20
20
20
20
20
70
00
20
ENDCHAR
STARTCHAR U+1ECB
ENCODING 7883
SWIDTH 480 0
DWIDTH 6 0
BBX 6 13 0 -2
BITMAP
00
00
00
20
00
60
20
20
20
20
F8
00
20
ENDCHAR
STARTCHAR U+1ECC
ENCODING 7884
SWIDTH 480 0
DWIDTH 6 0
BBX 6 13 0 -2
BITMAP
00
00
70
88
88
88
88
88
88
88
70
00
20
ENDCHAR
STARTCHAR U+1ECD
ENCODING 7885
SWIDTH 480 0
DWIDTH 6 0
BBX 6 13 0 -2
BITMAP
00
00
00
00
00
70
88
88
88
88
70
00
20
ENDCHAR
STARTCHAR U+1ECE
ENCODING 7886
SWIDTH 480 0
DWIDTH 6 0
BBX 6 13 0 -2
BITMAP
20
50
10
20
70
88
88
88
88
88
70
00
00
ENDCHAR
STARTCHAR U+1ECF
ENCODING 7887
SWIDTH 480 0
DWIDTH 6 0
BBX 6 13 0 -2
BITMAP
20
50
10
20
20
70
88
88
88
88
70
00
00
ENDCHAR
STARTCHAR U+1ED0
ENCODING 7888
SWIDTH 480 0
DWIDTH 6 0
BBX 6 13 0 -2
BITMAP
00
44
A8
00
70
88
88
88
88
88
70
00
00
ENDCHAR
STARTCHAR U+1ED1
ENCODING 7889
SWIDTH 480 0
DWIDTH 6 0
BBX 6 13 0 -2
BITMAP
00
44
A8
00
00
70
88
88
88
88
70
00
00
ENDCHAR
STARTCHAR U+1ED2
ENCODING 7890
SWIDTH 480 0
DWIDTH 6 0
BBX 6 13 0 -2
BITMAP
00
88
54
00
70
88
88
88
88
88
70
00
00
ENDCHAR
STARTCHAR U+1ED3
ENCODING 7891
SWIDTH 480 0
DWIDTH 6 0
BBX 6 13 0 -2
BITMAP
00
88
54
00
00
70
88
88
88
88
70
00
00
ENDCHAR
STARTCHAR U+1ED4
ENCODING 7892
SWIDTH 480 0
DWIDTH 6 0
BBX 6 13 0 -2
BITMAP
08
54
A4
08
78
88
88
88
88
88
70
00
00
ENDCHAR
STARTCHAR U+1ED5
ENCODING 7893
SWIDTH 480 0
DWIDTH 6 0
BBX 6 13 0 -2
BITMAP
08
54
A4
08
08
70
88
88
88
88
70
00
00
ENDCHAR
STARTCHAR U+1ED6
ENCODING 7894
SWIDTH 480 0
DWIDTH 6 0
BBX 6 13 0 -2
BITMAP
28
50
38
48
70
88
88
88
88
88
70
00
00
ENDCHAR
STARTCHAR U+1ED7
ENCODING 7895
SWIDTH 480 0
DWIDTH 6 0
BBX 6 13 0 -2
BITMAP
28
50
30
48
00
70
88
88
88
88
70
00
00
ENDCHAR
STARTCHAR U+1ED8
ENCODING 7896
SWIDTH 480 0
DWIDTH 6 0
BBX 6 13 0 -2
BITMAP
00
30
48
00
70
88
88
88
88
88
70
00
20
ENDCHAR
STARTCHAR U+1ED9
ENCODING 7897
SWIDTH 480 0
DWIDTH 6 0
BBX 6 13 0 -2
BITMAP
00
30
48
00
00
70
88
88
88
88
70
00
20
ENDCHAR
STARTCHAR U+1EDA
ENCODING 7898
SWIDTH 480 0
DWIDTH 6 0
BBX 6 13 0 -2
BITMAP
00
20
40
00
64
94
98
90
90
90
60
00
00
ENDCHAR
STARTCHAR U+1EDB
ENCODING 7899
SWIDTH 480 0
DWIDTH 6 0
BBX 6 13 0 -2
BITMAP
00
20
40
00
00
64
94
98
90
90
60
00
00
ENDCHAR
STARTCHAR U+1EDC
ENCODING 7900
SWIDTH 480 0
DWIDTH 6 0
BBX 6 13 0 -2
BITMAP
00
40
20
00
64
94
98
90
90
90
60
00
00
ENDCHAR
STARTCHAR U+1EDD
ENCODING 7901
SWIDTH 480 0
DWIDTH 6 0
BBX 6 13 0 -2
BITMAP
00
40
20
00
00
64
94
98
90
90
60
00
00
ENDCHAR
STARTCHAR U+1EDE
ENCODING 7902
SWIDTH 480 0
DWIDTH 6 0
BBX 6 13 0 -2
BITMAP
20
50
10
20
64
94
98
90
90
90
60
00
00
ENDCHAR
STARTCHAR U+1EDF
ENCODING 7903
SWIDTH 480 0
DWIDTH 6 0
BBX 6 13 0 -2
BITMAP
20
50
10
20
20
64
94
98
90
90
60
00
00
ENDCHAR
STARTCHAR U+1EE0
ENCODING 7904
SWIDTH 480 0
DWIDTH 6 0
BBX 6 13 0 -2
BITMAP
00
50
A0
00
64
94
98
90
90
90
60
00
00
ENDCHAR
STARTCHAR U+1EE1
ENCODING 7905
SWIDTH 480 0
DWIDTH 6 0
BBX 6 13 0 -2
BITMAP
00
50
A0
00
00
64
94
98
90
90
60
00
00
ENDCHAR
STARTCHAR U+1EE2
ENCODING 7906
SWIDTH 480 0
DWIDTH 6 0
BBX 6 13 0 -2
BITMAP
00
00
64
94
98
90
90
90
90
90
60
00
20
ENDCHAR
STARTCHAR U+1EE3
ENCODING 7907
SWIDTH 480 0
DWIDTH 6 0
BBX 6 13 0 -2
BITMAP
00
00
00
00
00
64
94
98
90
90
60
00
20
ENDCHAR
STARTCHAR U+1EE4
ENCODING 7908
SWIDTH 480 0
DWIDTH 6 0
BBX 6 13 0 -2
BITMAP
00
00
88
88
88
88
88
88
88
88
70
00
20
ENDCHAR
STARTCHAR U+1EE5
ENCODING 7909
SWIDTH 480 0
DWIDTH 6 0
BBX 6 13 0 -2
BITMAP
00
00
00
00
00
88
88
88
88
88
78
00
20
ENDCHAR
STARTCHAR U+1EE6
ENCODING 7910
SWIDTH 480 0
DWIDTH 6 0
BBX 6 13 0 -2
BITMAP
20
50
10
20
A8
88
88
88
88
88
70
00
00
ENDCHAR
STARTCHAR U+1EE7
ENCODING 7911
SWIDTH 480 0
DWIDTH 6 0
BBX 6 13 0 -2
BITMAP
20
50
10
20
20
88
88
88
88
88
78
00
00
ENDCHAR
STARTCHAR U+1EE8
ENCODING 7912
SWIDTH 480 0
DWIDTH 6 0
BBX 6 13 0 -2
BITMAP
00
20
40
00
94
94
98
90
90
90
60
00
00
ENDCHAR
STARTCHAR U+1EE9
ENCODING 7913
SWIDTH 480 0
DWIDTH 6 0
BBX 6 13 0 -2
BITMAP
00
20
40
00
00
94
94
98
90
90
70
00
00
ENDCHAR
STARTCHAR U+1EEA
ENCODING 7914
SWIDTH 480 0
DWIDTH 6 0
BBX 6 13 0 -2
BITMAP
00
40
20
00
94
94
98
90
90
90
60
00
00
ENDCHAR
STARTCHAR U+1EEB
ENCODING 7915
SWIDTH 480 0
DWIDTH 6 0
BBX 6 13 0 -2
BITMAP
00
40
20
00
00
94
94
98
90
90
70
00
00
ENDCHAR
STARTCHAR U+1EEC
ENCODING 7916
SWIDTH 480 0
DWIDTH 6 0
BBX 6 13 0 -2
BITMAP
20
50
10
20
B4
94
98
90
90
90
60
00
00
ENDCHAR
STARTCHAR U+1EED
ENCODING 7917
SWIDTH 480 0
DWIDTH 6 0
BBX 6 13 0 -2
BITMAP
20
50
10
20
20
94
94
98
90
90
70
00
00
ENDCHAR
STARTCHAR U+1EEE
ENCODING 7918
SWIDTH 480 0
DWIDTH 6 0
BBX 6 13 0 -2
BITMAP
00
50
A0
00
94
94
98
90
90
90
60
00
00
ENDCHAR
STARTCHAR U+1EEF
ENCODING 7919
SWIDTH 480 0
DWIDTH 6 0
BBX 6 13 0 -2
BITMAP
00
50
A0
00
00
94
94
98
90
90
70
00
00
ENDCHAR
STARTCHAR U+1EF0
ENCODING 7920
SWIDTH 480 0
DWIDTH 6 0
BBX 6 13 0 -2
BITMAP
00
00
00
00
94
94
98
90
90
90
60
00
20
ENDCHAR
STARTCHAR U+1EF1
ENCODING 7921
SWIDTH 480 0
DWIDTH 6 0
BBX 6 13 0 -2
BITMAP
00
00
00
00
00
94
94
98
90
90
70
00
20
ENDCHAR
STARTCHAR U+1EF2
ENCODING 7922
SWIDTH 480 0
DWIDTH 6 0
BBX 6 13 0 -2
BITMAP
00
40
20
00
88
88
50
50
20
20
20
00
00
ENDCHAR
STARTCHAR U+1EF3
ENCODING 7923
SWIDTH 480 0
DWIDTH 6 0
BBX 6 13 0 -2
BITMAP
00
40
20
00
00
88
88
88
98
68
08
88
70
ENDCHAR
STARTCHAR U+1EF4
ENCODING 7924
SWIDTH 480 0
DWIDTH 6 0
BBX 6 13 0 -2
BITMAP
00
00
88
88
50
50
20
20
20
20
20
00
20
ENDCHAR
STARTCHAR U+1EF5
ENCODING 7925
SWIDTH 480 0
DWIDTH 6 0
BBX 6 13 0 -2
BITMAP
00
00
00
88
88
88
98
68
08
88
70
00
20
ENDCHAR
STARTCHAR U+1EF6
ENCODING 7926
SWIDTH 480 0
DWIDTH 6 0
BBX 6 13 0 -2
BITMAP
20
50
10
20
88
50
50
20
20
20
20
00
00
ENDCHAR
STARTCHAR U+1EF7
ENCODING 7927
SWIDTH 480 0
DWIDTH 6 0
BBX 6 13 0 -2
BITMAP
20
50
10
20
20
88
88
88
98
68
08
88
70
ENDCHAR
STARTCHAR U+1EF8
ENCODING 7928
SWIDTH 480 0
DWIDTH 6 0
BBX 6 13 0 -2
BITMAP
00
28
50
00
88
50
50
20
20
20
20
00
00
ENDCHAR
STARTCHAR U+1EF9
ENCODING 7929
SWIDTH 480 0
DWIDTH 6 0
BBX 6 13 0 -2
BITMAP
00
28
50
00
00
88
88
88
98
68
08
88
70
ENDCHAR
STARTCHAR U+1F00
ENCODING 7936
SWIDTH 480 0
DWIDTH 6 0
BBX 6 13 0 -2
BITMAP
00
30
10
20
00
70
88
88
88
98
68
00
00
ENDCHAR
STARTCHAR U+1F01
ENCODING 7937
SWIDTH 480 0
DWIDTH 6 0
BBX 6 13 0 -2
BITMAP
00
30
20
10
00
70
88
88
88
98
68
00
00
ENDCHAR
STARTCHAR U+1F02
ENCODING 7938
SWIDTH 480 0
DWIDTH 6 0
BBX 6 13 0 -2
BITMAP
00
D0
48
80
00
70
88
88
88
98
68
00
00
ENDCHAR
STARTCHAR U+1F03
ENCODING 7939
SWIDTH 480 0
DWIDTH 6 0
BBX 6 13 0 -2
BITMAP
00
D0
88
40
00
70
88
88
88
98
68
00
00
ENDCHAR
STARTCHAR U+1F04
ENCODING 7940
SWIDTH 480 0
DWIDTH 6 0
BBX 6 13 0 -2
BITMAP
00
C8
50
80
00
70
88
88
88
98
68
00
00
ENDCHAR
STARTCHAR U+1F05
ENCODING 7941
SWIDTH 480 0
DWIDTH 6 0
BBX 6 13 0 -2
BITMAP
00
C8
90
40
00
70
88
88
88
98
68
00
00
ENDCHAR
STARTCHAR U+1F06
ENCODING 7942
SWIDTH 480 0
DWIDTH 6 0
BBX 6 13 0 -2
BITMAP
68
B0
10
20
00
70
88
88
88
98
68
00
00
ENDCHAR
STARTCHAR U+1F07
ENCODING 7943
SWIDTH 480 0
DWIDTH 6 0
BBX 6 13 0 -2
BITMAP
68
B0
20
10
00
70
88
88
88
98
68
00
00
ENDCHAR
STARTCHAR U+1F08
ENCODING 7944
SWIDTH 480 0
DWIDTH 6 0
BBX 6 13 0 -2
BITMAP
00
00
D0
68
A8
28
28
38
28
28
28
00
00
ENDCHAR
STARTCHAR U+1F09
ENCODING 7945
SWIDTH 480 0
DWIDTH 6 0
BBX 6 13 0 -2
BITMAP
00
00
D0
A8
68
28
28
38
28
28
28
00
00
ENDCHAR
STARTCHAR U+1F0A
ENCODING 7946
SWIDTH 480 0
DWIDTH 6 0
BBX 6 13 0 -2
BITMAP
00
00
D0
68
A8
A8
68
38
28
28
28
00
00
ENDCHAR
STARTCHAR U+1F0B
ENCODING 7947
SWIDTH 480 0
DWIDTH 6 0
BBX 6 13 0 -2
BITMAP
00
00
D0
A8
68
A8
68
38
28
28
28
00
00
ENDCHAR
STARTCHAR U+1F0C
ENCODING 7948
SWIDTH 480 0
DWIDTH 6 0
BBX 6 13 0 -2
BITMAP
00
00
D0
68
A8
68
A8
38
28
28
28
00
00
ENDCHAR
STARTCHAR U+1F0D
ENCODING 7949
SWIDTH 480 0
DWIDTH 6 0
BBX 6 13 0 -2
BITMAP
00
00
D0
A8
68
68
A8
38
28
28
28
00
00
ENDCHAR
STARTCHAR U+1F0E
ENCODING 7950
SWIDTH 480 0
DWIDTH 6 0
BBX 6 13 0 -2
BITMAP
00
00
D0
28
E8
68
A8
38
28
28
28
00
00
ENDCHAR
STARTCHAR U+1F0F
ENCODING 7951
SWIDTH 480 0
DWIDTH 6 0
BBX 6 13 0 -2
BITMAP
00
00
D0
28
E8
A8
68
38
28
28
28
00
00
ENDCHAR
STARTCHAR U+1F10
ENCODING 7952
SWIDTH 480 0
DWIDTH 6 0
BBX 6 13 0 -2
BITMAP
00
30
10
20
00
70
88
60
80
88
70
00
00
ENDCHAR
STARTCHAR U+1F11
ENCODING 7953
SWIDTH 480 0
DWIDTH 6 0
BBX 6 13 0 -2
BITMAP
00
30
20
10
00
70
88
60
80
88
70
00
00
ENDCHAR
STARTCHAR U+1F12
ENCODING 7954
SWIDTH 480 0
DWIDTH 6 0
BBX 6 13 0 -2
BITMAP
00
D0
48
80
00
70
88
60
80
88
70
00
00
ENDCHAR
STARTCHAR U+1F13
ENCODING 7955
SWIDTH 480 0
DWIDTH 6 0
BBX 6 13 0 -2
BITMAP
00
D0
88
40
00
70
88
60
80
88
70
00
00
ENDCHAR
STARTCHAR U+1F14
ENCODING 7956
SWIDTH 480 0
DWIDTH 6 0
BBX 6 13 0 -2
BITMAP
00
C8
50
80
00
70
88
60
80
88
70
00
00
ENDCHAR
STARTCHAR U+1F15
ENCODING 7957
SWIDTH 480 0
DWIDTH 6 0
BBX 6 13 0 -2
BITMAP
00
C8
90
40
00
70
88
60
80
88
70
00
00
ENDCHAR
STARTCHAR U+1F18
ENCODING 7960
SWIDTH 480 0
DWIDTH 6 0
BBX 6 13 0 -2
BITMAP
00
00
F8
60
A0
20
30
20
20
20
38
00
00
ENDCHAR
STARTCHAR U+1F19
ENCODING 7961
SWIDTH 480 0
DWIDTH 6 0
BBX 6 13 0 -2
BITMAP
00
00
F8
A0
60
20
30
20
20
20
38
00
00
ENDCHAR
STARTCHAR U+1F1A
ENCODING 7962
SWIDTH 480 0
DWIDTH 6 0
BBX 6 13 0 -2
BITMAP
00
00
F8
60
A0
A0
70
20
20
20
38
00
00
ENDCHAR
STARTCHAR U+1F1B
ENCODING 7963
SWIDTH 480 0
DWIDTH 6 0
BBX 6 13 0 -2
BITMAP
00
00
F8
A0
60
A0
70
20
20
20
38
00
00
ENDCHAR
STARTCHAR U+1F1C
ENCODING 7964
SWIDTH 480 0
DWIDTH 6 0
BBX 6 13 0 -2
BITMAP
00
00
F8
60
A0
60
B0
20
20
20
38
00
00
ENDCHAR
STARTCHAR U+1F1D
ENCODING 7965
SWIDTH 480 0
DWIDTH 6 0
BBX 6 13 0 -2
BITMAP
00
00
F8
A0
60
60
B0
20
20
20
38
00
00
ENDCHAR
STARTCHAR U+1F20
ENCODING 7968
SWIDTH 480 0
DWIDTH 6 0
BBX 6 13 0 -2
BITMAP
00
30
10
20
00
B0
C8
88
88
88
88
08
08
ENDCHAR
STARTCHAR U+1F21
ENCODING 7969
SWIDTH 480 0
DWIDTH 6 0
BBX 6 13 0 -2
BITMAP
00
30
20
10
00
B0
C8
88
88
88
88
08
08
ENDCHAR
STARTCHAR U+1F22
ENCODING 7970
SWIDTH 480 0
DWIDTH 6 0
BBX 6 13 0 -2
BITMAP
00
D0
48
80
00
B0
C8
88
88
88
88
08
08
ENDCHAR
STARTCHAR U+1F23
ENCODING 7971
SWIDTH 480 0
DWIDTH 6 0
BBX 6 13 0 -2
BITMAP
00
D0
88
40
00
B0
C8
88
88
88
88
08
08
ENDCHAR
STARTCHAR U+1F24
ENCODING 7972
SWIDTH 480 0
DWIDTH 6 0
BBX 6 13 0 -2
BITMAP
00
C8
50
80
00
B0
C8
88
88
88
88
08
08
ENDCHAR
STARTCHAR U+1F25
ENCODING 7973
SWIDTH 480 0
DWIDTH 6 0
BBX 6 13 0 -2
BITMAP
00
C8
90
40
00
B0
C8
88
88
88
88
08
08
ENDCHAR
STARTCHAR U+1F26
ENCODING 7974
SWIDTH 480 0
DWIDTH 6 0
BBX 6 13 0 -2
BITMAP
68
B0
10
20
00
B0
C8
88
88
88
88
08
08
ENDCHAR
STARTCHAR U+1F27
ENCODING 7975
SWIDTH 480 0
DWIDTH 6 0
BBX 6 13 0 -2
BITMAP
68
B0
20
10
00
B0
C8
88
88
88
88
08
08
ENDCHAR
STARTCHAR U+1F28
ENCODING 7976
SWIDTH 480 0
DWIDTH 6 0
BBX 6 13 0 -2
BITMAP
00
00
E8
68
A8
28
38
28
28
28
28
00
00
ENDCHAR
STARTCHAR U+1F29
ENCODING 7977
SWIDTH 480 0
DWIDTH 6 0
BBX 6 13 0 -2
BITMAP
00
00
E8
A8
68
28
38
28
28
28
28
00
00
ENDCHAR
STARTCHAR U+1F2A
ENCODING 7978
SWIDTH 480 0
DWIDTH 6 0
BBX 6 13 0 -2
BITMAP
00
00
E8
68
A8
A8
78
28
28
28
28
00
00
ENDCHAR
STARTCHAR U+1F2B
ENCODING 7979
SWIDTH 480 0
DWIDTH 6 0
BBX 6 13 0 -2
BITMAP
00
00
E8
A8
68
A8
78
28
28
28
28
00
00
ENDCHAR
STARTCHAR U+1F2C
ENCODING 7980
SWIDTH 480 0
DWIDTH 6 0
BBX 6 13 0 -2
BITMAP
00
00
E8
68
A8
68
B8
28
28
28
28
00
00
ENDCHAR
STARTCHAR U+1F2D
ENCODING 7981
SWIDTH 480 0
DWIDTH 6 0
BBX 6 13 0 -2
BITMAP
00
00
E8
A8
68
68
B8
28
28
28
28
00
00
ENDCHAR
STARTCHAR U+1F2E
ENCODING 7982
SWIDTH 480 0
DWIDTH 6 0
BBX 6 13 0 -2
BITMAP
00
00
E8
28
E8
68
B8
28
28
28
28
00
00
ENDCHAR
STARTCHAR U+1F2F
ENCODING 7983
SWIDTH 480 0
DWIDTH 6 0
BBX 6 13 0 -2
BITMAP
00
00
E8
28
E8
A8
78
28
28
28
28
00
00
ENDCHAR
STARTCHAR U+1F30
ENCODING 7984
SWIDTH 480 0
DWIDTH 6 0
BBX 6 13 0 -2
BITMAP
00
30
10
20
00
20
20
20
20
20
10
00
00
ENDCHAR
STARTCHAR U+1F31
ENCODING 7985
SWIDTH 480 0
DWIDTH 6 0
BBX 6 13 0 -2
BITMAP
00
30
20
10
00
20
20
20
20
20
10
00
00
ENDCHAR
STARTCHAR U+1F32
ENCODING 7986
SWIDTH 480 0
DWIDTH 6 0
BBX 6 13 0 -2
BITMAP
00
D0
48
80
00
20
20
20
20
20
10
00
00
ENDCHAR
STARTCHAR U+1F33
ENCODING 7987
SWIDTH 480 0
DWIDTH 6 0
BBX 6 13 0 -2
BITMAP
00
D0
88
40
00
20
20
20
20
20
10
00
00
ENDCHAR
STARTCHAR U+1F34
ENCODING 7988
SWIDTH 480 0
DWIDTH 6 0
BBX 6 13 0 -2
BITMAP
00
C8
50
80
00
20
20
20
20
20
10
00
00
ENDCHAR
STARTCHAR U+1F35
ENCODING 7989
SWIDTH 480 0
DWIDTH 6 0
BBX 6 13 0 -2
BITMAP
00
C8
90
40
00
20
20
20
20
20
10
00
00
ENDCHAR
STARTCHAR U+1F36
ENCODING 7990
SWIDTH 480 0
DWIDTH 6 0
BBX 6 13 0 -2
BITMAP
68
B0
10
20
00
20
20
20
20
20
10
00
00
ENDCHAR
STARTCHAR U+1F37
ENCODING 7991
SWIDTH 480 0
DWIDTH 6 0
BBX 6 13 0 -2
BITMAP
68
B0
20
10
00
20
20
20
20
20
10
00
00
ENDCHAR
STARTCHAR U+1F38
ENCODING 7992
SWIDTH 480 0
DWIDTH 6 0
BBX 6 13 0 -2
BITMAP
00
00
F8
50
90
10
10
10
10
10
38
00
00
ENDCHAR
STARTCHAR U+1F39
ENCODING 7993
SWIDTH 480 0
DWIDTH 6 0
BBX 6 13 0 -2
BITMAP
00
00
F8
90
50
10
10
10
10
10
38
00
00
ENDCHAR
STARTCHAR U+1F3A
ENCODING 7994
SWIDTH 480 0
DWIDTH 6 0
BBX 6 13 0 -2
BITMAP
00
00
F8
50
90
90
50
10
10
10
38
00
00
ENDCHAR
STARTCHAR U+1F3B
ENCODING 7995
SWIDTH 480 0
DWIDTH 6 0
BBX 6 13 0 -2
BITMAP
00
00
F8
90
50
90
50
10
10
10
38
00
00
ENDCHAR
STARTCHAR U+1F3C
ENCODING 7996
SWIDTH 480 0
DWIDTH 6 0
BBX 6 13 0 -2
BITMAP
00
00
F8
50
90
50
90
10
10
10
38
00
00
ENDCHAR
STARTCHAR U+1F3D
ENCODING 7997
SWIDTH 480 0
DWIDTH 6 0
BBX 6 13 0 -2
BITMAP
00
00
F8
90
50
30
50
10
10
10
38
00
00
ENDCHAR
STARTCHAR U+1F3E
ENCODING 7998
SWIDTH 480 0
DWIDTH 6 0
BBX 6 13 0 -2
BITMAP
00
00
F8
10
D0
50
90
10
10
10
38
00
00
ENDCHAR
STARTCHAR U+1F3F
ENCODING 7999
SWIDTH 480 0
DWIDTH 6 0
BBX 6 13 0 -2
BITMAP
00
00
F8
10
D0
90
50
10
10
10
38
00
00
ENDCHAR
STARTCHAR U+1F40
ENCODING 8000
SWIDTH 480 0
DWIDTH 6 0
BBX 6 13 0 -2
BITMAP
00
30
10
20
00
70
88
88
88
88
70
00
00
ENDCHAR
STARTCHAR U+1F41
ENCODING 8001
SWIDTH 480 0
DWIDTH 6 0
BBX 6 13 0 -2
BITMAP
00
30
20
10
00
70
88
88
88
88
70
00
00
ENDCHAR
STARTCHAR U+1F42
ENCODING 8002
SWIDTH 480 0
DWIDTH 6 0
BBX 6 13 0 -2
BITMAP
00
D0
48
80
00
70
88
88
88
88
70
00
00
ENDCHAR
STARTCHAR U+1F43
ENCODING 8003
SWIDTH 480 0
DWIDTH 6 0
BBX 6 13 0 -2
BITMAP
00
D0
88
40
00
70
88
88
88
88
70
00
00
ENDCHAR
STARTCHAR U+1F44
ENCODING 8004
SWIDTH 480 0
DWIDTH 6 0
BBX 6 13 0 -2
BITMAP
00
C8
50
80
00
70
88
88
88
88
70
00
00
ENDCHAR
STARTCHAR U+1F45
ENCODING 8005
SWIDTH 480 0
DWIDTH 6 0
BBX 6 13 0 -2
BITMAP
00
C8
90
40
00
70
88
88
88
88
70
00
00
ENDCHAR
STARTCHAR U+1F48
ENCODING 8008
SWIDTH 480 0
DWIDTH 6 0
BBX 6 13 0 -2
BITMAP
00
00
D0
68
A8
28
28
28
28
28
10
00
00
ENDCHAR
STARTCHAR U+1F49
ENCODING 8009
SWIDTH 480 0
DWIDTH 6 0
BBX 6 13 0 -2
BITMAP
00
00
D0
A8
68
28
28
28
28
28
10
00
00
ENDCHAR
STARTCHAR U+1F4A
ENCODING 8010
SWIDTH 480 0
DWIDTH 6 0
BBX 6 13 0 -2
BITMAP
00
00
D0
68
A8
A8
68
28
28
28
10
00
00
ENDCHAR
STARTCHAR U+1F4B
ENCODING 8011
SWIDTH 480 0
DWIDTH 6 0
BBX 6 13 0 -2
BITMAP
00
00
D0
A8
68
A8
68
28
28
28
10
00
00
ENDCHAR
STARTCHAR U+1F4C
ENCODING 8012
SWIDTH 480 0
DWIDTH 6 0
BBX 6 13 0 -2
BITMAP
00
00
D0
68
A8
68
A8
28
28
28
10
00
00
ENDCHAR
STARTCHAR U+1F4D
ENCODING 8013
SWIDTH 480 0
DWIDTH 6 0
BBX 6 13 0 -2
BITMAP
00
00
D0
A8
68
68
A8
28
28
28
10
00
00
ENDCHAR
STARTCHAR U+1F50
ENCODING 8016
SWIDTH 480 0
DWIDTH 6 0
BBX 6 13 0 -2
BITMAP
00
30
10
20
00
88
88
88
88
88
70
00
00
ENDCHAR
STARTCHAR U+1F51
ENCODING 8017
SWIDTH 480 0
DWIDTH 6 0
BBX 6 13 0 -2
BITMAP
00
30
20
10
00
88
88
88
88
88
70
00
00
ENDCHAR
STARTCHAR U+1F52
ENCODING 8018
SWIDTH 480 0
DWIDTH 6 0
BBX 6 13 0 -2
BITMAP
00
D0
48
80
00
88
88
88
88
88
70
00
00
ENDCHAR
STARTCHAR U+1F53
ENCODING 8019
SWIDTH 480 0
DWIDTH 6 0
BBX 6 13 0 -2
BITMAP
00
D0
88
40
00
88
88
88
88
88
70
00
00
ENDCHAR
STARTCHAR U+1F54
ENCODING 8020
SWIDTH 480 0
DWIDTH 6 0
BBX 6 13 0 -2
BITMAP
00
C8
50
80
00
88
88
88
88
88
70
00
00
ENDCHAR
STARTCHAR U+1F55
ENCODING 8021
SWIDTH 480 0
DWIDTH 6 0
BBX 6 13 0 -2
BITMAP
00
C8
90
40
00
88
88
88
88
88
70
00
00
ENDCHAR
STARTCHAR U+1F56
ENCODING 8022
SWIDTH 480 0
DWIDTH 6 0
BBX 6 13 0 -2
BITMAP
68
B0
10
20
00
88
88
88
88
88
70
00
00
ENDCHAR
STARTCHAR U+1F57
ENCODING 8023
SWIDTH 480 0
DWIDTH 6 0
BBX 6 13 0 -2
BITMAP
68
B0
20
10
00
88
88
88
88
88
70
00
00
ENDCHAR
STARTCHAR U+1F59
ENCODING 8025
SWIDTH 480 0
DWIDTH 6 0
BBX 6 13 0 -2
BITMAP
00
00
E8
A8
68
28
10
10
10
10
10
00
00
ENDCHAR
STARTCHAR U+1F5B
ENCODING 8027
SWIDTH 480 0
DWIDTH 6 0
BBX 6 13 0 -2
BITMAP
00
00
E8
A8
68
A8
50
10
10
10
10
00
00
ENDCHAR
STARTCHAR U+1F5D
ENCODING 8029
SWIDTH 480 0
DWIDTH 6 0
BBX 6 13 0 -2
BITMAP
00
00
E8
A8
68
68
90
10
10
10
10
00
00
ENDCHAR
STARTCHAR U+1F5F
ENCODING 8031
SWIDTH 480 0
DWIDTH 6 0
BBX 6 13 0 -2
BITMAP
00
00
E8
28
E8
A8
50
10
10
10
10
00
00
ENDCHAR
STARTCHAR U+1F60
ENCODING 8032
SWIDTH 480 0
DWIDTH 6 0
BBX 6 13 0 -2
BITMAP
00
30
10
20
00
88
A8
A8
A8
A8
50
00
00
ENDCHAR
STARTCHAR U+1F61
ENCODING 8033
SWIDTH 480 0
DWIDTH 6 0
BBX 6 13 0 -2
BITMAP
00
30
20
10
00
88
A8
A8
A8
A8
50
00
00
ENDCHAR
STARTCHAR U+1F62
ENCODING 8034
SWIDTH 480 0
DWIDTH 6 0
BBX 6 13 0 -2
BITMAP
00
D0
48
80
00
88
A8
A8
A8
A8
50
00
00
ENDCHAR
STARTCHAR U+1F63
ENCODING 8035
SWIDTH 480 0
DWIDTH 6 0
BBX 6 13 0 -2
BITMAP
00
D0
88
40
00
88
A8
A8
A8
A8
50
00
00
ENDCHAR
STARTCHAR U+1F64
ENCODING 8036
SWIDTH 480 0
DWIDTH 6 0
BBX 6 13 0 -2
BITMAP
00
C8
50
80
00
88
A8
A8
A8
A8
50
00
00
ENDCHAR
STARTCHAR U+1F65
ENCODING 8037
SWIDTH 480 0
DWIDTH 6 0
BBX 6 13 0 -2
BITMAP
00
C8
90
40
00
88
A8
A8
A8
A8
50
00
00
ENDCHAR
STARTCHAR U+1F66
ENCODING 8038
SWIDTH 480 0
DWIDTH 6 0
BBX 6 13 0 -2
BITMAP
68
B0
10
20
00
88
A8
A8
A8
A8
50
00
00
ENDCHAR
STARTCHAR U+1F67
ENCODING 8039
SWIDTH 480 0
DWIDTH 6 0
BBX 6 13 0 -2
BITMAP
68
B0
20
10
00
88
A8
A8
A8
A8
50
00
00
ENDCHAR
STARTCHAR U+1F68
ENCODING 8040
SWIDTH 480 0
DWIDTH 6 0
BBX 6 13 0 -2
BITMAP
00
00
D0
68
A8
28
28
28
10
10
28
00
00
ENDCHAR
STARTCHAR U+1F69
ENCODING 8041
SWIDTH 480 0
DWIDTH 6 0
BBX 6 13 0 -2
BITMAP
00
00
D0
A8
68
28
28
28
10
10
28
00
00
ENDCHAR
STARTCHAR U+1F6A
ENCODING 8042
SWIDTH 480 0
DWIDTH 6 0
BBX 6 13 0 -2
BITMAP
00
00
D0
68
A8
A8
68
28
10
10
28
00
00
ENDCHAR
STARTCHAR U+1F6B
ENCODING 8043
SWIDTH 480 0
DWIDTH 6 0
BBX 6 13 0 -2
BITMAP
00
00
D0
A8
68
A8
68
28
10
10
28
00
00
ENDCHAR
STARTCHAR U+1F6C
ENCODING 8044
SWIDTH 480 0
DWIDTH 6 0
BBX 6 13 0 -2
BITMAP
00
00
D0
68
A8
68
A8
28
10
10
28
00
00
ENDCHAR
STARTCHAR U+1F6D
ENCODING 8045
SWIDTH 480 0
DWIDTH 6 0
BBX 6 13 0 -2
BITMAP
00
00
D0
A8
68
68
A8
28
10
10
28
00
00
ENDCHAR
STARTCHAR U+1F6E
ENCODING 8046
SWIDTH 480 0
DWIDTH 6 0
BBX 6 13 0 -2
BITMAP
00
00
D0
28
E8
68
A8
28
10
10
28
00
00
ENDCHAR
STARTCHAR U+1F6F
ENCODING 8047
SWIDTH 480 0
DWIDTH 6 0
BBX 6 13 0 -2
BITMAP
00
00
D0
28
E8
A8
68
28
10
10
28
00
00
ENDCHAR
STARTCHAR U+1F70
ENCODING 8048
SWIDTH 480 0
DWIDTH 6 0
BBX 6 13 0 -2
BITMAP
00
40
20
00
00
70
88
88
88
98
68
00
00
ENDCHAR
STARTCHAR U+1F71
ENCODING 8049
SWIDTH 480 0
DWIDTH 6 0
BBX 6 13 0 -2
BITMAP
00
10
20
00
00
70
88
88
88
98
68
00
00
ENDCHAR
STARTCHAR U+1F72
ENCODING 8050
SWIDTH 480 0
DWIDTH 6 0
BBX 6 13 0 -2
BITMAP
00
40
20
00
00
70
88
60
80
88
70
00
00
ENDCHAR
STARTCHAR U+1F73
ENCODING 8051
SWIDTH 480 0
DWIDTH 6 0
BBX 6 13 0 -2
BITMAP
00
10
20
00
00
70
88
60
80
88
70
00
00
ENDCHAR
STARTCHAR U+1F74
ENCODING 8052
SWIDTH 480 0
DWIDTH 6 0
BBX 6 13 0 -2
BITMAP
00
40
20
00
00
B0
C8
88
88
88
88
08
08
ENDCHAR
STARTCHAR U+1F75
ENCODING 8053
SWIDTH 480 0
DWIDTH 6 0
BBX 6 13 0 -2
BITMAP
00
10
20
00
00
B0
C8
88
88
88
88
08
08
ENDCHAR
STARTCHAR U+1F76
ENCODING 8054
SWIDTH 480 0
DWIDTH 6 0
BBX 6 13 0 -2
BITMAP
00
40
20
00
00
20
20
20
20
20
10
00
00
ENDCHAR
STARTCHAR U+1F77
ENCODING 8055
SWIDTH 480 0
DWIDTH 6 0
BBX 6 13 0 -2
BITMAP
00
10
20
00
00
20
20
20
20
20
10
00
00
ENDCHAR
STARTCHAR U+1F78
ENCODING 8056
SWIDTH 480 0
DWIDTH 6 0
BBX 6 13 0 -2
BITMAP
00
40
20
00
00
70
88
88
88
88
70
00
00
ENDCHAR
STARTCHAR U+1F79
ENCODING 8057
SWIDTH 480 0
DWIDTH 6 0
BBX 6 13 0 -2
BITMAP
00
10
20
00
00
70
88
88
88
88
70
00
00
ENDCHAR
STARTCHAR U+1F7A
ENCODING 8058
SWIDTH 480 0
DWIDTH 6 0
BBX 6 13 0 -2
BITMAP
00
40
20
00
00
88
88
88
88
88
70
00
00
ENDCHAR
STARTCHAR U+1F7B
ENCODING 8059
SWIDTH 480 0
DWIDTH 6 0
BBX 6 13 0 -2
BITMAP
00
10
20
00
00
88
88
88
88
88
70
00
00
ENDCHAR
STARTCHAR U+1F7C
ENCODING 8060
SWIDTH 480 0
DWIDTH 6 0
BBX 6 13 0 -2
BITMAP
00
40
20
00
00
88
A8
A8
A8
A8
50
00
00
ENDCHAR
STARTCHAR U+1F7D
ENCODING 8061
SWIDTH 480 0
DWIDTH 6 0
BBX 6 13 0 -2
BITMAP
00
10
20
00
00
88
A8
A8
A8
A8
50
00
00
ENDCHAR
STARTCHAR U+1F80
ENCODING 8064
SWIDTH 480 0
DWIDTH 6 0
BBX 6 13 0 -2
BITMAP
00
30
10
20
00
70
88
88
88
98
68
00
20
ENDCHAR
STARTCHAR U+1F81
ENCODING 8065
SWIDTH 480 0
DWIDTH 6 0
BBX 6 13 0 -2
BITMAP
00
30
20
10
00
70
88
88
88
98
68
00
20
ENDCHAR
STARTCHAR U+1F82
ENCODING 8066
SWIDTH 480 0
DWIDTH 6 0
BBX 6 13 0 -2
BITMAP
00
D0
48
80
00
70
88
88
88
98
68
00
20
ENDCHAR
STARTCHAR U+1F83
ENCODING 8067
SWIDTH 480 0
DWIDTH 6 0
BBX 6 13 0 -2
BITMAP
00
D0
88
40
00
70
88
88
88
98
68
00
20
ENDCHAR
STARTCHAR U+1F84
ENCODING 8068
SWIDTH 480 0
DWIDTH 6 0
BBX 6 13 0 -2
BITMAP
00
C8
50
80
00
70
88
88
88
98
68
00
20
ENDCHAR
STARTCHAR U+1F85
ENCODING 8069
SWIDTH 480 0
DWIDTH 6 0
BBX 6 13 0 -2
BITMAP
00
C8
90
40
00
70
88
88
88
98
68
00
20
ENDCHAR
STARTCHAR U+1F86
ENCODING 8070
SWIDTH 480 0
DWIDTH 6 0
BBX 6 13 0 -2
BITMAP
68
B0
10
20
00
70
88
88
88
98
68
00
20
ENDCHAR
STARTCHAR U+1F87
ENCODING 8071
SWIDTH 480 0
DWIDTH 6 0
BBX 6 13 0 -2
BITMAP
68
B0
20
10
00
70
88
88
88
98
68
00
20
ENDCHAR
STARTCHAR U+1F88
ENCODING 8072
SWIDTH 480 0
DWIDTH 6 0
BBX 6 13 0 -2
BITMAP
00
00
D0
68
A8
28
28
38
28
28
28
00
10
ENDCHAR
STARTCHAR U+1F89
ENCODING 8073
SWIDTH 480 0
DWIDTH 6 0
BBX 6 13 0 -2
BITMAP
00
00
D0
A8
68
28
28
38
28
28
28
00
10
ENDCHAR
STARTCHAR U+1F8A
ENCODING 8074
SWIDTH 480 0
DWIDTH 6 0
BBX 6 13 0 -2
BITMAP
00
00
D0
68
A8
A8
68
38
28
28
28
00
10
ENDCHAR
STARTCHAR U+1F8B
ENCODING 8075
SWIDTH 480 0
DWIDTH 6 0
BBX 6 13 0 -2
BITMAP
00
00
D0
A8
68
A8
68
38
28
28
28
00
10
ENDCHAR
STARTCHAR U+1F8C
ENCODING 8076
SWIDTH 480 0
DWIDTH 6 0
BBX 6 13 0 -2
BITMAP
00
00
D0
68
A8
68
A8
38
28
28
28
00
10
ENDCHAR
STARTCHAR U+1F8D
ENCODING 8077
SWIDTH 480 0
DWIDTH 6 0
BBX 6 13 0 -2
BITMAP
00
00
D0
A8
68
68
A8
38
28
28
28
00
10
ENDCHAR
STARTCHAR U+1F8E
ENCODING 8078
SWIDTH 480 0
DWIDTH 6 0
BBX 6 13 0 -2
BITMAP
00
00
D0
28
E8
68
A8
38
28
28
28
00
10
ENDCHAR
STARTCHAR U+1F8F
ENCODING 8079
SWIDTH 480 0
DWIDTH 6 0
BBX 6 13 0 -2
BITMAP
00
00
D0
28
E8
A8
68
38
28
28
28
00
10
ENDCHAR
STARTCHAR U+1F90
ENCODING 8080
SWIDTH 480 0
DWIDTH 6 0
BBX 6 13 0 -2
BITMAP
00
30
10
20
00
B0
C8
88
88
88
88
08
88
ENDCHAR
STARTCHAR U+1F91
ENCODING 8081
SWIDTH 480 0
DWIDTH 6 0
BBX 6 13 0 -2
BITMAP
00
30
20
10
00
B0
C8
88
88
88
88
08
88
ENDCHAR
STARTCHAR U+1F92
ENCODING 8082
SWIDTH 480 0
DWIDTH 6 0
BBX 6 13 0 -2
BITMAP
00
D0
48
80
00
B0
C8
88
88
88
88
08
88
ENDCHAR
STARTCHAR U+1F93
ENCODING 8083
SWIDTH 480 0
DWIDTH 6 0
BBX 6 13 0 -2
BITMAP
00
D0
88
40
00
B0
C8
88
88
88
88
08
88
ENDCHAR
STARTCHAR U+1F94
ENCODING 8084
SWIDTH 480 0
DWIDTH 6 0
BBX 6 13 0 -2
BITMAP
00
C8
50
80
00
B0
C8
88
88
88
88
08
88
ENDCHAR
STARTCHAR U+1F95
ENCODING 8085
SWIDTH 480 0
DWIDTH 6 0
BBX 6 13 0 -2
BITMAP
00
C8
90
40
00
B0
C8
88
88
88
88
08
88
ENDCHAR
STARTCHAR U+1F96
ENCODING 8086
SWIDTH 480 0
DWIDTH 6 0
BBX 6 13 0 -2
BITMAP
68
B0
10
20
00
B0
C8
88
88
88
88
08
88
ENDCHAR
STARTCHAR U+1F97
ENCODING 8087
SWIDTH 480 0
DWIDTH 6 0
BBX 6 13 0 -2
BITMAP
68
B0
20
10
00
B0
C8
88
88
88
88
08
88
ENDCHAR
STARTCHAR U+1F98
ENCODING 8088
SWIDTH 480 0
DWIDTH 6 0
BBX 6 13 0 -2
BITMAP
00
00
E8
68
A8
28
38
28
28
28
28
00
10
ENDCHAR
STARTCHAR U+1F99
ENCODING 8089
SWIDTH 480 0
DWIDTH 6 0
BBX 6 13 0 -2
BITMAP
00
00
E8
A8
68
28
38
28
28
28
28
00
10
ENDCHAR
STARTCHAR U+1F9A
ENCODING 8090
SWIDTH 480 0
DWIDTH 6 0
BBX 6 13 0 -2
BITMAP
00
00
E8
68
A8
A8
78
28
28
28
28
00
10
ENDCHAR
STARTCHAR U+1F9B
ENCODING 8091
SWIDTH 480 0
DWIDTH 6 0
BBX 6 13 0 -2
BITMAP
00
00
E8
A8
68
A8
78
28
28
28
28
00
10
ENDCHAR
STARTCHAR U+1F9C
ENCODING 8092
SWIDTH 480 0
DWIDTH 6 0
BBX 6 13 0 -2
BITMAP
00
00
E8
68
A8
68
B8
28
28
28
28
00
10
ENDCHAR
STARTCHAR U+1F9D
ENCODING 8093
SWIDTH 480 0
DWIDTH 6 0
BBX 6 13 0 -2
BITMAP
00
00
E8
A8
68
68
B8
28
28
28
28
00
10
ENDCHAR
STARTCHAR U+1F9E
ENCODING 8094
SWIDTH 480 0
DWIDTH 6 0
BBX 6 13 0 -2
BITMAP
00
00
E8
28
E8
68
B8
28
28
28
28
00
10
ENDCHAR
STARTCHAR U+1F9F
ENCODING 8095
SWIDTH 480 0
DWIDTH 6 0
BBX 6 13 0 -2
BITMAP
00
00
E8
28
E8
A8
78
28
28
28
28
00
10
ENDCHAR
STARTCHAR U+1FA0
ENCODING 8096
SWIDTH 480 0
DWIDTH 6 0
BBX 6 13 0 -2
BITMAP
00
30
10
20
00
88
A8
A8
A8
A8
50
00
20
ENDCHAR
STARTCHAR U+1FA1
ENCODING 8097
SWIDTH 480 0
DWIDTH 6 0
BBX 6 13 0 -2
BITMAP
00
30
20
10
00
88
A8
A8
A8
A8
50
00
20
ENDCHAR
STARTCHAR U+1FA2
ENCODING 8098
SWIDTH 480 0
DWIDTH 6 0
BBX 6 13 0 -2
BITMAP
00
D0
48
80
00
88
A8
A8
A8
A8
50
00
20
ENDCHAR
STARTCHAR U+1FA3
ENCODING 8099
SWIDTH 480 0
DWIDTH 6 0
BBX 6 13 0 -2
BITMAP
00
D0
88
40
00
88
A8
A8
A8
A8
50
00
20
ENDCHAR
STARTCHAR U+1FA4
ENCODING 8100
SWIDTH 480 0
DWIDTH 6 0
BBX 6 13 0 -2
BITMAP
00
C8
50
80
00
88
A8
A8
A8
A8
50
00
20
ENDCHAR
STARTCHAR U+1FA5
ENCODING 8101
SWIDTH 480 0
DWIDTH 6 0
BBX 6 13 0 -2
BITMAP
00
C8
90
40
00
88
A8
A8
A8
A8
50
00
20
ENDCHAR
STARTCHAR U+1FA6
ENCODING 8102
SWIDTH 480 0
DWIDTH 6 0
BBX 6 13 0 -2
BITMAP
68
B0
10
20
00
88
A8
A8
A8
A8
50
00
20
ENDCHAR
STARTCHAR U+1FA7
ENCODING 8103
SWIDTH 480 0
DWIDTH 6 0
BBX 6 13 0 -2
BITMAP
68
B0
20
10
00
88
A8
A8
A8
A8
50
00
20
ENDCHAR
STARTCHAR U+1FA8
ENCODING 8104
SWIDTH 480 0
DWIDTH 6 0
BBX 6 13 0 -2
BITMAP
00
00
D0
68
A8
28
28
28
10
10
28
00
10
ENDCHAR
STARTCHAR U+1FA9
ENCODING 8105
SWIDTH 480 0
DWIDTH 6 0
BBX 6 13 0 -2
BITMAP
00
00
D0
A8
68
28
28
28
10
10
28
00
10
ENDCHAR
STARTCHAR U+1FAA
ENCODING 8106
SWIDTH 480 0
DWIDTH 6 0
BBX 6 13 0 -2
BITMAP
00
00
D0
68
A8
A8
68
28
10
10
28
00
10
ENDCHAR
STARTCHAR U+1FAB
ENCODING 8107
SWIDTH 480 0
DWIDTH 6 0
BBX 6 13 0 -2
BITMAP
00
00
D0
A8
68
A8
68
28
10
10
28
00
10
ENDCHAR
STARTCHAR U+1FAC
ENCODING 8108
SWIDTH 480 0
DWIDTH 6 0
BBX 6 13 0 -2
BITMAP
00
00
D0
68
A8
68
A8
28
10
10
28
00
10
ENDCHAR
STARTCHAR U+1FAD
ENCODING 8109
SWIDTH 480 0
DWIDTH 6 0
BBX 6 13 0 -2
BITMAP
00
00
D0
A8
68
68
A8
28
10
10
28
00
10
ENDCHAR
STARTCHAR U+1FAE
ENCODING 8110
SWIDTH 480 0
DWIDTH 6 0
BBX 6 13 0 -2
BITMAP
00
00
D0
28
E8
68
A8
28
10
10
28
00
10
ENDCHAR
STARTCHAR U+1FAF
ENCODING 8111
SWIDTH 480 0
DWIDTH 6 0
BBX 6 13 0 -2
BITMAP
00
00
D0
28
E8
A8
68
28
10
10
28
00
10
ENDCHAR
STARTCHAR U+1FB0
ENCODING 8112
SWIDTH 480 0
DWIDTH 6 0
BBX 6 13 0 -2
BITMAP
00
88
70
00
00
70
88
88
88
98
68
00
00
ENDCHAR
STARTCHAR U+1FB1
ENCODING 8113
SWIDTH 480 0
DWIDTH 6 0
BBX 6 13 0 -2
BITMAP
00
00
F8
00
00
70
88
88
88
98
68
00
00
ENDCHAR
STARTCHAR U+1FB2
ENCODING 8114
SWIDTH 480 0
DWIDTH 6 0
BBX 6 13 0 -2
BITMAP
00
40
20
00
00
70
88
88
88
98
68
00
20
ENDCHAR
STARTCHAR U+1FB3
ENCODING 8115
SWIDTH 480 0
DWIDTH 6 0
BBX 6 13 0 -2
BITMAP
00
00
00
00
00
70
88
88
88
98
68
00
20
ENDCHAR
STARTCHAR U+1FB4
ENCODING 8116
SWIDTH 480 0
DWIDTH 6 0
BBX 6 13 0 -2
BITMAP
00
10
20
00
00
70
88
88
88
98
68
00
20
ENDCHAR
STARTCHAR U+1FB6
ENCODING 8118
SWIDTH 480 0
DWIDTH 6 0
BBX 6 13 0 -2
BITMAP
00
00
68
B0
00
70
88
88
88
98
68
00
00
ENDCHAR
STARTCHAR U+1FB7
ENCODING 8119
SWIDTH 480 0
DWIDTH 6 0
BBX 6 13 0 -2
BITMAP
00
00
68
B0
00
70
88
88
88
98
68
00
20
ENDCHAR
STARTCHAR U+1FB8
ENCODING 8120
SWIDTH 480 0
DWIDTH 6 0
BBX 6 13 0 -2
BITMAP
00
88
70
00
20
50
88
88
F8
88
88
00
00
ENDCHAR
STARTCHAR U+1FB9
ENCODING 8121
SWIDTH 480 0
DWIDTH 6 0
BBX 6 13 0 -2
BITMAP
00
00
F8
00
20
50
88
88
F8
88
88
00
00
ENDCHAR
STARTCHAR U+1FBA
ENCODING 8122
SWIDTH 480 0
DWIDTH 6 0
BBX 6 13 0 -2
BITMAP
00
00
90
68
28
28
28
38
28
28
28
00
00
ENDCHAR
STARTCHAR U+1FBB
ENCODING 8123
SWIDTH 480 0
DWIDTH 6 0
BBX 6 13 0 -2
BITMAP
00
00
50
A8
28
28
28
38
28
28
28
00
00
ENDCHAR
STARTCHAR U+1FBC
ENCODING 8124
SWIDTH 480 0
DWIDTH 6 0
BBX 6 13 0 -2
BITMAP
00
00
20
50
88
88
88
F8
88
88
88
00
20
ENDCHAR
STARTCHAR U+1FBD
ENCODING 8125
SWIDTH 480 0
DWIDTH 6 0
BBX 6 13 0 -2
BITMAP
00
00
30
10
20
00
00
00
00
00
00
00
00
ENDCHAR
STARTCHAR U+1FBE
ENCODING 8126
SWIDTH 480 0
DWIDTH 6 0
BBX 6 13 0 -2
BITMAP
00
00
00
00
00
20
20
20
20
20
10
00
00
ENDCHAR
STARTCHAR U+1FBF
ENCODING 8127
SWIDTH 480 0
DWIDTH 6 0
BBX 6 13 0 -2
BITMAP
00
00
30
10
20
00
00
00
00
00
00
00
00
ENDCHAR
STARTCHAR U+1FC0
ENCODING 8128
SWIDTH 480 0
DWIDTH 6 0
BBX 6 13 0 -2
BITMAP
00
00
68
B0
00
00
00
00
00
00
00
00
00
ENDCHAR
STARTCHAR U+1FC1
ENCODING 8129
SWIDTH 480 0
DWIDTH 6 0
BBX 6 13 0 -2
BITMAP
00
68
B0
00
D8
00
00
00
00
00
00
00
00
ENDCHAR
STARTCHAR U+1FC2
ENCODING 8130
SWIDTH 480 0
DWIDTH 6 0
BBX 6 13 0 -2
BITMAP
00
40
20
00
00
B0
C8
88
88
88
88
08
88
ENDCHAR
STARTCHAR U+1FC3
ENCODING 8131
SWIDTH 480 0
DWIDTH 6 0
BBX 6 13 0 -2
BITMAP
00
00
00
00
00
B0
C8
88
88
88
88
08
88
ENDCHAR
STARTCHAR U+1FC4
ENCODING 8132
SWIDTH 480 0
DWIDTH 6 0
BBX 6 13 0 -2
BITMAP
00
10
20
00
00
B0
C8
88
88
88
88
08
88
ENDCHAR
STARTCHAR U+1FC6
ENCODING 8134
SWIDTH 480 0
DWIDTH 6 0
BBX 6 13 0 -2
BITMAP
00
00
68
B0
00
B0
C8
88
88
88
88
08
08
ENDCHAR
STARTCHAR U+1FC7
ENCODING 8135
SWIDTH 480 0
DWIDTH 6 0
BBX 6 13 0 -2
BITMAP
00
00
68
B0
00
B0
C8
88
88
88
88
08
88
ENDCHAR
STARTCHAR U+1FC8
ENCODING 8136
SWIDTH 480 0
DWIDTH 6 0
BBX 6 13 0 -2
BITMAP
00
00
B8
60
20
20
30
20
20
20
38
00
00
ENDCHAR
STARTCHAR U+1FC9
ENCODING 8137
SWIDTH 480 0
DWIDTH 6 0
BBX 6 13 0 -2
BITMAP
00
00
78
A0
20
20
30
20
20
20
38
00
00
ENDCHAR
STARTCHAR U+1FCA
ENCODING 8138
SWIDTH 480 0
DWIDTH 6 0
BBX 6 13 0 -2
BITMAP
00
00
A8
68
28
28
38
28
28
28
28
00
00
ENDCHAR
STARTCHAR U+1FCB
ENCODING 8139
SWIDTH 480 0
DWIDTH 6 0
BBX 6 13 0 -2
BITMAP
00
00
68
A8
28
28
38
28
28
28
28
00
00
ENDCHAR
STARTCHAR U+1FCC
ENCODING 8140
SWIDTH 480 0
DWIDTH 6 0
BBX 6 13 0 -2
BITMAP
00
00
88
88
88
88
F8
88
88
88
88
00
20
ENDCHAR
STARTCHAR U+1FCD
ENCODING 8141
SWIDTH 480 0
DWIDTH 6 0
BBX 6 13 0 -2
BITMAP
00
00
D0
48
80
00
00
00
00
00
00
00
00
ENDCHAR
STARTCHAR U+1FCE
ENCODING 8142
SWIDTH 480 0
DWIDTH 6 0
BBX 6 13 0 -2
BITMAP
00
00
C8
50
80
00
00
00
00
00
00
00
00
ENDCHAR
STARTCHAR U+1FCF
ENCODING 8143
SWIDTH 480 0
DWIDTH 6 0
BBX 6 13 0 -2
BITMAP
00
00
68
B0
10
20
00
00
00
00
00
00
00
ENDCHAR
STARTCHAR U+1FD0
ENCODING 8144
SWIDTH 480 0
DWIDTH 6 0
BBX 6 13 0 -2
BITMAP
00
88
70
00
00
20
20
20
20
20
10
00
00
ENDCHAR
STARTCHAR U+1FD1
ENCODING 8145
SWIDTH 480 0
DWIDTH 6 0
BBX 6 13 0 -2
BITMAP
00
00
F8
00
00
20
20
20
20
20
10
00
00
ENDCHAR
STARTCHAR U+1FD2
ENCODING 8146
SWIDTH 480 0
DWIDTH 6 0
BBX 6 13 0 -2
BITMAP
00
40
20
D8
00
20
20
20
20
20
10
00
00
ENDCHAR
STARTCHAR U+1FD3
ENCODING 8147
SWIDTH 480 0
DWIDTH 6 0
BBX 6 13 0 -2
BITMAP
00
10
20
D8
00
20
20
20
20
20
10
00
00
ENDCHAR
STARTCHAR U+1FD6
ENCODING 8150
SWIDTH 480 0
DWIDTH 6 0
BBX 6 13 0 -2
BITMAP
00
00
68
B0
00
20
20
20
20
20
10
00
00
ENDCHAR
STARTCHAR U+1FD7
ENCODING 8151
SWIDTH 480 0
DWIDTH 6 0
BBX 6 13 0 -2
BITMAP
68
B0
00
D8
00
20
20
20
20
20
10
00
00
ENDCHAR
STARTCHAR U+1FD8
ENCODING 8152
SWIDTH 480 0
DWIDTH 6 0
BBX 6 13 0 -2
BITMAP
00
88
70
00
70
20
20
20
20
20
70
00
00
ENDCHAR
STARTCHAR U+1FD9
ENCODING 8153
SWIDTH 480 0
DWIDTH 6 0
BBX 6 13 0 -2
BITMAP
00
00
F8
00
70
20
20
20
20
20
70
00
00
ENDCHAR
STARTCHAR U+1FDA
ENCODING 8154
SWIDTH 480 0
DWIDTH 6 0
BBX 6 13 0 -2
BITMAP
00
00
B8
50
10
10
10
10
10
10
38
00
00
ENDCHAR
STARTCHAR U+1FDB
ENCODING 8155
SWIDTH 480 0
DWIDTH 6 0
BBX 6 13 0 -2
BITMAP
00
00
78
90
10
10
10
10
10
10
38
00
00
ENDCHAR
STARTCHAR U+1FDD
ENCODING 8157
SWIDTH 480 0
DWIDTH 6 0
BBX 6 13 0 -2
BITMAP
00
00
D0
88
40
00
00
00
00
00
00
00
00
ENDCHAR
STARTCHAR U+1FDE
ENCODING 8158
SWIDTH 480 0
DWIDTH 6 0
BBX 6 13 0 -2
BITMAP
00
00
C8
90
40
00
00
00
00
00
00
00
00
ENDCHAR
STARTCHAR U+1FDF
ENCODING 8159
SWIDTH 480 0
DWIDTH 6 0
BBX 6 13 0 -2
BITMAP
00
00
68
B0
20
10
00
00
00
00
00
00
00
ENDCHAR
STARTCHAR U+1FE0
ENCODING 8160
SWIDTH 480 0
DWIDTH 6 0
BBX 6 13 0 -2
BITMAP
00
88
70
00
00
88
88
88
88
88
70
00
00
ENDCHAR
STARTCHAR U+1FE1
ENCODING 8161
SWIDTH 480 0
DWIDTH 6 0
BBX 6 13 0 -2
BITMAP
00
00
F8
00
00
88
88
88
88
88
70
00
00
ENDCHAR
STARTCHAR U+1FE2
ENCODING 8162
SWIDTH 480 0
DWIDTH 6 0
BBX 6 13 0 -2
BITMAP
00
40
20
D8
00
88
88
88
88
88
70
00
00
ENDCHAR
STARTCHAR U+1FE3
ENCODING 8163
SWIDTH 480 0
DWIDTH 6 0
BBX 6 13 0 -2
BITMAP
00
10
20
D8
00
88
88
88
88
88
70
00
00
ENDCHAR
STARTCHAR U+1FE4
ENCODING 8164
SWIDTH 480 0
DWIDTH 6 0
BBX 6 13 0 -2
BITMAP
00
30
10
20
00
70
88
88
88
88
F0
80
80
ENDCHAR
STARTCHAR U+1FE5
ENCODING 8165
SWIDTH 480 0
DWIDTH 6 0
BBX 6 13 0 -2
BITMAP
00
30
20
10
00
70
88
88
88
88
F0
80
80
ENDCHAR
STARTCHAR U+1FE6
ENCODING 8166
SWIDTH 480 0
DWIDTH 6 0
BBX 6 13 0 -2
BITMAP
00
00
68
B0
00
88
88
88
88
88
70
00
00
ENDCHAR
STARTCHAR U+1FE7
ENCODING 8167
SWIDTH 480 0
DWIDTH 6 0
BBX 6 13 0 -2
BITMAP
68
B0
00
D8
00
88
88
88
88
88
70
00
00
ENDCHAR
STARTCHAR U+1FE8
ENCODING 8168
SWIDTH 480 0
DWIDTH 6 0
BBX 6 13 0 -2
BITMAP
00
88
70
00
88
50
50
20
20
20
20
00
00
ENDCHAR
STARTCHAR U+1FE9
ENCODING 8169
SWIDTH 480 0
DWIDTH 6 0
BBX 6 13 0 -2
BITMAP
00
00
F8
00
88
50
50
20
20
20
20
00
00
ENDCHAR
STARTCHAR U+1FEA
ENCODING 8170
SWIDTH 480 0
DWIDTH 6 0
BBX 6 13 0 -2
BITMAP
00
00
A8
68
28
28
10
10
10
10
10
00
00
ENDCHAR
STARTCHAR U+1FEB
ENCODING 8171
SWIDTH 480 0
DWIDTH 6 0
BBX 6 13 0 -2
BITMAP
00
00
68
A8
28
28
10
10
10
10
10
00
00
ENDCHAR
STARTCHAR U+1FEC
ENCODING 8172
SWIDTH 480 0
DWIDTH 6 0
BBX 6 13 0 -2
BITMAP
00
00
F0
A8
68
28
30
20
20
20
20
00
00
ENDCHAR
STARTCHAR U+1FED
ENCODING 8173
SWIDTH 480 0
DWIDTH 6 0
BBX 6 13 0 -2
BITMAP
00
40
20
D8
00
00
00
00
00
00
00
00
00
ENDCHAR
STARTCHAR U+1FEE
ENCODING 8174
SWIDTH 480 0
DWIDTH 6 0
BBX 6 13 0 -2
BITMAP
00
10
20
D8
00
00
00
00
00
00
00
00
00
ENDCHAR
STARTCHAR U+1FEF
ENCODING 8175
SWIDTH 480 0
DWIDTH 6 0
BBX 6 13 0 -2
BITMAP
00
00
40
20
00
00
00
00
00
00
00
00
00
ENDCHAR
STARTCHAR U+1FF2
ENCODING 8178
SWIDTH 480 0
DWIDTH 6 0
BBX 6 13 0 -2
BITMAP
00
40
20
00
00
88
A8
A8
A8
A8
50
00
20
ENDCHAR
STARTCHAR U+1FF3
ENCODING 8179
SWIDTH 480 0
DWIDTH 6 0
BBX 6 13 0 -2
BITMAP
00
00
00
00
00
88
A8
A8
A8
A8
50
00
20
ENDCHAR
STARTCHAR U+1FF4
ENCODING 8180
SWIDTH 480 0
DWIDTH 6 0
BBX 6 13 0 -2
BITMAP
00
10
20
00
00
88
A8
A8
A8
A8
50
00
20
ENDCHAR
STARTCHAR U+1FF6
ENCODING 8182
SWIDTH 480 0
DWIDTH 6 0
BBX 6 13 0 -2
BITMAP
00
00
68
B0
00
88
A8
A8
A8
A8
50
00
00
ENDCHAR
STARTCHAR U+1FF7
ENCODING 8183
SWIDTH 480 0
DWIDTH 6 0
BBX 6 13 0 -2
BITMAP
00
00
68
B0
00
88
A8
A8
A8
A8
50
00
20
ENDCHAR
STARTCHAR U+1FF8
ENCODING 8184
SWIDTH 480 0
DWIDTH 6 0
BBX 6 13 0 -2
BITMAP
00
00
90
68
28
28
28
28
28
28
10
00
00
ENDCHAR
STARTCHAR U+1FF9
ENCODING 8185
SWIDTH 480 0
DWIDTH 6 0
BBX 6 13 0 -2
BITMAP
00
00
50
A8
28
28
28
28
28
28
10
00
00
ENDCHAR
STARTCHAR U+1FFA
ENCODING 8186
SWIDTH 480 0
DWIDTH 6 0
BBX 6 13 0 -2
BITMAP
00
00
90
68
28
28
28
28
10
10
28
00
00
ENDCHAR
STARTCHAR U+1FFB
ENCODING 8187
SWIDTH 480 0
DWIDTH 6 0
BBX 6 13 0 -2
BITMAP
00
00
50
A8
28
28
28
28
10
10
28
00
00
ENDCHAR
STARTCHAR U+1FFC
ENCODING 8188
SWIDTH 480 0
DWIDTH 6 0
BBX 6 13 0 -2
BITMAP
00
00
70
88
88
88
88
88
50
50
D8
00
20
ENDCHAR
STARTCHAR U+1FFD
ENCODING 8189
SWIDTH 480 0
DWIDTH 6 0
BBX 6 13 0 -2
BITMAP
00
00
10
20
00
00
00
00
00
00
00
00
00
ENDCHAR
STARTCHAR U+1FFE
ENCODING 8190
SWIDTH 480 0
DWIDTH 6 0
BBX 6 13 0 -2
BITMAP
00
00
30
20
10
00
00
00
00
00
00
00
00
ENDCHAR
STARTCHAR U+2000
ENCODING 8192
SWIDTH 480 0
DWIDTH 6 0
BBX 6 13 0 -2
BITMAP
00
00
00
00
00
00
00
00
00
00
00
00
00
ENDCHAR
STARTCHAR U+2001
ENCODING 8193
SWIDTH 480 0
DWIDTH 6 0
BBX 6 13 0 -2
BITMAP
00
00
00
00
00
00
00
00
00
00
00
00
00
ENDCHAR
STARTCHAR U+2002
ENCODING 8194
SWIDTH 480 0
DWIDTH 6 0
BBX 6 13 0 -2
BITMAP
00
00
00
00
00
00
00
00
00
00
00
00
00
ENDCHAR
STARTCHAR U+2003
ENCODING 8195
SWIDTH 480 0
DWIDTH 6 0
BBX 6 13 0 -2
BITMAP
00
00
00
00
00
00
00
00
00
00
00
00
00
ENDCHAR
STARTCHAR U+2004
ENCODING 8196
SWIDTH 480 0
DWIDTH 6 0
BBX 6 13 0 -2
BITMAP
00
00
00
00
00
00
00
00
00
00
00
00
00
ENDCHAR
STARTCHAR U+2005
ENCODING 8197
SWIDTH 480 0
DWIDTH 6 0
BBX 6 13 0 -2
BITMAP
00
00
00
00
00
00
00
00
00
00
00
00
00
ENDCHAR
STARTCHAR U+2006
ENCODING 8198
SWIDTH 480 0
DWIDTH 6 0
BBX 6 13 0 -2
BITMAP
00
00
00
00
00
00
00
00
00
00
00
00
00
ENDCHAR
ENDFONT
